<svg width="33" height="11" viewBox="0 0 33 11" fill="none" xmlns="http://www.w3.org/2000/svg">
<path d="M3.87376 0V10.5711H6V11H0V10.5711H2.12193V0.768709H0V0.339405H0.322813C1.51714 0.354519 2.70919 0.24055 3.87376 0Z" fill="#BACCB6"/>
<path d="M12.5117 5.05659V5.08707C13.8265 5.18603 14.7362 5.51101 15.2408 6.0616C15.5156 6.34567 15.7235 6.67757 15.8517 7.03688C15.9799 7.39619 16.0257 7.77527 15.9863 8.15116C15.947 8.52705 15.8232 8.89159 15.6227 9.2227C15.4222 9.55381 15.1492 9.84454 14.8203 10.0768C14.0336 10.69 13.0241 11.018 11.9861 10.9978C11.2117 11.0247 10.4518 10.8024 9.84156 10.3701C9.59457 10.2137 9.3904 10.0079 9.24463 9.76906C9.09886 9.53026 9.01537 9.26475 9.00055 8.99226C8.99195 8.73461 9.0843 8.48247 9.26126 8.2805C9.33829 8.18951 9.43768 8.11588 9.55154 8.06567C9.6654 8.01547 9.79057 7.99016 9.91722 7.99134C10.0346 7.98888 10.1512 8.00955 10.2587 8.05229C10.3662 8.09504 10.4621 8.15859 10.5396 8.2385C10.7065 8.40028 10.7971 8.61482 10.7919 8.83616C10.8027 8.99199 10.7626 9.14718 10.6767 9.28254C10.5907 9.4179 10.4626 9.52743 10.3083 9.59735C10.1023 9.67727 10.0013 9.74189 10.0013 9.79136C10.0013 9.84084 10.1864 10.0465 10.5648 10.2444C10.9477 10.4453 11.3838 10.5477 11.8263 10.541C13.2953 10.541 14.0283 9.73441 14.0255 8.12068C14.0255 6.95987 13.7564 6.19868 13.2182 5.83711C12.7093 5.49338 12.0912 5.30757 11.4563 5.30785L10.6741 5.35356C10.3882 5.35356 10.2536 5.26995 10.2536 5.09488C10.2536 4.9198 10.3798 4.83991 10.6237 4.83991C10.7036 4.83991 10.8928 4.83967 11.1956 4.88154L11.6581 4.92353C11.9887 4.8741 12.3036 4.76069 12.5815 4.59126C12.8594 4.42182 13.0938 4.20029 13.2687 3.94157C13.4686 3.49655 13.5562 3.01696 13.5252 2.53738C13.5252 1.68104 13.3948 1.11386 13.1341 0.828418C12.9954 0.684344 12.8221 0.570787 12.6275 0.496884C12.4328 0.422982 12.222 0.390662 12.0113 0.402107C11.6162 0.39106 11.2249 0.473675 10.876 0.641837C10.5648 0.801687 10.4092 0.950179 10.4092 1.08339C10.4092 1.14428 10.5269 1.23189 10.7624 1.34988C10.8808 1.40913 10.9776 1.49823 11.0411 1.60633C11.1045 1.71444 11.1319 1.83675 11.1198 1.95868C11.119 2.0578 11.0953 2.15557 11.0504 2.24599C11.0056 2.3364 10.9404 2.41743 10.8591 2.48386C10.7042 2.62496 10.4945 2.7055 10.2747 2.70835C10.156 2.70911 10.0388 2.68455 9.93277 2.63625C9.82675 2.58794 9.73494 2.51746 9.66493 2.43071C9.50624 2.24736 9.42168 2.02022 9.42526 1.78734C9.44149 1.54116 9.52101 1.30202 9.65753 1.08859C9.79406 0.87516 9.9838 0.693532 10.2116 0.558211C10.7936 0.170989 11.5041 -0.0250064 12.2258 0.0025563C13.0629 -0.0242092 13.8822 0.225964 14.5302 0.706509C14.8198 0.90919 15.0543 1.16937 15.2154 1.46696C15.3765 1.76454 15.46 2.09151 15.4595 2.4229C15.4398 3.71947 14.4573 4.59734 12.5117 5.05659Z" fill="#BACCB6"/>
<path d="M19.3304 1.9164L19.1836 4.88187C19.7833 4.71229 20.4086 4.62358 21.0383 4.6187C22.0723 4.58854 23.0814 4.9017 23.8665 5.4969C24.2286 5.76491 24.5183 6.1011 24.7144 6.4808C24.9104 6.8605 25.0078 7.27442 24.9995 7.69167C25.0052 8.13987 24.8974 8.58352 24.6839 8.99015C24.4705 9.39678 24.1568 9.75604 23.7658 10.0417C22.966 10.6702 21.9281 11.01 20.8579 10.9942C20.0837 11.0401 19.3203 10.8138 18.7346 10.3643C18.505 10.1841 18.3209 9.96312 18.1944 9.71595C18.0679 9.46878 18.0017 9.20096 18.0002 8.9297C17.9949 8.70523 18.0847 8.48696 18.252 8.31793C18.3388 8.23295 18.4461 8.16643 18.5659 8.12281C18.6857 8.0792 18.815 8.05971 18.9444 8.06598C19.0561 8.06368 19.1672 8.0819 19.2705 8.11955C19.3738 8.1572 19.4671 8.2134 19.5444 8.28462C19.6252 8.35815 19.6883 8.44539 19.7301 8.54092C19.7719 8.63644 19.7915 8.73829 19.7878 8.84065C19.8007 9.00887 19.7517 9.17614 19.6481 9.31776C19.5445 9.45937 19.3918 9.56779 19.2129 9.62654C19.0577 9.68585 18.978 9.74506 18.978 9.80066C18.978 9.94893 19.1374 10.1083 19.4605 10.2789C19.8295 10.4592 20.2476 10.5463 20.669 10.5308C22.23 10.5308 23.0119 9.6773 23.0147 7.96969C23.0147 6.02731 22.1755 5.05599 20.497 5.05599C20.1069 5.0402 19.7178 5.1036 19.3598 5.24133C19.206 5.32532 19.0393 5.38893 18.8647 5.43029C18.743 5.43029 18.6842 5.32656 18.6926 5.11897L18.8647 1.90518C18.8926 1.26266 18.9808 0.869855 19.129 0.726524C19.2759 0.581958 19.7123 0.507517 20.4424 0.507517H22.3769C22.7411 0.525872 23.1064 0.502398 23.4637 0.43729C23.6064 0.389101 23.7113 0.244651 23.7784 0H24.1645C24.1281 0.879755 23.977 1.4171 23.7112 1.61233C23.3034 1.84181 22.8206 1.94485 22.3391 1.90518L19.3304 1.9164Z" fill="#BACCB6"/>
<path d="M30.0101 5.05659V5.08707C31.1394 5.18603 31.9191 5.51101 32.3493 6.0616C32.5848 6.34567 32.763 6.67757 32.8729 7.03688C32.9827 7.39619 33.022 7.77527 32.9883 8.15116C32.9545 8.52705 32.8485 8.89159 32.6766 9.2227C32.5048 9.55381 32.2707 9.84454 31.9888 10.0768C31.3145 10.69 30.4492 11.018 29.5595 10.9978C28.8958 11.0247 28.2444 10.8024 27.7213 10.3701C27.5096 10.2137 27.3346 10.0079 27.2097 9.76906C27.0847 9.53026 27.0132 9.26475 27.0005 8.99226C26.9931 8.73461 27.0723 8.48247 27.224 8.2805C27.29 8.18951 27.3751 8.11588 27.4727 8.06567C27.5703 8.01547 27.6777 7.99016 27.7862 7.99134C27.8869 7.98888 27.9868 8.00955 28.0789 8.05229C28.1711 8.09504 28.2533 8.15859 28.3197 8.2385C28.4628 8.40028 28.5404 8.61482 28.5359 8.83616C28.5452 8.99199 28.5108 9.14718 28.4371 9.28254C28.3634 9.4179 28.2537 9.52743 28.1214 9.59735C27.9448 9.67727 27.8583 9.74189 27.8583 9.79136C27.8583 9.84084 28.0169 10.0465 28.3413 10.2444C28.6695 10.4453 29.0433 10.5477 29.4226 10.541C30.6817 10.541 31.31 9.73441 31.3076 8.12068C31.3076 6.95987 31.0769 6.19868 30.6156 5.83711C30.1794 5.49338 29.6497 5.30757 29.1054 5.30785L28.435 5.35356C28.1899 5.35356 28.0746 5.26995 28.0746 5.09488C28.0746 4.9198 28.1827 4.83991 28.3918 4.83991C28.4602 4.83991 28.6224 4.83967 28.8819 4.88154L29.2784 4.92353C29.5618 4.8741 29.8317 4.76069 30.0699 4.59126C30.3081 4.42182 30.509 4.20029 30.6588 3.94157C30.8302 3.49655 30.9053 3.01696 30.8787 2.53738C30.8787 1.68104 30.767 1.11386 30.5399 0.828418C30.4222 0.683962 30.2743 0.570101 30.108 0.496141C29.9416 0.42218 29.7613 0.39009 29.5811 0.402107C29.2425 0.39106 28.907 0.473675 28.608 0.641837C28.3413 0.801687 28.2079 0.950179 28.2079 1.08339C28.2079 1.14428 28.3088 1.23189 28.5107 1.34988C28.6121 1.40913 28.6951 1.49823 28.7495 1.60633C28.8039 1.71444 28.8273 1.83675 28.817 1.95868C28.8163 2.0578 28.796 2.15557 28.7576 2.24599C28.7191 2.3364 28.6632 2.41743 28.5936 2.48386C28.4608 2.62496 28.2809 2.7055 28.0926 2.70835C27.9908 2.70911 27.8904 2.68455 27.7996 2.63625C27.7087 2.58794 27.63 2.51746 27.57 2.43071C27.434 2.24736 27.3614 2.02022 27.3645 1.78734C27.3784 1.54116 27.4466 1.30202 27.5636 1.08859C27.6807 0.87516 27.8433 0.693532 28.0385 0.558211C28.5374 0.170989 29.1464 -0.0250064 29.765 0.0025563C30.4825 -0.0242092 31.1847 0.225964 31.7401 0.706509C31.9884 0.90919 32.1893 1.16937 32.3274 1.46696C32.4655 1.76454 32.5371 2.09151 32.5367 2.4229C32.5199 3.71947 31.6777 4.59734 30.0101 5.05659Z" fill="#BACCB6"/>
</svg>
