<svg width="26" height="26" viewBox="0 0 26 26" fill="none" xmlns="http://www.w3.org/2000/svg">
<path d="M3.57733 24.3674H22.4231C22.7986 24.3669 23.1695 24.2845 23.5099 24.1258C23.8502 23.9672 24.1519 23.7362 24.3937 23.4489C24.6356 23.1616 24.8118 22.825 24.9101 22.4626C25.0084 22.1001 25.0263 21.7206 24.9627 21.3505L23.1591 10.7386C23.0559 10.138 22.7435 9.59332 22.2772 9.201C21.8108 8.80869 21.2207 8.59407 20.6113 8.59522H4.9362C4.30721 8.5942 3.69948 8.82296 3.22731 9.23852C2.75515 9.65408 2.45105 10.2279 2.37218 10.8519L1.0214 21.4556C0.974281 21.8192 1.00519 22.1886 1.11204 22.5393C1.21889 22.89 1.39922 23.2138 1.64105 23.4894C1.88289 23.7649 2.18069 23.9856 2.51455 24.1371C2.84842 24.2885 3.21073 24.367 3.57733 24.3674V24.3674Z" stroke="#fff" stroke-width="1.5" stroke-miterlimit="10"/>
<path d="M7.70203 12.2266V5.75592C7.70203 4.49457 8.20316 3.2849 9.09507 2.39299C9.98697 1.50108 11.1966 1 12.4579 1V1C13.7193 1 14.929 1.50108 15.8209 2.39299C16.7128 3.2849 17.2139 4.49457 17.2139 5.75592V12.2266" stroke="#fff" stroke-width="1.5" stroke-miterlimit="10"/>
<path d="M3.57733 24.3674H22.4231C22.7986 24.3669 23.1695 24.2845 23.5099 24.1258C23.8502 23.9672 24.1519 23.7362 24.3937 23.4489C24.6356 23.1616 24.8118 22.825 24.9101 22.4626C25.0084 22.1001 25.0263 21.7206 24.9627 21.3505L23.1591 10.7386C23.0559 10.138 22.7435 9.59332 22.2772 9.201C21.8108 8.80869 21.2207 8.59407 20.6113 8.59522H4.9362C4.30721 8.5942 3.69948 8.82296 3.22731 9.23852C2.75515 9.65408 2.45105 10.2279 2.37218 10.8519L1.0214 21.4556C0.974281 21.8192 1.00519 22.1886 1.11204 22.5393C1.21889 22.89 1.39922 23.2138 1.64105 23.4894C1.88289 23.7649 2.18069 23.9856 2.51455 24.1371C2.84842 24.2885 3.21073 24.367 3.57733 24.3674V24.3674Z" stroke="#fff" stroke-width="1.5" stroke-miterlimit="10"/>
<path d="M7.70203 12.2266V5.75592C7.70203 4.49457 8.20316 3.2849 9.09507 2.39299C9.98697 1.50108 11.1966 1 12.4579 1V1C13.7193 1 14.929 1.50108 15.8209 2.39299C16.7128 3.2849 17.2139 4.49457 17.2139 5.75592V12.2266" stroke="#fff" stroke-width="1.5" stroke-miterlimit="10"/>
</svg>
