<svg width="405" height="48" viewBox="0 0 405 48" fill="none" xmlns="http://www.w3.org/2000/svg">
<path opacity="0.47" d="M31.7583 22.8476C32.3503 22.8688 33.5449 23.1013 35.342 23.5453C40.8391 24.9196 43.5876 27.499 43.5876 31.2835C43.5876 35.1738 40.8073 38.8208 35.2468 42.2248C29.7075 45.6288 24.2739 47.3307 18.9459 47.3307C16.2185 47.3307 14.0091 46.8022 12.3177 45.745C10.3092 44.4765 9.30491 42.5525 9.30491 39.9731C9.30491 39.0006 9.42119 38.0703 9.65376 37.1823L5.75295 41.876C3.6387 44.3708 2.349 45.6182 1.88386 45.6182C1.5033 45.6182 1.11216 45.4808 0.710449 45.2059C0.329883 44.9099 0.139599 44.5716 0.139599 44.1911C0.139599 43.0282 2.58157 39.804 7.4655 34.5183C12.8991 28.6196 15.912 25.1416 16.504 24.0845L15.9648 22.7208C15.9648 21.7271 16.9691 21.3359 18.9776 21.5474L34.3271 5.59529C26.5467 6.48328 20.6902 7.89983 16.7577 9.84495C15.7005 10.3735 14.9817 10.6378 14.6011 10.6378C13.6286 10.6378 13.1423 10.2044 13.1423 9.33753C13.1423 7.94212 15.764 6.48328 21.0073 4.96101C26.2718 3.43875 31.8535 2.51904 37.7522 2.20191C39.0208 1.06021 39.9088 0.489358 40.4162 0.489358C40.8179 0.489358 41.1139 0.690212 41.3042 1.09192C41.4945 1.47249 41.5368 1.85305 41.4311 2.23362C51.1355 2.23362 55.9877 5.03501 55.9877 10.6378C55.9877 13.8726 53.514 16.526 48.5667 18.598C46.4313 19.5071 42.5622 20.5959 36.9594 21.8645C35.8177 22.1816 34.084 22.5094 31.7583 22.8476ZM38.6719 5.21472L23.6396 21.4522C30.1515 20.6065 36.008 19.4331 41.2091 17.932C49.9832 15.416 54.3703 12.5512 54.3703 9.33753C54.3703 6.54671 50.5752 5.1513 42.985 5.1513L38.6719 5.21472ZM21.4513 24.0528C14.284 31.1144 10.7003 36.3155 10.7003 39.656C10.7003 41.2417 11.546 42.4362 13.2374 43.2396C14.5271 43.8316 16.0705 44.1276 17.8677 44.1276C23.2167 44.1276 28.4495 42.5419 33.566 39.3706C38.6825 36.178 41.2408 33.0912 41.2408 30.1101C41.2408 27.8056 39.0102 26.0824 34.5491 24.9407C31.5046 24.1585 28.3121 23.7673 24.9716 23.7673C23.703 23.7673 22.5296 23.8625 21.4513 24.0528ZM49.0741 40.5123C48.017 40.766 46.0296 41.7385 43.1119 43.4299C40.5325 44.9099 38.5768 45.6499 37.2448 45.6499C36.9911 45.6499 36.8643 45.5125 36.8643 45.2376C36.8643 44.8571 37.1391 44.6245 37.6888 44.5399C38.9785 44.3285 40.7968 43.5356 43.1436 42.1614C45.723 40.6814 47.8267 39.7511 49.4547 39.3706C50.4272 37.0237 52.4358 34.5606 55.4803 31.9812C58.7151 29.2115 61.4742 27.8267 63.7576 27.8267C65.449 27.8267 66.2947 28.5456 66.2947 29.9833C66.2947 31.8649 64.5082 33.9158 60.9351 36.1357C58.3134 37.7849 55.6283 39.0746 52.8798 40.0048C52.5838 40.6814 52.4358 41.3897 52.4358 42.1297C52.4358 43.2291 52.8163 43.9479 53.5775 44.2862C53.958 44.4342 54.6769 44.5293 55.734 44.5716C56.4951 44.5928 56.8757 44.7725 56.8757 45.1108C56.8757 45.6393 55.5754 45.9036 52.9749 45.9036C50.2264 45.9036 48.8521 44.7091 48.8521 42.3199C48.8521 41.7702 48.9261 41.1677 49.0741 40.5123ZM53.2603 38.7363C55.2054 37.7849 57.2563 36.4952 59.4128 34.8672C62.2882 32.7318 63.7259 31.0404 63.7259 29.793C63.7259 29.2855 63.4933 29.0318 63.0282 29.0318C61.6539 29.0318 59.7828 30.3004 57.4148 32.8375C55.3006 35.142 53.9157 37.1083 53.2603 38.7363ZM75.2063 38.3874C82.8599 31.5795 87.9764 28.1756 90.5558 28.1756C91.6975 28.1756 92.2684 28.7781 92.2684 29.9833C92.2684 31.2729 90.4501 33.7255 86.8136 37.3409C83.1982 40.9563 81.3905 43.0811 81.3905 43.7154C81.3905 44.3073 81.9719 44.6033 83.1348 44.6033C83.4308 44.6033 83.5788 44.7725 83.5788 45.1108C83.5788 45.5125 83.0608 45.7133 82.0248 45.7133C80.1854 45.7133 79.2657 44.9416 79.2657 43.3982C79.2657 41.6222 80.6823 39.286 83.5154 36.3895C86.9827 32.8375 88.8539 30.8184 89.1287 30.3321C89.1499 30.0784 89.023 29.9515 88.7481 29.9515C87.5853 29.9515 84.6253 31.9707 79.8683 36.0089C76.3163 39.0111 73.4621 41.5905 71.3055 43.7471C70.4387 44.6139 69.7304 45.2482 69.1807 45.6499C68.8635 45.6499 68.557 45.449 68.261 45.0473C67.9861 44.6456 67.8487 44.2756 67.8487 43.9374C67.8487 43.4511 69.297 41.3685 72.1935 37.6897L77.236 31.3469C75.1852 33.2709 72.6269 35.438 69.5613 37.8483L63.4722 42.5102C60.4065 44.6033 58.0491 45.6499 56.4 45.6499C56.1463 45.6499 56.0194 45.523 56.0194 45.2693C56.0194 44.8888 56.2309 44.6456 56.6537 44.5399C58.4085 44.0959 59.952 43.4616 61.2839 42.6371C63.7576 41.1148 67.4681 38.2606 72.4155 34.0743L78.8217 28.6513C80.1748 27.5096 83.9276 23.3339 90.0801 16.1243C95.6195 9.63352 98.6534 6.38814 99.182 6.38814C99.9431 6.38814 100.324 6.86384 100.324 7.81526C100.324 8.47068 98.1989 11.3038 93.9492 16.3146L75.2063 38.3874ZM101.021 31.6324C100.916 30.9347 100.863 30.5118 100.863 30.3638C100.863 29.793 101.539 28.905 102.893 27.6999C104.267 26.4736 105.208 25.8605 105.715 25.8605C106.201 25.8605 106.444 26.0824 106.444 26.5264C106.444 26.907 106.18 27.5413 105.652 28.4293C108.041 28.4293 109.235 29.3807 109.235 31.2835C109.235 32.7846 107.692 35.1843 104.605 38.4826C101.518 41.7597 99.9748 43.5991 99.9748 44.0008C99.9748 44.3813 100.176 44.5928 100.577 44.6351L101.624 44.6033C101.92 44.6033 102.068 44.7725 102.068 45.1108C102.068 45.5336 101.455 45.745 100.229 45.745C98.664 45.745 97.8817 45.0473 97.8817 43.6519C97.8817 42.2777 98.664 40.5651 100.229 38.5143C101.201 37.2246 102.649 35.6283 104.573 33.7255C106.138 32.1821 106.92 31.3364 106.92 31.1884C106.92 30.8712 106.74 30.7127 106.381 30.7127C106.064 30.7127 105.461 30.8395 104.573 31.0932C103.685 31.3258 103.157 31.5161 102.988 31.6641C93.1564 40.988 86.5282 45.6499 83.1031 45.6499C82.8494 45.6499 82.7225 45.5125 82.7225 45.2376C82.7225 44.8782 83.0079 44.6456 83.5788 44.5399C84.2765 44.4131 85.1962 44.0854 86.3379 43.5568C88.0504 42.7957 90.6087 40.988 94.0126 38.1337C97.036 35.6177 99.3723 33.4506 101.021 31.6324ZM113.231 38.99C107.586 43.4299 103.696 45.6499 101.561 45.6499C101.307 45.6499 101.18 45.5125 101.18 45.2376C101.18 44.8571 101.434 44.6245 101.941 44.5399C103.929 44.2228 106.677 42.6899 110.187 39.9414L114.278 36.7383L120.843 31.5055C123.845 29.4335 126.414 28.3976 128.549 28.3976C130.135 28.3976 131.023 29.1904 131.213 30.7761C132.038 29.9938 132.608 29.6027 132.926 29.6027C133.623 29.6027 133.972 29.8881 133.972 30.459C133.972 31.199 132.344 33.4612 129.088 37.2457C125.853 41.0302 124.236 43.2396 124.236 43.8739C124.236 44.3179 124.585 44.5505 125.283 44.5716C125.98 44.5928 126.329 44.7725 126.329 45.1108C126.329 45.5336 125.61 45.745 124.173 45.745C122.756 45.745 122.048 45.1213 122.048 43.8739C122.048 42.8802 122.619 41.4637 123.76 39.6243L119.828 42.9542C117.904 44.3919 116.371 45.1108 115.229 45.1108C113.411 45.1108 112.502 44.1911 112.502 42.3517C112.502 41.3368 112.745 40.2163 113.231 38.99ZM128.993 29.6978C127.746 29.6978 125.166 31.5584 121.255 35.2795C117.343 39.0006 115.388 41.4848 115.388 42.7322C115.388 43.3031 115.663 43.5885 116.212 43.5885C117.417 43.5885 119.997 41.7702 123.951 38.1337C127.925 34.4761 129.913 32.0129 129.913 30.7444C129.913 30.0467 129.606 29.6978 128.993 29.6978ZM138.729 38.0386L132.735 42.6371C129.775 44.6456 127.481 45.6499 125.853 45.6499C125.6 45.6499 125.473 45.523 125.473 45.2693C125.473 44.8888 125.684 44.6456 126.107 44.5399C127.735 44.1382 129.215 43.5356 130.547 42.7322C132.556 41.5482 135.368 39.3706 138.983 36.1992C142.619 33.0278 145.421 30.8607 147.387 29.6978C148.782 28.8733 150.04 28.461 151.161 28.461C153.043 28.461 154.026 29.2433 154.11 30.8078C157.282 26.8119 160.876 22.5411 164.893 17.9954C171.067 10.9761 174.756 7.46641 175.961 7.46641C176.638 7.46641 176.976 7.84697 176.976 8.60811C176.976 9.24238 176.12 10.4581 174.407 12.2552C171.215 15.5746 166.458 20.9448 160.136 28.3658C152.377 37.4783 148.497 42.6265 148.497 43.8105C148.497 44.2968 148.846 44.5505 149.544 44.5716C150.241 44.5928 150.59 44.7725 150.59 45.1108C150.59 45.5336 150.083 45.745 149.068 45.745C147.398 45.745 146.563 45.0579 146.563 43.6836C146.563 42.5842 147.26 40.8717 148.656 38.546C144.491 42.9859 141.531 45.2059 139.776 45.2059C138.148 45.2059 137.334 44.3391 137.334 42.6054C137.334 41.6328 137.799 40.1105 138.729 38.0386ZM140.664 43.5568C141.869 43.5568 144.258 41.7597 147.831 38.1654C151.404 34.55 153.191 32.1398 153.191 30.9347C153.191 30.3215 152.905 30.015 152.334 30.015C150.854 30.015 148.434 31.7698 145.072 35.2795C141.71 38.7891 140.029 41.3262 140.029 42.8908C140.029 43.3348 140.241 43.5568 140.664 43.5568ZM217.126 4.89758C217.993 4.8553 218.69 4.83416 219.219 4.83416C221.714 4.83416 223.638 5.1513 224.991 5.78557C226.619 6.52556 227.972 7.89983 229.05 9.90838C229.938 11.6209 230.382 13.27 230.382 14.8557C230.382 19.6974 227.972 24.8033 223.152 30.1735C219.346 34.4021 215.128 38.0597 210.498 41.1465C204.683 45.0156 199.546 46.9502 195.085 46.9502C193.076 46.9502 191.448 46.3582 190.201 45.1742C188.953 43.9902 188.33 42.3939 188.33 40.3854C188.33 39.1591 188.499 37.9434 188.837 36.7383L181.543 44.7302C180.993 45.3433 180.454 45.6499 179.926 45.6499C179.016 45.6499 178.562 45.2376 178.562 44.4131C178.562 44.1171 178.689 43.7154 178.942 43.2079C179.619 41.7491 184.344 36.2626 193.118 26.7484L209.324 9.14724C205.349 9.86609 202.009 10.7541 199.303 11.8112C196.596 12.8472 194.884 13.3652 194.165 13.3652C193.192 13.3652 192.706 13.048 192.706 12.4138C192.706 11.8429 194.672 10.8069 198.605 9.30581C202.537 7.80469 207.39 6.52556 213.162 5.46843L215.001 3.7876C215.91 2.96304 216.513 2.55076 216.809 2.55076C217.38 2.55076 217.665 2.92075 217.665 3.66074C217.665 3.91446 217.485 4.32674 217.126 4.89758ZM214.842 8.29097L194.038 30.903C192.347 32.7635 191.269 34.0849 190.803 34.8672C190 36.2415 189.598 37.88 189.598 39.7828C189.598 42.6371 191.131 44.0642 194.197 44.0642C197.791 44.0642 202.358 42.2459 207.897 38.6094C213.246 35.0786 217.876 30.9664 221.788 26.2727C226.037 21.1774 228.162 16.8114 228.162 13.1749C228.162 9.4961 225.868 7.65669 221.28 7.65669C219.251 7.65669 217.105 7.86812 214.842 8.29097ZM226.101 40.5123C225.044 40.766 223.056 41.7385 220.139 43.4299C217.559 44.9099 215.604 45.6499 214.272 45.6499C214.018 45.6499 213.891 45.5125 213.891 45.2376C213.891 44.8571 214.166 44.6245 214.716 44.5399C216.005 44.3285 217.824 43.5356 220.17 42.1614C222.75 40.6814 224.853 39.7511 226.481 39.3706C227.454 37.0237 229.463 34.5606 232.507 31.9812C235.742 29.2115 238.501 27.8267 240.784 27.8267C242.476 27.8267 243.322 28.5456 243.322 29.9833C243.322 31.8649 241.535 33.9158 237.962 36.1357C235.34 37.7849 232.655 39.0746 229.907 40.0048C229.611 40.6814 229.463 41.3897 229.463 42.1297C229.463 43.2291 229.843 43.9479 230.604 44.2862C230.985 44.4342 231.704 44.5293 232.761 44.5716C233.522 44.5928 233.902 44.7725 233.902 45.1108C233.902 45.6393 232.602 45.9036 230.002 45.9036C227.253 45.9036 225.879 44.7091 225.879 42.3199C225.879 41.7702 225.953 41.1677 226.101 40.5123ZM230.287 38.7363C232.232 37.7849 234.283 36.4952 236.44 34.8672C239.315 32.7318 240.753 31.0404 240.753 29.793C240.753 29.2855 240.52 29.0318 240.055 29.0318C238.681 29.0318 236.81 30.3004 234.442 32.8375C232.327 35.142 230.943 37.1083 230.287 38.7363ZM252.233 38.3874C259.887 31.5795 265.003 28.1756 267.583 28.1756C268.724 28.1756 269.295 28.7781 269.295 29.9833C269.295 31.2729 267.477 33.7255 263.84 37.3409C260.225 40.9563 258.417 43.0811 258.417 43.7154C258.417 44.3073 258.999 44.6033 260.162 44.6033C260.458 44.6033 260.606 44.7725 260.606 45.1108C260.606 45.5125 260.088 45.7133 259.052 45.7133C257.212 45.7133 256.292 44.9416 256.292 43.3982C256.292 41.6222 257.709 39.286 260.542 36.3895C264.01 32.8375 265.881 30.8184 266.156 30.3321C266.177 30.0784 266.05 29.9515 265.775 29.9515C264.612 29.9515 261.652 31.9707 256.895 36.0089C253.343 39.0111 250.489 41.5905 248.332 43.7471C247.465 44.6139 246.757 45.2482 246.207 45.6499C245.89 45.6499 245.584 45.449 245.288 45.0473C245.013 44.6456 244.876 44.2756 244.876 43.9374C244.876 43.4511 246.324 41.3685 249.22 37.6897L254.263 31.3469C252.212 33.2709 249.654 35.438 246.588 37.8483L240.499 42.5102C237.433 44.6033 235.076 45.6499 233.427 45.6499C233.173 45.6499 233.046 45.523 233.046 45.2693C233.046 44.8888 233.258 44.6456 233.681 44.5399C235.435 44.0959 236.979 43.4616 238.311 42.6371C240.784 41.1148 244.495 38.2606 249.442 34.0743L255.848 28.6513C257.202 27.5096 260.954 23.3339 267.107 16.1243C272.646 9.63352 275.68 6.38814 276.209 6.38814C276.97 6.38814 277.35 6.86384 277.35 7.81526C277.35 8.47068 275.226 11.3038 270.976 16.3146L252.233 38.3874ZM273.006 38.0386L267.012 42.6371C264.052 44.6456 261.758 45.6499 260.13 45.6499C259.876 45.6499 259.749 45.523 259.749 45.2693C259.749 44.8888 259.961 44.6456 260.384 44.5399C262.012 44.1382 263.492 43.5356 264.824 42.7322C266.832 41.5482 269.644 39.3706 273.259 36.1992C276.896 33.0278 279.697 30.8607 281.664 29.6978C283.059 28.8733 284.317 28.461 285.438 28.461C287.319 28.461 288.302 29.2433 288.387 30.8078C291.558 26.8119 295.153 22.5411 299.17 17.9954C305.343 10.9761 309.033 7.46641 310.238 7.46641C310.914 7.46641 311.253 7.84697 311.253 8.60811C311.253 9.24238 310.396 10.4581 308.684 12.2552C305.491 15.5746 300.734 20.9448 294.413 28.3658C286.653 37.4783 282.774 42.6265 282.774 43.8105C282.774 44.2968 283.122 44.5505 283.82 44.5716C284.518 44.5928 284.867 44.7725 284.867 45.1108C284.867 45.5336 284.359 45.745 283.344 45.745C281.674 45.745 280.839 45.0579 280.839 43.6836C280.839 42.5842 281.537 40.8717 282.932 38.546C278.767 42.9859 275.807 45.2059 274.052 45.2059C272.424 45.2059 271.61 44.3391 271.61 42.6054C271.61 41.6328 272.075 40.1105 273.006 38.0386ZM274.94 43.5568C276.145 43.5568 278.534 41.7597 282.108 38.1654C285.681 34.55 287.467 32.1398 287.467 30.9347C287.467 30.3215 287.182 30.015 286.611 30.015C285.131 30.015 282.71 31.7698 279.348 35.2795C275.987 38.7891 274.306 41.3262 274.306 42.8908C274.306 43.3348 274.517 43.5568 274.94 43.5568ZM296.093 38.99C290.448 43.4299 286.558 45.6499 284.423 45.6499C284.169 45.6499 284.042 45.5125 284.042 45.2376C284.042 44.8571 284.296 44.6245 284.803 44.5399C286.791 44.2228 289.539 42.6899 293.049 39.9414L297.14 36.7383L303.705 31.5055C306.707 29.4335 309.276 28.3976 311.411 28.3976C312.997 28.3976 313.885 29.1904 314.075 30.7761C314.9 29.9938 315.471 29.6027 315.788 29.6027C316.485 29.6027 316.834 29.8881 316.834 30.459C316.834 31.199 315.206 33.4612 311.95 37.2457C308.716 41.0302 307.098 43.2396 307.098 43.8739C307.098 44.3179 307.447 44.5505 308.145 44.5716C308.842 44.5928 309.191 44.7725 309.191 45.1108C309.191 45.5336 308.472 45.745 307.035 45.745C305.618 45.745 304.91 45.1213 304.91 43.8739C304.91 42.8802 305.481 41.4637 306.622 39.6243L302.69 42.9542C300.766 44.3919 299.233 45.1108 298.091 45.1108C296.273 45.1108 295.364 44.1911 295.364 42.3517C295.364 41.3368 295.607 40.2163 296.093 38.99ZM311.855 29.6978C310.608 29.6978 308.028 31.5584 304.117 35.2795C300.206 39.0006 298.25 41.4848 298.25 42.7322C298.25 43.3031 298.525 43.5885 299.075 43.5885C300.28 43.5885 302.859 41.7702 306.813 38.1337C310.787 34.4761 312.775 32.0129 312.775 30.7444C312.775 30.0467 312.468 29.6978 311.855 29.6978ZM318.737 40.2268C314.339 43.8422 310.999 45.6499 308.716 45.6499C308.462 45.6499 308.335 45.523 308.335 45.2693C308.335 44.8888 308.546 44.6456 308.969 44.5399C309.752 44.3496 310.957 43.9268 312.585 43.2714C314.107 42.4468 317.976 39.4446 324.192 34.2646C330.091 29.3595 333.114 26.907 333.262 26.907C333.748 26.907 334.224 27.1184 334.689 27.5413C335.175 27.9641 335.419 28.4187 335.419 28.905C335.419 30.4484 334.213 33.1652 331.803 37.0554C329.71 40.4171 327.881 42.9331 326.317 44.6033C327.226 44.6033 327.68 44.7725 327.68 45.1108C327.68 45.5336 327.236 45.745 326.348 45.745C326.116 45.745 325.767 45.7028 325.302 45.6182C324.858 45.5336 324.52 45.4913 324.287 45.4913C324.118 45.4913 323.864 45.523 323.526 45.5865C323.188 45.6499 322.934 45.6816 322.765 45.6816C320.08 45.6816 318.737 43.8634 318.737 40.2268ZM323.78 42.9859C325.26 41.7597 326.888 39.6454 328.664 36.6432C330.313 33.8523 331.465 31.3892 332.12 29.2538L320.767 38.4826C321.549 38.6094 322.204 39.2226 322.733 40.322L323.78 42.9859ZM322.86 43.9691L321.972 41.4637C321.507 40.2374 321.052 39.6243 320.608 39.6243C320.143 39.6243 319.911 39.9837 319.911 40.7025C319.911 41.4214 320.122 42.1614 320.545 42.9225C321.031 43.7894 321.602 44.2228 322.257 44.2228C322.511 44.2228 322.712 44.1382 322.86 43.9691ZM346.043 38.3874C353.696 31.5795 358.813 28.1756 361.392 28.1756C362.534 28.1756 363.105 28.7781 363.105 29.9833C363.105 31.2729 361.287 33.7255 357.65 37.3409C354.035 40.9563 352.227 43.0811 352.227 43.7154C352.227 44.3073 352.808 44.6033 353.971 44.6033C354.267 44.6033 354.415 44.7725 354.415 45.1108C354.415 45.5125 353.897 45.7133 352.861 45.7133C351.022 45.7133 350.102 44.9416 350.102 43.3982C350.102 41.6222 351.519 39.286 354.352 36.3895C357.819 32.8375 359.69 30.8184 359.965 30.3321C359.986 30.0784 359.859 29.9515 359.585 29.9515C358.422 29.9515 355.462 31.9707 350.705 36.0089C347.153 39.0111 344.298 41.5905 342.142 43.7471C341.275 44.6139 340.567 45.2482 340.017 45.6499C339.7 45.6499 339.393 45.449 339.097 45.0473C338.823 44.6456 338.685 44.2756 338.685 43.9374C338.685 43.4511 340.133 41.3685 343.03 37.6897L348.072 31.3469C346.022 33.2709 343.463 35.438 340.398 37.8483L334.309 42.5102C331.243 44.6033 328.886 45.6499 327.236 45.6499C326.983 45.6499 326.856 45.523 326.856 45.2693C326.856 44.8888 327.067 44.6456 327.49 44.5399C329.245 44.0959 330.788 43.4616 332.12 42.6371C334.594 41.1148 338.305 38.2606 343.252 34.0743L349.658 28.6513C351.011 27.5096 354.764 23.3339 360.917 16.1243C366.456 9.63352 369.49 6.38814 370.018 6.38814C370.78 6.38814 371.16 6.86384 371.16 7.81526C371.16 8.47068 369.035 11.3038 364.786 16.3146L346.043 38.3874ZM379.311 24.9407L367.894 25.3847C367.259 25.3847 366.942 25.2156 366.942 24.8773C366.942 24.6025 367.46 24.391 368.496 24.243C369.955 24.0105 372.006 23.8096 374.649 23.6405C377.587 23.4713 379.649 23.3128 380.833 23.1648L385.368 17.7417C387.799 14.8663 389.269 13.4286 389.776 13.4286C390.41 13.4286 390.728 13.8303 390.728 14.6337C390.728 15.5006 388.804 18.3443 384.956 23.1648C387.176 23.0168 389.015 22.9428 390.474 22.9428C391.446 22.9428 391.933 23.1331 391.933 23.5136C391.933 23.9365 390.759 24.2219 388.412 24.3699L383.592 24.5285L376.52 33.3766C372.059 39.1908 369.828 42.6582 369.828 43.7788C369.828 44.3073 370.188 44.5822 370.906 44.6033C371.625 44.6033 371.985 44.7725 371.985 45.1108C371.985 45.5125 371.52 45.7133 370.589 45.7133C368.708 45.7133 367.767 44.9522 367.767 43.4299C367.767 42.2248 368.38 40.5017 369.606 38.2606L372.365 33.6303L362.978 41.0197C359.067 44.1065 356.054 45.6499 353.939 45.6499C353.686 45.6499 353.559 45.5125 353.559 45.2376C353.559 44.8782 353.77 44.6456 354.193 44.5399C354.912 44.3919 356.001 44.0219 357.46 43.4299C358.876 42.6899 362.027 40.4065 366.91 36.5797C370.526 33.7678 372.799 31.9389 373.729 31.0932C375.399 29.571 377.26 27.5201 379.311 24.9407ZM400.464 21.7694C399.449 21.7694 398.941 21.2514 398.941 20.2154C398.941 19.3485 399.459 18.5663 400.495 17.8686C401.426 17.2343 402.356 16.9171 403.286 16.9171C404.386 16.9171 404.935 17.5197 404.935 18.7248C404.935 19.5917 404.386 20.3317 403.286 20.9448C402.335 21.4945 401.394 21.7694 400.464 21.7694ZM386.446 43.7471C386.446 44.3179 387.059 44.6033 388.286 44.6033C388.56 44.6033 388.698 44.7725 388.698 45.1108C388.698 45.5125 388 45.7133 386.605 45.7133C385.019 45.7133 384.226 44.9522 384.226 43.4299C384.226 41.654 386.584 37.9434 391.298 32.2984L382.641 39.3706C377.524 43.5568 373.814 45.6499 371.509 45.6499C371.255 45.6499 371.128 45.5125 371.128 45.2376C371.128 44.8571 371.34 44.6245 371.763 44.5399C373.095 44.2862 374.31 43.8528 375.41 43.2396C376.784 42.4785 379.702 40.3325 384.163 36.8017L393.867 28.6513C394.29 28.5033 394.861 28.4293 395.58 28.4293C396.299 28.4293 396.658 28.8416 396.658 29.6661C396.658 30.5541 394.956 32.9538 391.552 36.8652C388.148 40.7554 386.446 43.0494 386.446 43.7471Z" fill="#3F3F3F"/>
</svg>
