<svg width="20" height="22" viewBox="0 0 20 22" fill="none" xmlns="http://www.w3.org/2000/svg">
<path d="M15.2878 9.54171V6.36392C15.2878 4.87605 14.6968 3.44914 13.6447 2.39706C12.5926 1.34497 11.1657 0.753906 9.67781 0.753906V0.753906C8.18938 0.753905 6.76182 1.34478 5.70877 2.39668C4.65571 3.44859 4.0633 4.87549 4.06168 6.36392V9.54171C4.06249 9.59359 4.05298 9.6451 4.03369 9.69326C4.0144 9.74142 3.98572 9.78528 3.94932 9.82224C3.91292 9.85921 3.86952 9.88855 3.82166 9.90859C3.77381 9.92863 3.72246 9.93896 3.67058 9.93895C2.96336 9.93895 2.285 10.2195 1.78435 10.719C1.2837 11.2185 1.00162 11.8962 1 12.6034V13.8256C1 14.5485 1.28716 15.2417 1.7983 15.7529C2.30944 16.264 3.00271 16.5512 3.72558 16.5512H16.1373C16.8601 16.5512 17.5534 16.264 18.0645 15.7529C18.5757 15.2417 18.8628 14.5485 18.8628 13.8256V12.6034C18.8628 12.253 18.7937 11.906 18.6594 11.5823C18.5252 11.2587 18.3283 10.9647 18.0803 10.7172C17.8322 10.4697 17.5378 10.2735 17.2138 10.14C16.8898 10.0065 16.5427 9.93815 16.1923 9.93895H15.685C15.5797 9.93895 15.4787 9.89707 15.4042 9.82258C15.3297 9.74808 15.2878 9.64706 15.2878 9.54171V9.54171Z" stroke="#3F3F3F" stroke-width="1.5" stroke-miterlimit="10"/>
<path d="M7.47156 18.4702C7.47156 19.1412 7.73812 19.7847 8.21258 20.2592C8.68705 20.7337 9.33057 21.0002 10.0016 21.0002C10.3343 21.001 10.664 20.9362 10.9716 20.8094C11.2793 20.6826 11.5589 20.4964 11.7945 20.2614C12.0301 20.0264 12.217 19.7472 12.3445 19.4398C12.472 19.1325 12.5377 18.803 12.5377 18.4702" stroke="#3F3F3F" stroke-width="1.5" stroke-miterlimit="10"/>
<path d="M15.2878 9.54171V6.36392C15.2878 4.87605 14.6968 3.44914 13.6447 2.39706C12.5926 1.34497 11.1657 0.753906 9.67781 0.753906V0.753906C8.18938 0.753905 6.76182 1.34478 5.70877 2.39668C4.65571 3.44859 4.0633 4.87549 4.06168 6.36392V9.54171C4.06249 9.59359 4.05298 9.6451 4.03369 9.69326C4.0144 9.74142 3.98572 9.78528 3.94932 9.82224C3.91292 9.85921 3.86952 9.88855 3.82166 9.90859C3.77381 9.92863 3.72246 9.93896 3.67058 9.93895C2.96336 9.93895 2.285 10.2195 1.78435 10.719C1.2837 11.2185 1.00162 11.8962 1 12.6034V13.8256C1 14.5485 1.28716 15.2417 1.7983 15.7529C2.30944 16.264 3.00271 16.5512 3.72558 16.5512H16.1373C16.8601 16.5512 17.5534 16.264 18.0645 15.7529C18.5757 15.2417 18.8628 14.5485 18.8628 13.8256V12.6034C18.8628 12.253 18.7937 11.906 18.6594 11.5823C18.5252 11.2587 18.3283 10.9647 18.0803 10.7172C17.8322 10.4697 17.5378 10.2735 17.2138 10.14C16.8898 10.0065 16.5427 9.93815 16.1923 9.93895H15.685C15.5797 9.93895 15.4787 9.89707 15.4042 9.82258C15.3297 9.74808 15.2878 9.64706 15.2878 9.54171V9.54171Z" stroke="#3F3F3F" stroke-width="1.5" stroke-miterlimit="10"/>
<path d="M7.47156 18.4702C7.47156 19.1412 7.73812 19.7847 8.21258 20.2592C8.68705 20.7337 9.33057 21.0002 10.0016 21.0002C10.3343 21.001 10.664 20.9362 10.9716 20.8094C11.2793 20.6826 11.5589 20.4964 11.7945 20.2614C12.0301 20.0264 12.217 19.7472 12.3445 19.4398C12.472 19.1325 12.5377 18.803 12.5377 18.4702" stroke="#3F3F3F" stroke-width="1.5" stroke-miterlimit="10"/>
</svg>
