<svg width="16" height="15" viewBox="0 0 16 15" fill="none" xmlns="http://www.w3.org/2000/svg">
<path d="M8.17282 14.6934C6.03866 14.6934 4.06611 13.7827 2.68903 12.1786V14.5238H2.34983V11.5275H5.34613V11.8671H2.86947C4.18483 13.452 6.09897 14.3542 8.17282 14.3542C11.9757 14.3542 15.0699 11.2604 15.0699 7.45704H15.4096C15.4092 11.4474 12.1632 14.6934 8.17282 14.6934ZM1.27569 7.45704H0.936485C0.936485 3.46669 4.18247 0.220703 8.17282 0.220703C10.307 0.220703 12.2795 1.1309 13.6566 2.73505V0.390305H13.9963V3.3866H10.9995V3.0474H13.4762C12.1608 1.46209 10.2467 0.559906 8.17282 0.559906C4.3695 0.559906 1.27569 3.65372 1.27569 7.45704Z" fill="#3F3F3F"/>
</svg>
