<svg width="335" height="195" viewBox="0 0 335 195" fill="none" xmlns="http://www.w3.org/2000/svg">
<path d="M0 166.69V140.76H7.41998C9.33654 140.657 11.2268 141.242 12.75 142.41C13.3905 142.921 13.9042 143.573 14.2511 144.315C14.598 145.058 14.7688 145.871 14.75 146.69C14.7782 148.065 14.3608 149.412 13.56 150.53C12.734 151.627 11.5826 152.435 10.27 152.84V152.91C11.8613 153.053 13.3484 153.762 14.46 154.91C15.534 156.098 16.0979 157.66 16.03 159.26C16.0636 160.279 15.8671 161.293 15.4551 162.226C15.043 163.16 14.4261 163.988 13.65 164.65C11.9709 166.051 9.8351 166.783 7.64996 166.71L0 166.69ZM3 143.51V151.88H6.10999C7.51798 151.96 8.90833 151.534 10.03 150.68C10.5105 150.261 10.8892 149.738 11.137 149.15C11.3848 148.563 11.4952 147.927 11.46 147.29C11.46 144.77 9.79329 143.51 6.45996 143.51H3ZM3 154.61V163.94H7.12C8.6117 164.035 10.0869 163.583 11.27 162.67C11.7606 162.24 12.1477 161.704 12.4023 161.103C12.6568 160.503 12.7723 159.852 12.74 159.2C12.74 156.14 10.6567 154.61 6.48999 154.61H3Z" fill="#BACCB6"/>
<path d="M34.9587 166.69H21.2188V140.76H34.4188V143.51H24.2588V152.13H33.6188V154.86H24.2588V163.94H34.9587V166.69Z" fill="#BACCB6"/>
<path d="M59.4197 166.69H56.4197V154.86H43.0098V166.69H40.0098V140.76H43.0098V152.13H56.4197V140.76H59.4197V166.69Z" fill="#BACCB6"/>
<path d="M84.8196 166.691H81.1996L76.8595 159.42C76.5159 158.818 76.1318 158.24 75.7096 157.691C75.3728 157.26 74.9869 156.871 74.5596 156.53C74.1794 156.236 73.7491 156.012 73.2896 155.87C72.7963 155.724 72.2839 155.654 71.7695 155.66H69.2695V166.66H66.2695V140.731H74.0095C75.0713 140.724 76.1286 140.869 77.1495 141.16C78.0595 141.414 78.9072 141.854 79.6395 142.45C80.3512 143.034 80.9192 143.773 81.2996 144.611C82.0138 146.367 82.081 148.319 81.4895 150.12C81.2271 150.852 80.8341 151.529 80.3296 152.12C79.8159 152.722 79.2039 153.233 78.5195 153.63C77.7779 154.075 76.9765 154.412 76.1395 154.63V154.7C76.5442 154.869 76.9243 155.091 77.2695 155.361C77.6051 155.622 77.9134 155.917 78.1896 156.24C78.4977 156.604 78.7848 156.984 79.0496 157.38C79.3296 157.81 79.6495 158.31 79.9895 158.87L84.8196 166.691ZM69.2695 143.51V152.91H73.4196C74.1372 152.919 74.8508 152.804 75.5295 152.571C76.1475 152.352 76.7154 152.012 77.1996 151.571C77.6792 151.136 78.0551 150.599 78.2996 150C78.5758 149.339 78.712 148.627 78.6996 147.91C78.7357 147.303 78.6329 146.695 78.3989 146.134C78.165 145.573 77.8062 145.072 77.3496 144.67C76.2389 143.819 74.8555 143.403 73.4596 143.5L69.2695 143.51Z" fill="#BACCB6"/>
<path d="M108.42 166.69H105.06L102.31 159.42H91.3099L88.73 166.69H85.4199L95.3599 140.76H98.5099L108.42 166.69ZM101.32 156.69L97.2499 145.64C97.0725 145.075 96.942 144.497 96.8599 143.91H96.7799C96.6933 144.498 96.5561 145.076 96.3699 145.64L92.3699 156.69H101.32Z" fill="#BACCB6"/>
<path d="M112.26 166.69V140.76H119.42C128.553 140.76 133.12 144.974 133.12 153.4C133.198 155.185 132.9 156.966 132.243 158.627C131.587 160.288 130.587 161.791 129.31 163.04C126.776 165.473 123.383 166.69 119.13 166.69H112.26ZM115.26 143.51V163.94H119.12C122.52 163.94 125.166 163.03 127.06 161.21C128.953 159.39 129.9 156.81 129.9 153.47C129.9 146.803 126.366 143.47 119.3 143.47L115.26 143.51Z" fill="#BACCB6"/>
<path d="M142.939 166.69V140.76H150.089C159.229 140.76 163.799 144.974 163.799 153.4C163.878 155.185 163.579 156.966 162.923 158.627C162.266 160.288 161.267 161.791 159.989 163.04C157.449 165.473 154.056 166.69 149.809 166.69H142.939ZM145.939 143.51V163.94H149.809C153.209 163.94 155.856 163.03 157.749 161.21C159.643 159.39 160.589 156.81 160.589 153.47C160.589 146.803 157.056 143.47 149.989 143.47L145.939 143.51Z" fill="#BACCB6"/>
<path d="M182.629 166.69H168.889V140.76H182.049V143.51H171.929V152.13H181.299V154.86H171.929V163.94H182.629V166.69Z" fill="#BACCB6"/>
<path d="M207.109 166.69H204.109V154.86H190.699V166.69H187.699V140.76H190.699V152.13H204.109V140.76H207.109V166.69Z" fill="#BACCB6"/>
<path d="M213.91 166.69V140.76H221.06C230.2 140.76 234.77 144.974 234.77 153.4C234.849 155.185 234.55 156.966 233.893 158.627C233.237 160.288 232.237 161.791 230.96 163.04C228.42 165.473 225.027 166.69 220.78 166.69H213.91ZM216.91 143.51V163.94H220.78C224.18 163.94 226.827 163.03 228.72 161.21C230.614 159.39 231.56 156.81 231.56 153.47C231.56 146.803 228.027 143.47 220.96 143.47L216.91 143.51Z" fill="#BACCB6"/>
<path d="M259.93 166.69H256.57L253.82 159.42H242.82L240.23 166.69H236.85L246.85 140.76H249.99L259.93 166.69ZM252.83 156.69L248.76 145.64C248.578 145.075 248.444 144.497 248.359 143.91H248.29C248.205 144.499 248.064 145.078 247.87 145.64L243.87 156.69H252.83Z" fill="#BACCB6"/>
<path d="M262.529 165.639V162.06C262.975 162.46 263.473 162.796 264.009 163.06C264.588 163.355 265.19 163.602 265.809 163.799C266.435 163.995 267.073 164.149 267.719 164.259C268.304 164.363 268.896 164.416 269.489 164.42C270.956 164.535 272.422 164.185 273.679 163.42C274.36 162.842 274.822 162.049 274.99 161.172C275.157 160.296 275.019 159.387 274.599 158.599C274.263 158.055 273.833 157.574 273.329 157.179C272.721 156.72 272.075 156.312 271.399 155.96C270.659 155.56 269.859 155.149 269.009 154.719C268.159 154.289 267.259 153.8 266.469 153.33C265.745 152.889 265.074 152.365 264.469 151.77C263.904 151.218 263.443 150.566 263.109 149.849C262.761 149.052 262.591 148.19 262.609 147.32C262.584 146.241 262.853 145.176 263.389 144.24C263.89 143.382 264.573 142.645 265.389 142.08C266.267 141.493 267.242 141.067 268.269 140.82C269.347 140.54 270.456 140.399 271.569 140.4C273.478 140.283 275.389 140.597 277.159 141.32V144.74C275.403 143.616 273.343 143.061 271.259 143.15C270.587 143.149 269.917 143.22 269.259 143.36C268.631 143.478 268.029 143.705 267.479 144.03C266.975 144.335 266.545 144.749 266.219 145.24C265.879 145.781 265.708 146.411 265.729 147.049C265.711 147.644 265.838 148.235 266.099 148.77C266.371 149.281 266.746 149.73 267.199 150.089C267.747 150.533 268.336 150.922 268.959 151.25C269.649 151.62 270.449 152.03 271.349 152.48C272.249 152.93 273.159 153.42 273.989 153.92C274.778 154.398 275.513 154.961 276.179 155.599C276.784 156.178 277.287 156.854 277.669 157.599C278.05 158.398 278.238 159.275 278.219 160.16C278.254 161.29 277.996 162.409 277.469 163.41C276.984 164.279 276.299 165.02 275.469 165.57C274.568 166.141 273.573 166.548 272.529 166.77C271.377 167.023 270.199 167.146 269.019 167.139C268.511 167.135 268.004 167.102 267.499 167.04C266.899 166.97 266.289 166.88 265.659 166.75C265.057 166.63 264.462 166.473 263.879 166.28C263.403 166.127 262.949 165.911 262.529 165.639Z" fill="#BACCB6"/>
<path d="M302.9 166.69H299.9V154.86H286.42V166.69H283.42V140.76H286.42V152.13H299.83V140.76H302.83L302.9 166.69Z" fill="#BACCB6"/>
<path d="M325.03 143.51H317.54V166.69H314.54V143.51H307.07V140.76H325.07L325.03 143.51Z" fill="#BACCB6"/>
<path d="M334.661 140.76V143.37H332.13V164.08H334.661V166.69H326.561V164.08H329.091V143.33H326.561V140.72L334.661 140.76Z" fill="#BACCB6"/>
<path d="M90.1194 183.33H91.5494V190.771C91.5494 193.771 90.0995 194.64 88.1895 194.64C87.6645 194.638 87.1436 194.547 86.6494 194.37L86.8694 193.2C87.254 193.34 87.6603 193.411 88.0695 193.41C89.3595 193.41 90.0695 192.84 90.0695 190.66L90.1194 183.33Z" fill="#BACCB6"/>
<path d="M99.7094 189.19H95.4193V193.19H100.239V194.39H93.9893V183.33H99.9893V184.53H95.4193V188.05H99.7493L99.7094 189.19Z" fill="#BACCB6"/>
<path d="M104.029 194.4L101.209 183.28H102.729L104.049 188.91C104.379 190.29 104.679 191.68 104.879 192.75C105.059 191.65 105.409 190.33 105.789 188.89L107.269 183.28H108.769L110.129 188.92C110.439 190.24 110.739 191.56 110.899 192.74C111.129 191.51 111.439 190.28 111.789 188.89L113.259 183.28H114.729L111.569 194.4H110.069L108.669 188.61C108.358 187.415 108.115 186.203 107.939 184.98C107.714 186.204 107.427 187.416 107.079 188.61L105.499 194.4H104.029Z" fill="#BACCB6"/>
<path d="M121.94 189.19H117.62V193.19H122.42V194.39H116.16V183.33H122.16V184.53H117.59V188.05H121.91L121.94 189.19Z" fill="#BACCB6"/>
<path d="M124.299 183.33H125.739V193.25H130.499V194.45H124.299V183.33Z" fill="#BACCB6"/>
<path d="M132.1 183.33H133.53V193.25H138.29V194.45H132.1V183.33Z" fill="#BACCB6"/>
<path d="M145.649 189.19H141.319V193.19H146.139V194.39H139.889V183.33H145.889V184.53H141.309V188.05H145.639L145.649 189.19Z" fill="#BACCB6"/>
<path d="M148.009 183.429C148.92 183.264 149.844 183.184 150.769 183.19C151.919 183.08 153.068 183.403 153.989 184.099C154.276 184.371 154.502 184.701 154.652 185.066C154.802 185.432 154.873 185.825 154.859 186.22C154.867 186.856 154.666 187.478 154.286 187.989C153.907 188.5 153.371 188.872 152.759 189.05V189.099C153.206 189.298 153.592 189.611 153.88 190.006C154.168 190.401 154.347 190.864 154.399 191.349C154.596 192.373 154.884 193.377 155.259 194.349H153.769C153.438 193.492 153.19 192.605 153.029 191.7C152.699 190.16 152.099 189.58 150.799 189.53H149.419V194.349H147.979L148.009 183.429ZM149.449 188.49H150.919C152.449 188.49 153.419 187.65 153.419 186.38C153.419 184.94 152.419 184.32 150.869 184.3C150.393 184.289 149.916 184.332 149.449 184.429V188.49Z" fill="#BACCB6"/>
<path d="M159.19 194.4V189.68L155.67 183.28H157.3L158.87 186.35C159.3 187.19 159.63 187.87 159.98 188.64C160.29 187.92 160.67 187.19 161.1 186.35L162.7 183.28H164.42L160.69 189.67V194.4H159.19Z" fill="#BACCB6"/>
<path d="M183.109 194.4C182.789 194.09 182.489 193.781 182.109 193.311C181.679 193.728 181.17 194.054 180.612 194.273C180.054 194.491 179.458 194.595 178.859 194.58C178.427 194.617 177.992 194.565 177.582 194.426C177.171 194.287 176.794 194.064 176.473 193.772C176.153 193.479 175.896 193.125 175.72 192.729C175.544 192.332 175.452 191.903 175.449 191.47C175.466 190.777 175.679 190.103 176.063 189.526C176.447 188.949 176.987 188.493 177.619 188.21C177.062 187.561 176.738 186.744 176.699 185.89C176.692 185.521 176.76 185.156 176.901 184.814C177.041 184.473 177.25 184.164 177.514 183.907C177.779 183.65 178.093 183.451 178.438 183.32C178.783 183.19 179.151 183.133 179.519 183.15C179.839 183.13 180.16 183.175 180.461 183.285C180.763 183.395 181.038 183.566 181.269 183.788C181.5 184.01 181.683 184.278 181.805 184.574C181.928 184.871 181.987 185.189 181.979 185.51C181.979 186.68 181.309 187.6 179.539 188.51C180.479 189.6 181.539 190.82 182.249 191.61C182.832 190.615 183.197 189.507 183.319 188.36H184.639C184.476 189.847 183.924 191.264 183.039 192.47L184.869 194.47L183.109 194.4ZM181.359 192.49C180.689 191.76 179.459 190.41 178.219 188.99C177.805 189.211 177.455 189.536 177.203 189.932C176.951 190.328 176.805 190.781 176.779 191.25C176.772 191.55 176.827 191.848 176.939 192.126C177.052 192.404 177.22 192.656 177.433 192.867C177.647 193.078 177.901 193.243 178.181 193.352C178.461 193.46 178.759 193.511 179.059 193.5C179.492 193.501 179.92 193.411 180.316 193.237C180.712 193.063 181.067 192.809 181.359 192.49ZM177.969 185.7C177.998 186.447 178.297 187.157 178.809 187.7C179.939 187.06 180.659 186.461 180.659 185.521C180.676 185.34 180.655 185.158 180.598 184.986C180.541 184.815 180.449 184.657 180.327 184.523C180.206 184.388 180.058 184.281 179.894 184.206C179.729 184.132 179.55 184.092 179.369 184.09C179.169 184.096 178.972 184.143 178.79 184.229C178.609 184.314 178.448 184.437 178.316 184.588C178.184 184.739 178.086 184.916 178.026 185.107C177.966 185.299 177.947 185.501 177.969 185.7Z" fill="#BACCB6"/>
<path d="M208.59 193.91C207.496 194.304 206.343 194.51 205.18 194.521C204.42 194.593 203.654 194.497 202.935 194.242C202.216 193.987 201.561 193.579 201.016 193.045C200.471 192.511 200.05 191.864 199.781 191.149C199.512 190.435 199.403 189.671 199.46 188.91C199.46 185.59 201.76 183.16 205.46 183.16C206.409 183.137 207.352 183.311 208.23 183.67L207.89 184.85C207.116 184.509 206.276 184.346 205.43 184.37C204.83 184.322 204.227 184.405 203.663 184.612C203.098 184.82 202.585 185.147 202.159 185.572C201.733 185.997 201.405 186.509 201.196 187.073C200.987 187.638 200.903 188.24 200.95 188.84C200.95 191.66 202.65 193.33 205.24 193.33C205.894 193.369 206.549 193.267 207.16 193.03V189.72H204.9V188.561H208.56L208.59 193.91Z" fill="#BACCB6"/>
<path d="M220.299 188.72C220.299 192.55 217.969 194.58 215.129 194.58C212.289 194.58 210.129 192.31 210.129 188.94C210.129 185.41 212.319 183.1 215.289 183.1C218.259 183.1 220.299 185.42 220.299 188.72ZM211.659 188.91C211.659 191.28 212.949 193.41 215.209 193.41C217.469 193.41 218.779 191.32 218.779 188.79C218.779 186.58 217.619 184.271 215.229 184.271C212.839 184.271 211.659 186.46 211.659 188.91Z" fill="#BACCB6"/>
<path d="M222.16 183.33H223.6V193.25H228.35V194.45H222.16V183.33Z" fill="#BACCB6"/>
<path d="M229.949 183.43C230.961 183.27 231.984 183.191 233.009 183.191C234.632 183.059 236.243 183.556 237.509 184.58C238.044 185.094 238.461 185.718 238.732 186.408C239.003 187.099 239.122 187.84 239.079 188.58C239.117 189.371 238.995 190.161 238.72 190.904C238.445 191.646 238.023 192.325 237.479 192.901C236.111 194.056 234.345 194.63 232.559 194.5C231.687 194.504 230.816 194.461 229.949 194.37V183.43ZM231.389 193.26C231.869 193.331 232.354 193.361 232.839 193.35C235.909 193.35 237.579 191.63 237.579 188.63C237.579 186 236.109 184.33 233.069 184.33C232.506 184.323 231.943 184.374 231.389 184.481V193.26Z" fill="#BACCB6"/>
<path d="M185.14 96.9199C183.72 96.9199 182.29 96.9199 180.88 96.9199C178.77 97.0099 176.65 96.9198 174.55 97.0098C172.45 97.0998 170.35 97.0101 168.25 97.0801C165.03 97.0801 161.81 97.1699 158.59 97.1699C157.51 97.1699 156.43 97.2305 155.35 97.2305C152.63 97.2305 149.91 97.2305 147.2 97.2305C145.62 97.2305 144.05 97.1805 142.48 97.2305C140.91 97.2805 139.11 97.2998 137.42 97.2998H124.12C123.43 97.2998 123.42 97.3001 123.41 96.5801C123.41 94.2901 123.5 91.9902 123.52 89.7002C123.52 88.5602 123.52 87.4203 123.52 86.2803C123.61 83.2803 123.52 80.2202 123.6 77.2002C123.6 75.8502 123.6 74.4896 123.67 73.1396C123.82 70.2396 123.67 67.3404 123.76 64.4404C123.86 61.7504 123.76 59.0601 123.85 56.3701C123.94 53.6801 123.85 50.79 123.93 48C124.01 45.21 123.93 42.5098 124.02 39.7598C124.11 37.0098 124.02 34.2104 124.1 31.4404C124.18 28.6704 124.1 25.9702 124.19 23.2402C124.28 20.5102 124.19 17.8098 124.28 15.0898C124.33 13.5698 124.28 12.0903 124.35 10.5303C124.49 7.53027 124.35 4.53027 124.43 1.53027C124.43 0.260273 124.43 0.249766 125.7 0.259766C127.47 0.259766 129.23 0.210391 130.98 0.150391C132.73 0.0903906 134.7 0.150391 136.56 0.150391C137.71 0.150391 138.86 0.07 140.02 0C140.49 0 141.02 0 141.45 0C144.87 0 148.29 0 151.71 0C161.39 0 171.057 0 180.71 0C181.722 0.0563016 182.726 0.207151 183.71 0.450195C188.315 1.31216 192.593 3.43024 196.07 6.57031C199.275 9.55803 201.608 13.36 202.82 17.5703C203.446 19.6756 203.848 21.8408 204.02 24.0303C204.09 24.9103 204.2 25.7997 204.21 26.6797C204.197 27.65 204.123 28.6189 203.99 29.5801C203.63 32.5489 202.86 35.4533 201.7 38.21C200.669 40.6691 199.324 42.9845 197.7 45.0996C196.878 46.164 195.979 47.1667 195.01 48.0996C194.63 48.4696 194.64 48.52 195.12 48.79C196.765 49.714 198.328 50.7776 199.79 51.9697C201.736 53.5752 203.461 55.4319 204.92 57.4902C206.738 60.042 208.145 62.8623 209.09 65.8496C209.603 67.3404 209.968 68.8785 210.18 70.4404C210.354 71.9106 210.387 73.3936 210.28 74.8701C210.203 76.2611 210.026 77.6443 209.75 79.0098C209.166 82.0488 207.95 84.9311 206.18 87.4697C205.274 88.7458 204.22 89.9112 203.04 90.9404C201.393 92.3739 199.543 93.5563 197.55 94.4502C195.918 95.1881 194.216 95.7609 192.47 96.1602C190.991 96.5083 189.486 96.7323 187.97 96.8301C187.08 96.8901 186.11 96.9199 185.14 96.9199ZM178.94 46.3799V46.5098C178.541 46.6263 178.126 46.6835 177.71 46.6797C176.11 46.6797 174.51 46.68 172.9 46.75C169.31 46.82 165.72 46.8096 162.14 46.8496C157.7 46.8496 153.27 46.8496 148.83 46.8496C144.11 46.8496 139.39 46.8505 134.67 46.7705C133.22 46.7705 131.77 46.7705 130.32 46.7705C130.06 46.7705 129.82 46.7696 129.84 47.1396C129.84 47.7796 129.77 48.4301 129.76 49.0801C129.76 53.4001 129.76 57.7201 129.68 62.0801C129.58 66.6401 129.68 71.2105 129.61 75.7705C129.52 79.7705 129.61 83.6604 129.61 87.6104C129.61 87.8803 129.56 88.1402 129.56 88.4102C129.56 89.2102 129.56 90.0203 129.56 90.8203C129.56 91.1003 129.7 91.13 129.91 90.96C131.03 90.03 132.15 89.1204 133.26 88.1904C136.2 85.7404 139.19 83.3404 142.18 80.9404L149.32 75.2705C150.95 73.9905 152.57 72.7004 154.21 71.4404C155.85 70.1804 157.21 69.1498 158.76 68.0098C160.52 66.7098 162.27 65.4099 164.03 64.1299C165.79 62.8499 167.31 61.7901 168.95 60.6201L177.29 54.6201L186.37 48.1396C186.75 47.8596 186.75 47.7798 186.37 47.5098C184.86 46.5098 183.37 45.5104 181.82 44.4404C178.99 42.5204 176.15 40.6099 173.33 38.6699C170.764 36.9099 168.207 35.1363 165.66 33.3496C164.36 32.4496 163.08 31.5304 161.8 30.6104C161.69 30.5304 161.44 30.46 161.56 30.29C161.68 30.12 161.85 30.2899 161.97 30.3799C162.75 30.7799 163.52 31.1904 164.28 31.6104C167.3 33.2504 170.3 34.8934 173.28 36.54C176.88 38.54 180.47 40.48 184.03 42.54C185.74 43.54 187.47 44.4804 189.18 45.4404C189.311 45.5382 189.473 45.5841 189.635 45.5693C189.798 45.5546 189.949 45.4801 190.06 45.3604C190.65 44.8304 191.19 44.2704 191.72 43.6904C193.062 42.2199 194.214 40.5869 195.15 38.8301C196.242 36.7903 197.069 34.6194 197.61 32.3701C197.994 30.9408 198.235 29.4769 198.33 28C198.404 25.7595 198.196 23.5186 197.71 21.3301C197.145 18.5607 196.011 15.9386 194.38 13.6299C193.021 11.7541 191.296 10.173 189.31 8.98047C187.998 8.18396 186.595 7.54871 185.13 7.08984C183.256 6.47373 181.302 6.13678 179.33 6.08984C175.71 6.08984 172.09 6.09027 168.47 6.03027C164.47 5.91027 160.47 6.0302 156.47 5.9502C151.33 5.8302 146.19 5.95035 141.04 5.86035C137.58 5.79035 134.11 5.86035 130.64 5.86035C130.06 5.86035 130.05 5.86047 130.03 6.48047C130.01 7.10047 130.15 7.8698 130.09 8.5498C130 9.6398 130.03 10.7198 130.03 11.7998C130.03 16.7998 130.03 21.6896 129.94 26.6396C129.94 27.0196 130.01 27.2205 130.45 27.2705C132.61 27.5205 134.75 27.8098 136.9 28.0898L140.75 28.5898L146.16 29.2402L150.68 29.79C151.07 29.79 151.46 29.93 151.85 30C151.91 30 151.99 29.9999 151.99 30.1299C151.99 30.2599 151.91 30.24 151.84 30.25C151.757 30.2599 151.673 30.2599 151.59 30.25C150.925 30.1814 150.255 30.1814 149.59 30.25C147.74 30.34 145.88 30.2501 144.02 30.3701C141.82 30.4701 139.6 30.37 137.39 30.46C135.18 30.55 132.77 30.4598 130.46 30.5498C130.08 30.5498 129.95 30.6803 129.95 31.0703C129.95 33.7603 129.95 36.4496 129.88 39.1396C129.88 40.2096 129.88 41.2796 129.88 42.3496C129.88 42.5796 129.88 42.8103 130.21 42.8203L131.47 42.9004C132.95 42.9904 134.47 43.0597 135.9 43.1797C137.97 43.3497 140.05 43.4798 142.13 43.5898C143.13 43.6398 144.06 43.71 145.03 43.79C147.29 43.97 149.54 44.1405 151.8 44.2705C152.7 44.2705 153.6 44.3797 154.5 44.4697C156.15 44.6297 157.81 44.7298 159.5 44.8398C160.77 44.9298 162.02 45.0596 163.29 45.1396C165.49 45.2796 167.69 45.5104 169.89 45.6904L173.76 46.0098C175.22 46.1398 176.67 46.3199 178.13 46.3799C178.34 46.3299 178.64 46.3299 178.94 46.3799ZM132.03 90.9902C132.102 91.0367 132.182 91.0685 132.266 91.084C132.35 91.0994 132.437 91.098 132.52 91.0801L136.9 91H140.11C141.41 91 142.72 90.9397 144.02 90.9297L149.25 90.8496C151.25 90.7996 153.25 90.8505 155.25 90.7705C157.03 90.7105 158.82 90.7697 160.61 90.7197C161.82 90.6597 163.02 90.7197 164.23 90.7197C166.7 90.6597 169.23 90.7197 171.65 90.6396C175.26 90.5696 178.86 90.6401 182.47 90.5801C183.77 90.5801 185.08 90.5101 186.38 90.5801C187.943 90.6158 189.504 90.4645 191.03 90.1299C192.729 89.7759 194.378 89.2151 195.94 88.46C197.805 87.5455 199.47 86.271 200.84 84.71C201.659 83.7777 202.358 82.746 202.92 81.6396C203.812 79.8305 204.419 77.895 204.72 75.9004C204.925 74.7076 205.035 73.5002 205.05 72.29C205.023 70.6693 204.784 69.059 204.34 67.5C203.485 64.1482 201.965 61.0025 199.87 58.25C197.77 55.5709 195.194 53.3034 192.27 51.5605C192.067 51.4072 191.82 51.3242 191.565 51.3242C191.311 51.3242 191.063 51.4072 190.86 51.5605C187.7 53.6805 184.537 55.7896 181.37 57.8896C178.703 59.6696 176.007 61.4402 173.28 63.2002C171.54 64.3469 169.79 65.4837 168.03 66.6104C164.07 69.1437 160.147 71.7363 156.26 74.3896L147.97 80.0801L142.31 83.9502L134.31 89.4297L132.03 90.9902Z" fill="#BACCB6"/>
</svg>
