<svg width="12" height="13" viewBox="0 0 12 13" fill="none" xmlns="http://www.w3.org/2000/svg">
<path d="M9.82832 12.7256C9.04585 12.6806 8.283 12.4543 7.59575 12.0632C6.06565 11.2515 4.69939 10.143 3.57075 8.79772C2.72184 7.83586 2.01465 6.74879 1.47214 5.57199C1.13706 4.88582 0.921126 4.14362 0.834266 3.37957C0.788626 3.10788 0.809066 2.8289 0.893726 2.56748C0.978386 2.30607 1.12458 2.07067 1.31905 1.88282C1.56602 1.62518 1.83034 1.38608 2.11002 1.16743C2.31769 1.00186 2.57555 0.918701 2.837 0.933278C3.09845 0.947854 3.34626 1.05928 3.53567 1.24699C4.02507 1.68565 4.40758 2.23834 4.65196 2.85985C4.74103 3.05947 4.77129 3.28181 4.73894 3.49924C4.7066 3.71666 4.61309 3.9193 4.47016 4.0817C4.32888 4.26207 4.16959 4.42652 3.99494 4.572C3.89472 4.64992 3.82178 4.75978 3.78724 4.88474C3.75269 5.0097 3.75843 5.14285 3.80358 5.2641C3.91237 5.61005 4.07978 5.93301 4.29793 6.21785C5.02657 7.23862 5.87514 8.16092 6.82393 8.9633C7.10991 9.22884 7.44533 9.43062 7.80944 9.55612C7.91543 9.59389 8.02991 9.59751 8.13799 9.56679C8.24607 9.53608 8.34274 9.47229 8.41542 9.38374C8.58463 9.19531 8.76925 9.02259 8.96719 8.86725C9.11672 8.7466 9.29437 8.6693 9.48205 8.64312C9.66973 8.61695 9.86074 8.64276 10.0356 8.71816C10.6756 8.97398 11.2337 9.41132 11.6463 9.98011C11.8198 10.1846 11.9156 10.4475 11.9156 10.7201C11.9156 10.9926 11.8198 11.2559 11.6463 11.4604C11.3636 11.8521 11.0298 12.2009 10.6544 12.4969C10.4136 12.6718 10.121 12.7528 9.82832 12.7256Z" fill="#BACCB6"/>
<path d="M11.2227 6.71269V6.79475C11.2227 7.15078 11.1416 7.22911 10.8205 7.15078C10.6833 7.11874 10.7176 6.9977 10.7144 6.89801C10.6881 5.72163 10.2841 4.5971 9.57925 3.73852C8.87443 2.87994 7.9179 2.34712 6.89147 2.24101C6.81975 2.24101 6.74491 2.21605 6.67007 2.21249C6.61787 2.21508 6.56601 2.20154 6.51986 2.17355C6.47372 2.14556 6.43497 2.10409 6.40762 2.05325C6.38027 2.00241 6.36532 1.94427 6.36431 1.88462C6.36331 1.82497 6.37629 1.7659 6.40191 1.7139C6.43933 1.60353 6.5204 1.62837 6.59212 1.62837C7.35701 1.62459 8.10948 1.84922 8.77489 2.27995C9.45316 2.6954 10.0312 3.29548 10.4576 4.02711C10.8841 4.75873 11.1458 5.59938 11.2196 6.47417C11.2227 6.56674 11.2227 6.65929 11.2227 6.71269Z" fill="#BACCB6"/>
<path d="M9.82982 6.8303C9.81455 6.93631 9.87259 7.08613 9.78401 7.13731C9.65669 7.1923 9.51731 7.1923 9.38999 7.13731C9.30753 7.11172 9.33197 7.00229 9.32891 6.92918C9.29986 6.02946 8.97751 5.17896 8.43093 4.56025C7.92393 3.9789 7.25438 3.64392 6.55251 3.62067C6.28372 3.6024 6.38757 3.37938 6.36924 3.22585C6.35092 3.07232 6.43949 3.01416 6.56777 3.01416C7.41199 3.04218 8.21643 3.44958 8.82092 4.15543C9.42541 4.86129 9.78562 5.81379 9.82982 6.82316V6.8303Z" fill="#BACCB6"/>
<path d="M6.61142 4.41372C7.09136 4.47022 7.54034 4.756 7.87698 5.219C8.21363 5.68199 8.41566 6.29183 8.44645 6.93773C8.44645 7.12106 8.41161 7.20283 8.26933 7.17162C8.21723 7.16386 8.16465 7.16386 8.11255 7.17162C8.00512 7.17162 7.95575 7.1171 7.94994 6.97278C7.93032 6.47478 7.77405 6.004 7.5113 5.65173C7.24854 5.29946 6.89795 5.09045 6.52722 5.0651C6.4314 5.0651 6.37333 5.01469 6.37624 4.87426C6.37913 4.83535 6.37913 4.79585 6.37624 4.75694C6.3443 4.40197 6.36172 4.37862 6.61142 4.41372Z" fill="#BACCB6"/>
</svg>
