<svg width="48" height="30" viewBox="0 0 48 30" fill="none" xmlns="http://www.w3.org/2000/svg">
<g opacity="0.5">
<path opacity="0.5" d="M0.845161 1.22245C3.0866 0.812471 5.36138 0.612365 7.63997 0.624815C11.3362 0.624815 13.7265 1.26101 15.4584 2.70518C16.2486 3.28252 16.8834 4.04679 17.3063 4.92928C17.7292 5.81177 17.927 6.78535 17.882 7.7629C17.882 10.5295 16.0117 12.9913 13.0349 14.0537V14.1369C15.7572 14.8175 18.9444 17.0253 18.9444 21.3301C18.9687 22.4006 18.7613 23.4636 18.3363 24.4463C17.9112 25.4291 17.2787 26.3084 16.4821 27.0238C14.5233 28.8553 11.2974 29.7018 6.62186 29.7018C4.69103 29.7141 2.76143 29.6017 0.845161 29.3647V1.22245ZM4.58009 12.9914H7.93877C11.812 12.9914 14.1415 10.9055 14.1415 8.14439C14.1415 4.79125 11.5907 3.47464 7.85576 3.47464C6.75802 3.44656 5.66032 3.53183 4.58009 3.72915V12.9914ZM4.58009 26.6699C5.60871 26.8084 6.64662 26.8655 7.68423 26.8412C11.5077 26.8412 15.0766 25.4413 15.0766 21.308C15.0766 17.3572 11.6792 15.7418 7.63997 15.7418H4.58009V26.6699Z" fill="white"/>
<path opacity="0.5" d="M47.4073 14.4746C47.4073 19.1502 45.9631 22.935 43.285 25.6075C40.607 28.2801 36.1914 29.7293 30.625 29.7293C28.3685 29.7406 26.1131 29.6283 23.8689 29.3922V1.22239C26.4844 0.828331 29.1254 0.628545 31.7704 0.624756L47.4073 14.4746ZM27.6094 26.5423C28.8465 26.7153 30.0956 26.7878 31.3443 26.7585C39.2513 26.7585 43.5174 22.3319 43.5174 14.5854C43.5617 7.83482 39.7382 3.51889 31.8977 3.51889C30.445 3.51641 28.995 3.64389 27.5651 3.90039L27.6094 26.5423Z" fill="white"/>
</g>
</svg>
