<svg width="26" height="21" viewBox="0 0 26 21" fill="none" xmlns="http://www.w3.org/2000/svg">
<path d="M23.5569 2.42969L23.6277 2.50371C24.0628 2.95728 24.4079 3.49595 24.6434 4.08888C24.8788 4.68182 25 5.31738 25 5.95926C25 6.60114 24.8788 7.2367 24.6434 7.82964C24.4079 8.42257 24.0628 8.96124 23.6277 9.41481L14.6337 18.8048C14.4196 19.0296 14.1651 19.2081 13.8847 19.3298C13.6044 19.4516 13.3037 19.5143 13 19.5143C12.6963 19.5143 12.3957 19.4516 12.1154 19.3298C11.835 19.2081 11.5804 19.0296 11.3664 18.8048L2.37226 9.41481C1.93723 8.96124 1.59209 8.42257 1.35663 7.82964C1.12116 7.2367 1 6.60114 1 5.95926C1 5.31738 1.12116 4.68182 1.35663 4.08888C1.59209 3.49595 1.93723 2.95728 2.37226 2.50371C2.80757 2.04708 3.32505 1.68475 3.89488 1.4375C4.46471 1.19026 5.07572 1.06297 5.6928 1.06297C6.30989 1.06297 6.92089 1.19026 7.49073 1.4375C8.06056 1.68475 8.57795 2.04708 9.01327 2.50371L11.2954 4.90855C11.5154 5.14529 11.7788 5.33349 12.0698 5.46202C12.3607 5.59055 12.6734 5.65676 12.9894 5.65676C13.3053 5.65676 13.6181 5.59055 13.909 5.46202C14.2 5.33349 14.4633 5.14529 14.6833 4.90855L16.8592 2.52588C17.2883 2.05215 17.804 1.67309 18.3759 1.41108C18.9477 1.14907 19.5641 1.00943 20.1886 1.00046C20.813 0.991493 21.4329 1.11338 22.0114 1.35887C22.59 1.60436 23.1155 1.96846 23.5569 2.42969V2.42969Z" stroke="#3F3F3F" stroke-width="1.5" stroke-miterlimit="10"/>
<path d="M23.5569 2.42969L23.6277 2.50371C24.0628 2.95728 24.4079 3.49595 24.6434 4.08888C24.8788 4.68182 25 5.31738 25 5.95926C25 6.60114 24.8788 7.2367 24.6434 7.82964C24.4079 8.42257 24.0628 8.96124 23.6277 9.41481L14.6337 18.8048C14.4196 19.0296 14.1651 19.2081 13.8847 19.3298C13.6044 19.4516 13.3037 19.5143 13 19.5143C12.6963 19.5143 12.3957 19.4516 12.1154 19.3298C11.835 19.2081 11.5804 19.0296 11.3664 18.8048L2.37226 9.41481C1.93723 8.96124 1.59209 8.42257 1.35663 7.82964C1.12116 7.2367 1 6.60114 1 5.95926C1 5.31738 1.12116 4.68182 1.35663 4.08888C1.59209 3.49595 1.93723 2.95728 2.37226 2.50371C2.80757 2.04708 3.32505 1.68475 3.89488 1.4375C4.46471 1.19026 5.07572 1.06297 5.6928 1.06297C6.30989 1.06297 6.92089 1.19026 7.49073 1.4375C8.06056 1.68475 8.57795 2.04708 9.01327 2.50371L11.2954 4.90855C11.5154 5.14529 11.7788 5.33349 12.0698 5.46202C12.3607 5.59055 12.6734 5.65676 12.9894 5.65676C13.3053 5.65676 13.6181 5.59055 13.909 5.46202C14.2 5.33349 14.4633 5.14529 14.6833 4.90855L16.8592 2.52588C17.2883 2.05215 17.804 1.67309 18.3759 1.41108C18.9477 1.14907 19.5641 1.00943 20.1886 1.00046C20.813 0.991493 21.4329 1.11338 22.0114 1.35887C22.59 1.60436 23.1155 1.96846 23.5569 2.42969V2.42969Z" stroke="#3F3F3F" stroke-width="1.5" stroke-miterlimit="10"/>
</svg>
