<svg width="109" height="20" viewBox="0 0 109 20" fill="none" xmlns="http://www.w3.org/2000/svg">
<path d="M108.982 8.23647C108.225 8.23647 107.431 8.23647 106.655 8.23647C106.47 8.23647 106.405 8.17591 106.405 7.98671C106.405 7.40398 106.405 7.4002 106.984 7.3775C107.135 7.3775 107.188 7.31317 107.188 7.1656C107.188 5.1828 107.188 3.2 107.188 1.2172C107.188 1.06963 107.135 0.997737 106.984 1.00909H106.924C106.761 0.986385 106.545 1.0999 106.447 0.933405C106.375 0.714459 106.366 0.47992 106.42 0.256058C106.42 0.134971 106.549 0.153907 106.636 0.153907H108.982V0.967447C108.797 1.01647 108.604 1.02806 108.414 1.00151C108.233 1.00151 108.161 1.05826 108.165 1.24746C108.165 1.74316 108.165 2.23888 108.165 2.73458V7.071C108.165 7.36993 108.165 7.36614 108.475 7.37371C108.644 7.35404 108.815 7.3669 108.978 7.41156L108.982 8.23647Z" fill="#90A08C"/>
<path d="M57.9251 19.4102C57.7888 19.3648 57.6489 19.327 57.5202 19.2702C57.3455 19.1883 57.1944 19.0633 57.0815 18.9068C56.9685 18.7503 56.8973 18.5676 56.8746 18.376C56.8519 18.1844 56.8784 17.9901 56.9516 17.8115C57.0249 17.633 57.1424 17.476 57.2932 17.3555C57.5732 17.1361 57.5732 17.1361 57.418 16.8107C57.3142 16.6216 57.2736 16.4043 57.3022 16.1905C57.3308 15.9767 57.4271 15.7776 57.577 15.6225C57.7269 15.4832 57.9148 15.3915 58.1169 15.3592C58.3191 15.3268 58.5262 15.3553 58.7122 15.4409C58.8289 15.501 58.9302 15.5873 59.008 15.6931C59.0859 15.7988 59.1382 15.9212 59.161 16.0505C59.1837 16.1799 59.1761 16.3127 59.139 16.4387C59.1018 16.5646 59.0361 16.6803 58.9468 16.7766C58.8045 16.9303 58.6368 17.0583 58.451 17.155C58.364 17.208 58.3338 17.2534 58.4132 17.3442C58.6554 17.6091 58.8938 17.8777 59.1322 18.1502C59.2192 18.2524 59.2646 18.2259 59.3214 18.1199C59.4322 17.8872 59.5099 17.6401 59.5522 17.3858C59.5648 17.3382 59.588 17.294 59.62 17.2566C59.6519 17.2191 59.6919 17.1893 59.7369 17.1693C59.7819 17.1493 59.8309 17.1397 59.8801 17.1412C59.9293 17.1426 59.9776 17.1551 60.0214 17.1777C60.0971 17.2269 60.0782 17.295 60.063 17.3631C59.998 17.7593 59.8525 18.1379 59.6354 18.4756C59.6193 18.4927 59.6071 18.5131 59.5996 18.5354C59.5921 18.5577 59.5895 18.5813 59.592 18.6047C59.5945 18.6281 59.6021 18.6506 59.6141 18.6708C59.6262 18.691 59.6425 18.7083 59.6619 18.7216C59.7982 18.8616 59.9306 19.0091 60.0403 19.1567C60.0706 19.1908 60.1236 19.2211 60.0933 19.2778C60.0631 19.3346 60.0252 19.3119 59.9836 19.3156C59.8616 19.3469 59.7331 19.3418 59.614 19.3007C59.495 19.2597 59.3906 19.1846 59.3138 19.0848C59.2306 18.9637 59.1397 18.9599 59.0262 19.0583C58.783 19.2203 58.5125 19.337 58.2278 19.4027L57.9251 19.4102ZM57.3916 18.1994C57.3897 18.2987 57.4064 18.3975 57.4408 18.4907C57.6867 19.1037 58.4813 19.0394 58.8332 18.7064C58.9051 18.6421 58.8749 18.5891 58.8332 18.5324L57.9554 17.5447C57.8986 17.4804 57.8381 17.4539 57.7624 17.5183C57.6504 17.5936 57.5582 17.6949 57.4936 17.8135C57.4291 17.932 57.3941 18.0644 57.3916 18.1994ZM57.8002 16.2544C57.8031 16.4592 57.8677 16.6583 57.9856 16.8258C58.0273 16.8901 58.084 16.928 58.1559 16.8825C58.277 16.8281 58.3855 16.7492 58.4747 16.6509C58.5639 16.5526 58.6319 16.4369 58.6743 16.3112C58.7038 16.1983 58.6897 16.0786 58.6351 15.9756C58.5804 15.8726 58.4891 15.7938 58.3792 15.7549C58.3223 15.7373 58.2623 15.7318 58.2031 15.7388C58.144 15.7457 58.0869 15.765 58.0356 15.7952C57.9843 15.8255 57.9399 15.8662 57.9052 15.9146C57.8705 15.9631 57.8464 16.0182 57.8343 16.0766C57.8187 16.135 57.8073 16.1944 57.8002 16.2544Z" fill="#90A08C"/>
<path d="M70.5029 19.4101L70.2531 19.3268C69.9836 19.2624 69.7351 19.1297 69.5317 18.9415C69.3283 18.7533 69.1766 18.5159 69.0914 18.2522C68.9485 17.8902 68.8979 17.4983 68.9441 17.1119C68.9903 16.7255 69.132 16.3566 69.3563 16.0386C69.529 15.8035 69.7586 15.6163 70.0235 15.4943C70.2885 15.3723 70.5801 15.3196 70.8709 15.3411C71.1618 15.3627 71.4424 15.4578 71.6865 15.6175C71.9305 15.7772 72.13 15.9963 72.2662 16.2543C72.4622 16.6271 72.5544 17.0458 72.5331 17.4666C72.5118 17.8873 72.3778 18.2946 72.1451 18.6457C71.922 18.985 71.5785 19.227 71.184 19.3231L70.8737 19.4101H70.5029ZM69.5266 17.4159C69.5073 17.6761 69.5555 17.9368 69.6666 18.1727C69.7417 18.3859 69.8787 18.5717 70.06 18.7065C70.2413 18.8414 70.4588 18.919 70.6845 18.9295C70.9146 18.9469 71.144 18.8886 71.338 18.7636C71.532 18.6387 71.6798 18.4538 71.7591 18.2371C71.9036 17.9399 71.9723 17.6117 71.9591 17.2816C71.9459 16.9514 71.8512 16.6297 71.6835 16.3451C71.5866 16.1803 71.4483 16.0436 71.2824 15.9487C71.1165 15.8538 70.9286 15.8039 70.7375 15.8039C70.5463 15.8039 70.3584 15.8538 70.1925 15.9487C70.0266 16.0436 69.8884 16.1803 69.7915 16.3451C69.5988 16.6678 69.5065 17.0406 69.5266 17.4159Z" fill="#90A08C"/>
<path d="M26.3896 19.4102C26.3347 19.385 26.2778 19.3647 26.2193 19.3496C26.0188 19.3231 25.9809 19.2134 26.0225 19.0318C26.0642 18.8501 26.1058 18.8388 26.2458 18.8804C26.3115 18.8976 26.3786 18.909 26.4463 18.9145C26.529 18.9284 26.6137 18.925 26.695 18.9047C26.7763 18.8844 26.8526 18.8475 26.919 18.7964C26.9854 18.7452 27.0406 18.6809 27.081 18.6075C27.1214 18.534 27.1463 18.453 27.1539 18.3696C27.1843 18.1946 27.1994 18.0174 27.1994 17.8398C27.1994 17.1133 27.1994 16.3868 27.1994 15.6603C27.1994 15.4257 27.1994 15.4219 27.4794 15.4067C27.6799 15.4067 27.7405 15.4749 27.7367 15.6678C27.7367 16.47 27.7367 17.2722 27.7367 18.0706C27.7366 18.2752 27.7034 18.4784 27.6383 18.6723C27.5899 18.8366 27.4983 18.985 27.3733 19.1021C27.2482 19.2192 27.0941 19.3007 26.9269 19.3383C26.855 19.3383 26.7869 19.3875 26.7188 19.4102H26.3896Z" fill="#90A08C"/>
<path d="M34.8882 4.19107C34.8882 2.94993 34.8882 1.70501 34.8882 0.463869C34.8882 0.176287 34.8882 0.161133 35.1833 0.161133C36.0007 0.161133 36.8142 0.161133 37.6315 0.161133C38.2728 0.171806 38.9055 0.30942 39.4933 0.566021C39.8685 0.721706 40.2074 0.953367 40.4887 1.24642C40.7701 1.53946 40.9877 1.88756 41.128 2.26881C41.5426 3.32211 41.572 4.48796 41.2112 5.56087C40.7079 7.05176 39.6068 7.8691 38.0781 8.14912C37.7233 8.21089 37.3635 8.23876 37.0034 8.23236C36.3829 8.23236 35.7661 8.23236 35.1455 8.23236C34.9525 8.23236 34.8806 8.16424 34.8844 7.96747C34.8844 7.50204 34.8844 7.03285 34.8844 6.56363L34.8882 4.19107ZM35.9061 4.19107V7.08204C35.9061 7.21447 35.9061 7.33555 36.0877 7.32798C36.6594 7.35011 37.2319 7.33622 37.8018 7.28636C38.937 7.10851 39.8074 6.54848 40.2122 5.41329C40.3997 4.82206 40.4565 4.1972 40.3787 3.58186C40.3459 3.14047 40.2168 2.71164 40.0003 2.32558C39.804 2.00543 39.5394 1.73259 39.2255 1.52654C38.9115 1.32049 38.5559 1.18631 38.184 1.13362C37.517 1.04353 36.8431 1.01567 36.1709 1.05038C35.9174 1.05038 35.9061 1.05039 35.9061 1.31526V4.19107Z" fill="#90A08C"/>
<path d="M3.27329 3.93405C3.74133 3.99773 4.1751 4.21462 4.50687 4.55084C4.78042 4.84034 4.94837 5.21361 4.98363 5.61035C5.14256 7.19961 4.03765 8.02453 2.92138 8.19859C2.51547 8.24143 2.10693 8.25407 1.69914 8.23642C1.20723 8.23642 0.719091 8.23642 0.230959 8.23642C0.0682476 8.23642 -0.0036423 8.18723 0.000141674 8.01695V0.373316C0.000141674 0.218173 0.0493324 0.153862 0.212043 0.153862C1.02181 0.153862 1.83158 0.127374 2.64135 0.153862C3.02246 0.142043 3.39853 0.24361 3.72187 0.445697C4.04521 0.647785 4.30129 0.941299 4.45767 1.28905C4.64901 1.75333 4.65523 2.27325 4.47506 2.74197C4.2949 3.21069 3.94202 3.59259 3.48898 3.80917L3.27329 3.93405ZM1.0029 5.92063C1.0029 6.3293 1.0029 6.73418 1.0029 7.14285C1.0029 7.27907 1.04831 7.34341 1.1921 7.34341C1.63861 7.34341 2.0889 7.34341 2.5392 7.34341C2.79296 7.34901 3.04367 7.28715 3.26571 7.16417C3.48776 7.04118 3.67316 6.86145 3.80303 6.64336C3.9213 6.45882 3.99261 6.24815 4.01075 6.02971C4.02889 5.81128 3.99333 5.59174 3.90712 5.39022C3.82092 5.1887 3.68671 5.01133 3.51621 4.8736C3.34571 4.73586 3.14407 4.64195 2.92893 4.60003C2.33836 4.4962 1.73767 4.4619 1.13912 4.49786C0.991546 4.49786 0.980201 4.59245 0.980201 4.70597L1.0029 5.92063ZM1.0029 2.32965C1.0029 2.68156 1.0029 3.03725 1.0029 3.38915C1.0029 3.567 1.07481 3.63133 1.24508 3.62376C1.41536 3.61619 1.68023 3.62376 1.8997 3.62376C2.27458 3.62538 2.64437 3.53715 2.97813 3.36645C3.20992 3.22049 3.39126 3.0068 3.49752 2.75433C3.60379 2.50186 3.62986 2.22283 3.57221 1.95504C3.5327 1.72801 3.41787 1.52089 3.24624 1.36712C3.07462 1.21334 2.85621 1.12185 2.62622 1.10741C2.14003 1.0538 1.65028 1.03989 1.16182 1.06579C1.01425 1.06579 1.00669 1.16417 1.00669 1.2739L1.0029 2.32965Z" fill="#90A08C"/>
<path d="M71.3618 4.18729V0.437379C71.3618 0.168716 71.3618 0.161133 71.6343 0.161133C72.463 0.161133 73.2954 0.161133 74.1241 0.161133C74.8693 0.171051 75.6007 0.363344 76.2545 0.721177C76.8831 1.06264 77.3629 1.62474 77.6016 2.29909C78.0377 3.43593 78.0283 4.69559 77.5751 5.82575C77.3237 6.44757 76.9104 6.99067 76.378 7.39861C75.8456 7.80654 75.2137 8.06439 74.5479 8.14533C74.1933 8.20837 73.8334 8.23751 73.4733 8.23236H71.6569C71.3467 8.23236 71.3467 8.23236 71.3467 7.92964L71.3618 4.18729ZM72.3494 4.18729V7.07825C72.3494 7.2069 72.3494 7.33176 72.5273 7.32419C73.1053 7.34441 73.684 7.33052 74.2603 7.28257C74.7429 7.23998 75.206 7.07243 75.6042 6.79641C76.0023 6.52039 76.3216 6.14543 76.5307 5.70845C76.8362 5.00792 76.9373 4.23521 76.8221 3.47968C76.7829 2.91454 76.5561 2.37867 76.1777 1.95709C75.7993 1.5355 75.291 1.25234 74.7333 1.15253C74.026 1.04539 73.3098 1.0099 72.5954 1.04659C72.3456 1.04659 72.3381 1.0466 72.3381 1.31148L72.3494 4.18729Z" fill="#90A08C"/>
<path d="M49.3012 4.19107V0.437379C49.3012 0.1725 49.3011 0.161133 49.5736 0.161133C50.3909 0.161133 51.2083 0.161133 52.0256 0.161133C52.7226 0.171182 53.4088 0.335298 54.0349 0.641705C54.4166 0.826683 54.7541 1.09125 55.025 1.4176C55.2959 1.74395 55.4937 2.1245 55.6052 2.53369C55.8878 3.42689 55.9128 4.38171 55.6771 5.28844C55.242 6.93068 54.1181 7.84639 52.4683 8.15667C52.1199 8.21849 51.7664 8.24638 51.4126 8.23993C50.792 8.23993 50.1752 8.23993 49.5546 8.23993C49.3579 8.23993 49.2974 8.17182 49.2974 7.97884C49.3049 6.71877 49.3012 5.45492 49.3012 4.19107ZM50.285 4.19107V7.10474C50.285 7.22583 50.285 7.34691 50.4514 7.34313C51.1174 7.38044 51.7854 7.35127 52.4456 7.25608C53.1288 7.13461 53.7432 6.76546 54.1711 6.21928C54.7955 5.39816 54.8485 4.45217 54.7463 3.47969C54.7075 3.07757 54.5781 2.68947 54.3679 2.34449C54.1694 2.03003 53.9054 1.76211 53.5939 1.55901C53.2824 1.35592 52.9307 1.22244 52.5629 1.16768C51.8891 1.08387 51.2095 1.05475 50.5309 1.08064C50.3342 1.08064 50.2736 1.14498 50.2736 1.33797C50.2887 2.27261 50.285 3.22994 50.285 4.18729V4.19107Z" fill="#90A08C"/>
<path d="M20.5923 4.20619V0.422219C20.5923 0.153557 20.5923 0.145996 20.8647 0.145996C21.6707 0.145996 22.4729 0.145996 23.2751 0.145996C23.7834 0.148489 24.2788 0.306994 24.6941 0.600078C24.9391 0.774544 25.1391 1.00491 25.2773 1.27209C25.4155 1.53927 25.4879 1.83557 25.4887 2.13637C25.542 2.63211 25.4197 3.13083 25.1431 3.54568C24.8666 3.96054 24.4532 4.26525 23.9751 4.40675C23.9259 4.40675 23.8541 4.40676 23.8427 4.48244C23.8314 4.55812 23.9108 4.57326 23.9562 4.60353C24.3759 4.94129 24.7189 5.36433 24.9627 5.84466C25.4168 6.55605 25.8558 7.27499 26.3023 7.99017C26.3363 8.04314 26.4044 8.09991 26.3742 8.16802C26.3439 8.23614 26.2418 8.22101 26.1699 8.22101H25.4547C25.3979 8.22574 25.3411 8.21305 25.2918 8.18465C25.2424 8.15626 25.2029 8.1135 25.1785 8.06206L23.8427 5.85979C23.6934 5.59978 23.5074 5.36273 23.2903 5.15597C23.0414 4.93974 22.7231 4.8202 22.3935 4.81919C22.2005 4.81919 22.0151 4.81919 21.8221 4.81919C21.6291 4.81919 21.5837 4.88731 21.5837 5.06137C21.5837 5.79925 21.5837 6.54091 21.5837 7.28256C21.5837 7.53231 21.5837 7.78583 21.5837 8.03936C21.5837 8.18315 21.5307 8.25126 21.3793 8.24747C21.228 8.24369 21.001 8.24747 20.8269 8.24747C20.6528 8.24747 20.5961 8.1756 20.5961 8.00532C20.5961 7.24852 20.5961 6.49173 20.5961 5.73493L20.5923 4.20619ZM21.5723 2.48449C21.5723 2.86289 21.5723 3.27155 21.5723 3.66509C21.5723 3.86564 21.6404 3.92617 21.8334 3.91861C22.1664 3.91861 22.4994 3.91861 22.8324 3.91861C23.0915 3.92354 23.3489 3.87591 23.5892 3.7786C23.8767 3.65184 24.1165 3.43681 24.2736 3.16468C24.4308 2.89254 24.4972 2.57743 24.4633 2.26501C24.4508 1.9654 24.328 1.681 24.1184 1.46653C23.9088 1.25206 23.6273 1.12271 23.3281 1.10335C22.7861 1.05101 22.241 1.03835 21.6972 1.0655C21.561 1.0655 21.5572 1.16389 21.5572 1.26606C21.5723 1.67095 21.5723 2.07582 21.5723 2.48449Z" fill="#90A08C"/>
<path d="M99.0985 4.19865V7.94856C99.0985 8.23236 99.0985 8.23615 98.8147 8.23993C98.6595 8.23993 98.5006 8.23993 98.3455 8.23993C98.1903 8.23993 98.1071 8.17939 98.1071 8.00154C98.1071 7.24474 98.1071 6.46524 98.1071 5.70088V4.84191C98.1071 4.58838 98.1071 4.57326 97.8422 4.57326H94.2247C94.0279 4.57326 93.9636 4.64137 93.9636 4.83435C93.9636 5.86738 93.9636 6.9004 93.9636 7.93343C93.9636 8.23993 93.9636 8.24372 93.6609 8.24372H93.169C93.0441 8.24372 92.9798 8.18316 92.9836 8.05828C92.9836 8.00152 92.9836 7.94855 92.9836 7.89558V0.490337C92.9836 0.161131 92.9836 0.161133 93.3279 0.161133H93.7971C93.9333 0.161133 93.9825 0.206544 93.9825 0.354119C93.9825 1.39471 93.9825 2.4353 93.9825 3.47211C93.9825 3.62347 94.0469 3.67646 94.1907 3.67646H97.9254C98.1109 3.67646 98.1411 3.58942 98.1373 3.43428V0.460082C98.1373 0.164932 98.1373 0.161133 98.4325 0.161133C98.5801 0.161133 98.7314 0.161133 98.879 0.161133C99.0266 0.161133 99.1287 0.229257 99.1249 0.410888C99.1249 1.45905 99.1249 2.50342 99.1249 3.55158L99.0985 4.19865Z" fill="#90A08C"/>
<path d="M18.5112 4.22121V7.9522C18.5112 8.23222 18.5112 8.236 18.2236 8.23979C18.0761 8.23979 17.9247 8.23979 17.7771 8.23979C17.6295 8.23979 17.5236 8.17166 17.5236 7.99003C17.5236 7.17269 17.5236 6.35915 17.5236 5.54181C17.5236 5.2845 17.5236 5.02719 17.5236 4.78502C17.5236 4.6488 17.4744 4.58446 17.3344 4.58446H13.5958C13.4028 4.58446 13.3991 4.69421 13.3991 4.838V7.95599C13.3991 8.25114 13.3991 8.25492 13.1039 8.25492H12.6158C12.4796 8.25492 12.4076 8.20572 12.4152 8.06193C12.4152 8.02409 12.4152 7.98246 12.4152 7.94084V0.467492C12.4152 0.16099 12.4152 0.160991 12.7217 0.160991C12.8731 0.160991 13.0244 0.160991 13.172 0.160991C13.3196 0.160991 13.4028 0.217765 13.4028 0.388043C13.4028 0.766441 13.4028 1.14484 13.4028 1.52324C13.4028 2.15516 13.4028 2.78708 13.4028 3.41522C13.4028 3.59307 13.4482 3.67253 13.645 3.67253C14.8634 3.67253 16.0819 3.67253 17.3003 3.67253C17.4782 3.67253 17.5349 3.60441 17.5349 3.43035C17.5349 2.43138 17.5349 1.43242 17.5349 0.433449C17.5349 0.164787 17.535 0.157227 17.8074 0.157227H18.235C18.5112 0.157227 18.5188 0.157211 18.5188 0.448577V4.23255L18.5112 4.22121Z" fill="#90A08C"/>
<path d="M69.2845 4.19851V7.94841C69.2845 8.23221 69.2845 8.236 69.0007 8.23979C68.8494 8.23979 68.7018 8.23979 68.5505 8.23979C68.3991 8.23979 68.2969 8.17545 68.3007 7.99003C68.3007 7.30513 68.3007 6.62023 68.3007 5.93155C68.3007 5.55315 68.3007 5.17476 68.3007 4.79636C68.3007 4.62608 68.2515 4.5542 68.0699 4.5542H64.4146C64.2216 4.5542 64.1686 4.63366 64.1724 4.81151C64.1724 5.84832 64.1724 6.88891 64.1724 7.9295C64.1724 8.22087 64.1724 8.22464 63.8773 8.22464H63.3853C63.2491 8.22464 63.181 8.17547 63.1886 8.03167V0.463727C63.1886 0.157226 63.1886 0.157227 63.4913 0.157227C63.6427 0.157227 63.7902 0.157227 63.9416 0.157227C64.0929 0.157227 64.1762 0.225321 64.1762 0.399383C64.1762 1.29997 64.1762 2.20435 64.1762 3.10872C64.1762 3.67253 64.1762 3.67253 64.7324 3.67253H67.9791C68.3007 3.67253 68.3007 3.67253 68.3007 3.36224V0.448577C68.3007 0.176131 68.3007 0.160991 68.5959 0.160991H69.0235C69.2694 0.160991 69.2845 0.160999 69.2845 0.429662V4.21363V4.19851Z" fill="#90A08C"/>
<path d="M79.0663 8.23977C78.5025 8.23977 78.5025 8.23976 78.6879 7.71379L81.4578 0.501537C81.5865 0.157196 81.5903 0.16097 81.9497 0.16097H82.4416C82.4923 0.158228 82.5425 0.172869 82.5838 0.20245C82.625 0.232031 82.655 0.27478 82.6687 0.323678C83.4255 2.27621 84.1823 4.22875 84.939 6.18129L85.6353 7.98623C85.7224 8.20948 85.7034 8.23977 85.4764 8.24356C85.2494 8.24734 85.0677 8.24356 84.8634 8.24356C84.7961 8.25288 84.7277 8.23668 84.6717 8.19817C84.6157 8.15967 84.5761 8.10162 84.5607 8.03542C84.3374 7.42998 84.099 6.82834 83.8796 6.2229C83.8632 6.15065 83.8202 6.0872 83.7592 6.04514C83.6982 6.00308 83.6237 5.9855 83.5504 5.99587H80.6329C80.5629 5.98463 80.4912 6.00074 80.4327 6.04089C80.3743 6.08104 80.3335 6.14217 80.3188 6.21156C80.1296 6.77159 79.9404 7.34675 79.7285 7.88407C79.5999 8.24355 79.6037 8.24356 79.229 8.24356L79.0663 8.23977ZM82.0935 1.31131C82.0367 1.47402 82.0027 1.59133 81.9611 1.68971C81.5827 2.73787 81.2043 3.78224 80.8259 4.82662C80.7388 5.06501 80.754 5.08392 81.0038 5.08392H83.206C83.452 5.08392 83.4557 5.08392 83.3725 4.84553C83.1038 4.11901 82.8352 3.39627 82.5703 2.66975C82.4113 2.22702 82.2335 1.8108 82.1162 1.31131H82.0935Z" fill="#90A08C"/>
<path d="M33.2043 8.23993C32.5723 8.23993 32.7275 8.33074 32.4967 7.74423C32.2923 7.22582 32.1183 6.70363 31.9064 6.18144C31.8913 6.12244 31.8554 6.07085 31.8054 6.0361C31.7553 6.00136 31.6945 5.9858 31.6339 5.99225H28.6332C28.5761 5.98589 28.5186 6.00038 28.4713 6.03306C28.424 6.06574 28.3901 6.1144 28.3759 6.17008C28.1716 6.76038 27.9521 7.34689 27.7515 7.94098C27.6796 8.15666 27.5737 8.2702 27.3277 8.24371C27.1375 8.23046 26.9466 8.23046 26.7563 8.24371C26.5861 8.24371 26.5596 8.18694 26.6163 8.03558C26.8964 7.32797 27.165 6.61659 27.4375 5.9052C28.1363 4.08385 28.8338 2.26376 29.53 0.444927C29.6057 0.24816 29.7003 0.134641 29.9084 0.161129C30.0645 0.176269 30.2216 0.176269 30.3776 0.161129C30.4185 0.150565 30.461 0.148557 30.5027 0.155193C30.5443 0.16183 30.5841 0.176968 30.6196 0.199699C30.6551 0.222429 30.6856 0.252243 30.7091 0.287277C30.7325 0.32231 30.7485 0.361815 30.756 0.403309C31.2101 1.59904 31.6718 2.78722 32.1334 3.97917L33.647 7.91451C33.647 7.941 33.647 7.96747 33.6772 7.99017C33.7529 8.21721 33.7416 8.23993 33.507 8.24371L33.2043 8.23993ZM30.1392 1.29256C30.0825 1.47419 30.0409 1.61797 29.9917 1.75798C29.6133 2.80235 29.2349 3.8505 28.8565 4.8911C28.7921 5.06516 28.8338 5.10302 29.0041 5.09923H31.2744C31.5053 5.09923 31.5128 5.09922 31.4334 4.86839C31.2101 4.25917 30.9831 3.64997 30.7598 3.03696C30.5238 2.46627 30.3167 1.88407 30.1392 1.29256Z" fill="#90A08C"/>
<path d="M6.58423 4.19486V0.463869C6.58423 0.176287 6.58422 0.161133 6.87937 0.161133H10.4741C10.7315 0.161133 10.7466 0.161134 10.7428 0.422228C10.7428 1.17902 10.8488 1.05036 10.1109 1.05793C9.37302 1.0655 8.5973 1.05793 7.86321 1.05793C7.60969 1.05793 7.59833 1.05794 7.59833 1.3266V3.404C7.59833 3.66131 7.59834 3.67267 7.86321 3.67267H10.2093C10.4855 3.67267 10.5006 3.67268 10.5006 3.96026C10.5006 4.57326 10.5006 4.57326 9.90655 4.57326C9.21786 4.57326 8.53296 4.57326 7.84427 4.57326C7.65886 4.57326 7.59454 4.63379 7.59454 4.8192C7.59454 5.576 7.59454 6.33279 7.59454 7.08959C7.59454 7.28257 7.66265 7.33934 7.84806 7.33556H10.6444C10.9017 7.33556 10.9093 7.33556 10.9131 7.59665C10.9131 8.23236 10.9131 8.23236 10.2812 8.23236H6.90964C6.58801 8.23236 6.58423 8.23235 6.58423 7.89558V4.19486Z" fill="#90A08C"/>
<path d="M57.3538 4.19486V0.486572C57.3538 0.168718 57.3537 0.161133 57.6716 0.161133H61.221C61.4972 0.161133 61.5161 0.161133 61.5161 0.444931C61.5161 1.15632 61.6069 1.05415 60.9182 1.05793H58.61C58.3451 1.05793 58.3376 1.05795 58.3376 1.33797V3.39645C58.3376 3.66511 58.3376 3.67267 58.61 3.67267H60.9788C61.255 3.67267 61.2702 3.67268 61.274 3.96026C61.274 4.57326 61.274 4.57326 60.6609 4.57326C59.9723 4.57326 59.2873 4.57326 58.5987 4.57326C58.4057 4.57326 58.3338 4.6338 58.3338 4.83057C58.3338 5.58736 58.3338 6.34416 58.3338 7.10095C58.3338 7.29772 58.4132 7.35825 58.6024 7.35447H61.3988C61.6788 7.35447 61.6826 7.35447 61.6826 7.63827C61.6826 8.25127 61.6826 8.25127 61.0696 8.25127H57.7019C57.3575 8.25127 57.3538 8.25129 57.3538 7.91451V4.19486Z" fill="#90A08C"/>
<path d="M88.5485 8.36483C87.9451 8.3782 87.3449 8.2741 86.7813 8.05833C86.4824 7.95238 86.4749 7.9259 86.4749 7.61562V6.9837C86.4749 6.84748 86.5165 6.78314 86.6565 6.87774C87.2478 7.26154 87.9345 7.47255 88.6393 7.48697C88.96 7.50658 89.2814 7.46286 89.5853 7.35831C89.7844 7.29886 89.9635 7.18587 90.1028 7.03164C90.2422 6.87742 90.3366 6.68789 90.3756 6.48373C90.4146 6.27957 90.3968 6.06862 90.3242 5.87387C90.2516 5.67911 90.1269 5.50804 89.9637 5.3793C89.6107 5.09023 89.2214 4.84852 88.8058 4.66033C88.3122 4.42964 87.8377 4.16013 87.3868 3.85434C87.0369 3.63123 86.7665 3.30322 86.6143 2.9172C86.4621 2.53118 86.4358 2.10692 86.5392 1.70505C86.6354 1.24315 86.9066 0.836384 87.2959 0.569859C87.7836 0.227465 88.3615 0.036597 88.9571 0.0211779C89.5737 -0.034764 90.1953 0.0203429 90.7924 0.183886C90.8355 0.189743 90.8769 0.204389 90.9141 0.226913C90.9514 0.249437 90.9836 0.279365 91.0087 0.314838C91.0339 0.35031 91.0516 0.390569 91.0606 0.433133C91.0696 0.475697 91.0697 0.519655 91.061 0.562283C91.061 0.766618 91.061 0.970951 91.061 1.17529C91.061 1.37962 91.0345 1.39855 90.8567 1.30016C90.1508 0.914576 89.3272 0.804036 88.5447 0.989874C88.3229 1.0154 88.1127 1.10272 87.938 1.24187C87.7634 1.38102 87.6314 1.56642 87.5571 1.77695C87.4846 2.02025 87.493 2.28051 87.581 2.51864C87.669 2.75676 87.8319 2.95989 88.0452 3.09755C88.3947 3.33309 88.7629 3.53939 89.1463 3.71434C89.7693 3.99606 90.341 4.37972 90.8378 4.84953C91.055 5.07305 91.2168 5.34438 91.3102 5.64176C91.4036 5.93913 91.426 6.25426 91.3756 6.56186C91.3252 6.86945 91.2034 7.16095 91.02 7.41295C90.8365 7.66496 90.5966 7.87043 90.3194 8.01293C89.7679 8.27678 89.1589 8.39778 88.5485 8.36483Z" fill="#90A08C"/>
<path d="M103.635 4.66065V7.96029C103.635 8.22895 103.636 8.23651 103.363 8.2403C103.2 8.2403 103.034 8.2403 102.871 8.2403C102.708 8.2403 102.644 8.17219 102.648 8.00948C102.652 7.84677 102.648 7.57431 102.648 7.35862V1.36859C102.648 1.06209 102.648 1.0583 102.345 1.0583C101.751 1.0583 101.161 1.0583 100.57 1.0583C100.385 1.0583 100.309 0.990198 100.317 0.808568C100.325 0.626937 100.317 0.483151 100.317 0.316656C100.314 0.294477 100.317 0.271973 100.324 0.250949C100.332 0.229925 100.344 0.210966 100.36 0.195543C100.377 0.180119 100.396 0.168663 100.417 0.1621C100.439 0.155538 100.461 0.15405 100.483 0.157735H105.667C105.947 0.157735 105.955 0.157732 105.955 0.437746V0.763162C105.955 1.05453 105.955 1.05454 105.652 1.05454H103.961C103.628 1.05454 103.628 1.05452 103.628 1.39508L103.635 4.66065Z" fill="#90A08C"/>
<path d="M33.4124 16.258C33.3292 16.5873 33.2497 16.9127 33.1627 17.2381C33 17.8473 32.8221 18.4565 32.667 19.0695C32.6102 19.289 32.4853 19.3306 32.2886 19.3306C32.0918 19.3306 32.0199 19.2436 31.9745 19.0658C31.6945 17.9306 31.4069 16.7954 31.1269 15.6867C31.1042 15.5996 30.9907 15.471 31.1723 15.418C31.3539 15.365 31.6226 15.418 31.6605 15.5656C31.7324 15.8418 31.7967 16.1218 31.861 16.3981C32.0161 17.083 32.1675 17.7641 32.3227 18.4452C32.331 18.4635 32.3425 18.4802 32.3567 18.4944C32.421 18.4338 32.4097 18.3544 32.4286 18.2863C32.6594 17.4046 32.8978 16.5267 33.1135 15.6375C33.1778 15.3726 33.3519 15.418 33.5335 15.4067C33.7151 15.3953 33.7681 15.5088 33.8022 15.6602C34.0065 16.5608 34.2487 17.4538 34.4227 18.3619C34.4227 18.3998 34.4228 18.4376 34.4568 18.4982C34.5439 18.4187 34.5211 18.3241 34.5439 18.2484C34.7709 17.3605 34.9992 16.4775 35.2287 15.5996C35.2888 15.5152 35.3765 15.4542 35.4766 15.4273C35.5767 15.4004 35.6831 15.4091 35.7774 15.4521C35.8191 15.4937 35.8001 15.5429 35.7774 15.5845C35.4444 16.7689 35.1039 17.9495 34.7747 19.1339C34.7141 19.3571 34.5552 19.3306 34.3963 19.3382C34.363 19.3441 34.3288 19.343 34.296 19.3349C34.2632 19.3269 34.2325 19.312 34.2057 19.2913C34.179 19.2707 34.1569 19.2446 34.1408 19.2149C34.1248 19.1852 34.1151 19.1524 34.1125 19.1187C33.9081 18.203 33.6546 17.2986 33.473 16.3791C33.4578 16.3337 33.473 16.2845 33.4124 16.258Z" fill="#90A08C"/>
<path d="M75.8498 17.3857C75.8498 16.8218 75.8498 16.2505 75.8498 15.6942C75.8498 15.5239 75.9066 15.4483 76.0769 15.4293C76.6225 15.3492 77.1778 15.362 77.7192 15.4672C78.046 15.5291 78.3456 15.6907 78.5766 15.93C78.8077 16.1692 78.959 16.4742 79.0095 16.8029C79.1086 17.2644 79.0691 17.7449 78.896 18.1841C78.5895 18.9409 77.9613 19.2398 77.2007 19.3193C76.8227 19.3426 76.4436 19.3426 76.0656 19.3193C75.9028 19.3193 75.8347 19.2511 75.8385 19.0847C75.8537 18.5246 75.8498 17.957 75.8498 17.3857ZM76.3834 17.3857C76.3834 17.8132 76.3834 18.2408 76.3834 18.6722C76.3834 18.816 76.425 18.8841 76.584 18.9106C76.7863 18.9352 76.9908 18.9352 77.1932 18.9106C77.4993 18.8925 77.7899 18.7698 78.0164 18.5632C78.243 18.3566 78.3919 18.0785 78.4381 17.7754C78.4816 17.5136 78.4816 17.2464 78.4381 16.9846C78.4204 16.7694 78.344 16.5631 78.2172 16.3883C78.0905 16.2135 77.9182 16.0769 77.7192 15.9932C77.3738 15.8646 77.0039 15.8155 76.6369 15.8494C76.444 15.8494 76.3569 15.9288 76.3607 16.1332C76.391 16.5305 76.3834 16.9505 76.3834 17.3629V17.3857Z" fill="#90A08C"/>
<path d="M68.4596 18.2144V18.9485C68.4596 19.0469 68.4596 19.1377 68.3309 19.1755C67.7326 19.3975 67.0791 19.4227 66.4654 19.2474C66.1464 19.152 65.8624 18.9648 65.6491 18.7091C65.4358 18.4534 65.3025 18.1405 65.2659 17.8095C65.1717 17.4258 65.1961 17.0225 65.336 16.6529C65.4758 16.2833 65.7246 15.9649 66.0492 15.7397C66.3607 15.5408 66.7131 15.4151 67.0801 15.3718C67.447 15.3286 67.8191 15.3689 68.1682 15.4899C68.3991 15.5505 68.278 15.7056 68.2553 15.8343C68.2326 15.9629 68.1493 15.9781 68.0282 15.9364C67.692 15.8183 67.3311 15.7884 66.9801 15.8494C66.7044 15.8898 66.4484 16.0162 66.2487 16.2105C66.0489 16.4048 65.9156 16.6571 65.8676 16.9316C65.7856 17.2141 65.7824 17.5136 65.8584 17.7978C65.9345 18.0819 66.0868 18.3398 66.2989 18.5436C66.3651 18.6028 66.4374 18.6548 66.5146 18.6987C66.9053 18.8823 67.3456 18.9315 67.7671 18.8388C67.793 18.8385 67.8186 18.8327 67.8421 18.8217C67.8656 18.8107 67.8865 18.7948 67.9034 18.7751C67.9202 18.7554 67.9326 18.7323 67.9398 18.7074C67.947 18.6825 67.9488 18.6563 67.945 18.6306V17.8738C67.945 17.7414 67.8807 17.6922 67.7558 17.696H67.3471C67.1995 17.696 67.1655 17.6165 67.1655 17.4879C67.1655 17.3592 67.1655 17.2457 67.3357 17.2457H68.2969C68.4255 17.2457 68.4785 17.3176 68.4785 17.4387C68.4785 17.696 68.4785 17.9571 68.4785 18.1955L68.4596 18.2144Z" fill="#90A08C"/>
<path d="M49.0706 17.4539C49.2236 17.5519 49.3527 17.6831 49.4483 17.8376C49.5439 17.9922 49.6037 18.1662 49.6231 18.3469C49.6874 18.6118 49.7555 18.8729 49.8349 19.134C49.8728 19.2664 49.835 19.3194 49.7025 19.327C49.3506 19.327 49.3241 19.327 49.2295 19.0015C49.1614 18.7556 49.1122 18.502 49.0441 18.2447C49.0222 18.1316 48.9759 18.0246 48.9085 17.9311C48.8411 17.8376 48.7541 17.7599 48.6537 17.7034C48.5533 17.6469 48.4417 17.6129 48.3268 17.6038C48.212 17.5947 48.0965 17.6107 47.9884 17.6507C47.8673 17.6847 47.8749 17.7755 47.8749 17.8626C47.8749 18.241 47.8749 18.661 47.8749 19.0621C47.8749 19.2588 47.7992 19.3232 47.61 19.3232C47.4208 19.3232 47.3337 19.2815 47.3337 19.0734C47.3337 17.9382 47.3337 16.803 47.3337 15.6679C47.3337 15.5506 47.3338 15.4446 47.4889 15.4295C47.9703 15.3386 48.4644 15.3386 48.9457 15.4295C49.1523 15.4666 49.3414 15.5696 49.4846 15.7231C49.6278 15.8765 49.7175 16.0722 49.7403 16.2809C49.7737 16.4983 49.7371 16.7207 49.6358 16.9159C49.5344 17.1111 49.3736 17.2691 49.1765 17.3669L49.0706 17.4539ZM47.8749 16.5647C47.9051 16.7349 47.7689 17.0301 47.9354 17.1587C48.1019 17.2874 48.4197 17.2344 48.6619 17.1587C48.8215 17.1306 48.9656 17.0459 49.0678 16.92C49.17 16.7942 49.2234 16.6358 49.2182 16.4738C49.2194 16.3047 49.155 16.1416 49.0386 16.0189C48.9222 15.8962 48.7628 15.8232 48.5938 15.8154C48.4111 15.8041 48.2278 15.8041 48.0451 15.8154C47.924 15.8154 47.8749 15.8835 47.8749 15.9971C47.8787 16.1787 47.8749 16.349 47.8749 16.5647Z" fill="#90A08C"/>
<path d="M44.4881 17.3629C44.4881 16.7916 44.4881 16.2277 44.4881 15.6526C44.4881 15.4709 44.5486 15.3953 44.734 15.3991C45.294 15.3991 45.8692 15.3991 46.4103 15.3991C46.5692 15.3991 46.6449 15.452 46.6487 15.6223C46.6525 15.7926 46.573 15.8607 46.4027 15.8569C46.0244 15.8569 45.646 15.8569 45.2676 15.8569C45.1011 15.8569 45.0367 15.9175 45.0405 16.084C45.0405 16.3337 45.0405 16.5872 45.0405 16.8408C45.0405 16.9921 45.101 17.0451 45.2486 17.0451C45.6005 17.0451 45.9562 17.0451 46.3081 17.0451C46.4633 17.0451 46.5541 17.0829 46.5541 17.2608C46.5541 17.4386 46.4822 17.5029 46.3081 17.4992C45.9638 17.4992 45.6157 17.4992 45.2676 17.4992C45.1048 17.4992 45.033 17.5521 45.0367 17.7224C45.0367 18.0214 45.0367 18.3203 45.0367 18.6192C45.0367 18.7857 45.0935 18.85 45.26 18.8463C45.6611 18.8463 46.066 18.8463 46.4671 18.8463C46.6525 18.8463 46.7168 18.9219 46.713 19.1036C46.7092 19.2852 46.6336 19.3382 46.4633 19.3344C45.8806 19.3344 45.2941 19.3344 44.7075 19.3344C44.5335 19.3344 44.4654 19.2701 44.4691 19.096C44.4918 18.5171 44.4881 17.9457 44.4881 17.3629Z" fill="#90A08C"/>
<path d="M28.5159 17.3632C28.5159 16.7994 28.5159 16.228 28.5159 15.6717C28.5159 15.4863 28.5651 15.4031 28.7694 15.4069C29.3181 15.4069 29.8705 15.4069 30.4192 15.4069C30.5857 15.4069 30.65 15.4636 30.65 15.6301C30.65 15.7966 30.6009 15.8685 30.4268 15.8647C30.0484 15.8647 29.67 15.8647 29.2916 15.8647C29.1289 15.8647 29.0532 15.9177 29.0608 16.088C29.0608 16.3415 29.0608 16.5912 29.0608 16.8448C29.0608 16.9923 29.1137 17.0529 29.2651 17.0529C29.6435 17.0529 29.9841 17.0529 30.3436 17.0529C30.5101 17.0529 30.5782 17.1059 30.5782 17.2761C30.5782 17.4464 30.5252 17.5107 30.3511 17.507C29.9992 17.507 29.6435 17.507 29.2916 17.507C29.1289 17.507 29.057 17.5637 29.0608 17.734C29.0608 18.0405 29.0608 18.347 29.0608 18.6497C29.0608 18.7973 29.1175 18.8578 29.2651 18.8541C29.6738 18.8541 30.0824 18.8541 30.4911 18.8541C30.6727 18.8541 30.7409 18.9108 30.7446 19.1C30.7484 19.2892 30.6652 19.346 30.4874 19.3422C29.9235 19.3422 29.3521 19.3422 28.7921 19.3422C28.5499 19.3422 28.5272 19.3195 28.5272 19.0697L28.5159 17.3632Z" fill="#90A08C"/>
<path d="M36.2732 17.3631C36.2732 16.7992 36.2732 16.2279 36.2732 15.6716C36.2732 15.4862 36.3338 15.4219 36.5192 15.4219C37.0717 15.4219 37.6204 15.4219 38.1728 15.4219C38.3355 15.4219 38.4036 15.4711 38.4036 15.6414C38.4036 15.8116 38.3431 15.8835 38.1652 15.8797C37.7868 15.8797 37.4084 15.8797 37.03 15.8797C36.8749 15.8797 36.8106 15.9327 36.8144 16.0916C36.8144 16.3452 36.8144 16.5949 36.8144 16.8484C36.8144 17.0036 36.8711 17.0679 37.03 17.0641C37.3365 17.0641 37.6431 17.0641 37.9458 17.0641C38.2485 17.0641 38.3242 17.083 38.3242 17.2874C38.3242 17.4917 38.2901 17.5182 37.9458 17.5182C37.6014 17.5182 37.3328 17.5182 37.0263 17.5182C36.8598 17.5182 36.7992 17.5787 36.803 17.7452C36.803 18.0429 36.803 18.3418 36.803 18.642C36.803 18.8123 36.8673 18.8691 37.0338 18.8653C37.4349 18.8653 37.8361 18.8653 38.2372 18.8653C38.4226 18.8653 38.4869 18.9372 38.4869 19.1188C38.4869 19.3005 38.4037 19.3572 38.2372 19.3534C37.6658 19.3534 37.102 19.3534 36.523 19.3534C36.3225 19.3534 36.2657 19.2702 36.2695 19.0848C36.277 18.4982 36.2732 17.9193 36.2732 17.3631Z" fill="#90A08C"/>
<path d="M51.2235 18.3282C51.3672 17.8363 51.0721 17.3671 50.7921 16.8865C50.5121 16.4059 50.3153 16.0162 50.0731 15.5848C50.0012 15.4599 50.0353 15.4183 50.1715 15.4108C50.5499 15.3843 50.5991 15.4107 50.777 15.7437C50.9889 16.1675 51.2008 16.5951 51.4164 17.0189C51.4429 17.0719 51.4429 17.1589 51.5148 17.1627C51.5867 17.1665 51.5943 17.0795 51.6208 17.0303L52.3511 15.6151C52.4228 15.5207 52.5227 15.4516 52.6363 15.4176C52.7498 15.3836 52.8712 15.3865 52.983 15.4259C53.0776 15.4864 52.983 15.547 52.983 15.5962C52.7333 16.0313 52.476 16.4665 52.2262 16.8979C52.2091 16.9349 52.1889 16.9703 52.1657 17.0038C52.0041 17.2177 51.8873 17.462 51.8223 17.722C51.7573 17.9821 51.7454 18.2526 51.7873 18.5174C51.7873 18.7255 51.7873 18.9374 51.7873 19.1493C51.7873 19.3612 51.6435 19.3423 51.5073 19.3461C51.371 19.3499 51.2462 19.3461 51.25 19.1455C51.2538 18.945 51.2235 18.6612 51.2235 18.3282Z" fill="#90A08C"/>
<path d="M39.092 17.363C39.092 16.7955 39.092 16.2278 39.092 15.6527C39.092 15.4446 39.1828 15.4067 39.3645 15.4067C39.5461 15.4067 39.6331 15.4559 39.6331 15.6565C39.6331 16.61 39.6331 17.5485 39.6331 18.5096C39.6331 18.8426 39.6331 18.8426 39.9737 18.8426C40.3142 18.8426 40.7078 18.8426 41.0748 18.8426C41.2603 18.8426 41.3057 18.9296 41.3057 19.0961C41.3057 19.2626 41.2527 19.3307 41.0824 19.3307C40.4959 19.3307 39.9132 19.3307 39.3266 19.3307C39.1602 19.3307 39.0958 19.2664 39.0958 19.0999C39.0958 18.521 39.092 17.942 39.092 17.363Z" fill="#90A08C"/>
<path d="M41.7902 17.3633V15.7324C41.7902 15.4221 41.7902 15.4146 42.0626 15.4146C42.335 15.4146 42.3237 15.4146 42.3237 15.7248C42.3237 16.6708 42.3237 17.6168 42.3237 18.5553C42.3237 18.8428 42.3237 18.8466 42.6037 18.8466H43.7654C43.9357 18.8466 43.9924 18.9185 43.9924 19.0812C43.9924 19.2439 43.947 19.3348 43.7616 19.331C43.1789 19.331 42.5924 19.331 42.0058 19.331C41.8356 19.331 41.7826 19.2553 41.7826 19.0964C41.7939 18.4985 41.7902 17.9385 41.7902 17.3633Z" fill="#90A08C"/>
<path d="M73.1177 17.3631V15.7511C73.1177 15.4294 73.1177 15.4219 73.3826 15.4219C73.6475 15.4219 73.6551 15.4219 73.6551 15.7435V18.4982C73.6551 18.8388 73.6551 18.8388 73.9881 18.8388C74.321 18.8388 74.7222 18.8388 75.0892 18.8388C75.2708 18.8388 75.3276 18.9145 75.3276 19.0848C75.3276 19.255 75.2633 19.3307 75.0892 19.3269C74.5115 19.3269 73.9325 19.3269 73.3523 19.3269C73.1745 19.3269 73.1139 19.2512 73.1177 19.081C73.1215 18.4982 73.1177 17.9269 73.1177 17.3631Z" fill="#90A08C"/>
<path d="M108.982 8.23647C108.225 8.23647 107.431 8.23647 106.655 8.23647C106.47 8.23647 106.405 8.17591 106.405 7.98671C106.405 7.40398 106.405 7.4002 106.984 7.3775C107.135 7.3775 107.188 7.31317 107.188 7.1656C107.188 5.1828 107.188 3.2 107.188 1.2172C107.188 1.06963 107.135 0.997737 106.984 1.00909H106.924C106.761 0.986385 106.545 1.0999 106.447 0.933405C106.375 0.714459 106.366 0.47992 106.42 0.256058C106.42 0.134971 106.549 0.153907 106.636 0.153907H108.982V0.967447C108.797 1.01647 108.604 1.02806 108.414 1.00151C108.233 1.00151 108.161 1.05826 108.165 1.24746C108.165 1.74316 108.165 2.23888 108.165 2.73458V7.071C108.165 7.36993 108.165 7.36614 108.475 7.37371C108.644 7.35404 108.815 7.3669 108.978 7.41156L108.982 8.23647Z" fill="#90A08C"/>
<path d="M57.9251 19.4102C57.7888 19.3648 57.6489 19.327 57.5202 19.2702C57.3455 19.1883 57.1944 19.0633 57.0815 18.9068C56.9685 18.7503 56.8973 18.5676 56.8746 18.376C56.8519 18.1844 56.8784 17.9901 56.9516 17.8115C57.0249 17.633 57.1424 17.476 57.2932 17.3555C57.5732 17.1361 57.5732 17.1361 57.418 16.8107C57.3142 16.6216 57.2736 16.4043 57.3022 16.1905C57.3308 15.9767 57.4271 15.7776 57.577 15.6225C57.7269 15.4832 57.9148 15.3915 58.1169 15.3592C58.3191 15.3268 58.5262 15.3553 58.7122 15.4409C58.8289 15.501 58.9302 15.5873 59.008 15.6931C59.0859 15.7988 59.1382 15.9212 59.161 16.0505C59.1837 16.1799 59.1761 16.3127 59.139 16.4387C59.1018 16.5646 59.0361 16.6803 58.9468 16.7766C58.8045 16.9303 58.6368 17.0583 58.451 17.155C58.364 17.208 58.3338 17.2534 58.4132 17.3442C58.6554 17.6091 58.8938 17.8777 59.1322 18.1502C59.2192 18.2524 59.2646 18.2259 59.3214 18.1199C59.4322 17.8872 59.5099 17.6401 59.5522 17.3858C59.5648 17.3382 59.588 17.294 59.62 17.2566C59.6519 17.2191 59.6919 17.1893 59.7369 17.1693C59.7819 17.1493 59.8309 17.1397 59.8801 17.1412C59.9293 17.1426 59.9776 17.1551 60.0214 17.1777C60.0971 17.2269 60.0782 17.295 60.063 17.3631C59.998 17.7593 59.8525 18.1379 59.6354 18.4756C59.6193 18.4927 59.6071 18.5131 59.5996 18.5354C59.5921 18.5577 59.5895 18.5813 59.592 18.6047C59.5945 18.6281 59.6021 18.6506 59.6141 18.6708C59.6262 18.691 59.6425 18.7083 59.6619 18.7216C59.7982 18.8616 59.9306 19.0091 60.0403 19.1567C60.0706 19.1908 60.1236 19.2211 60.0933 19.2778C60.0631 19.3346 60.0252 19.3119 59.9836 19.3156C59.8616 19.3469 59.7331 19.3418 59.614 19.3007C59.495 19.2597 59.3906 19.1846 59.3138 19.0848C59.2306 18.9637 59.1397 18.9599 59.0262 19.0583C58.783 19.2203 58.5125 19.337 58.2278 19.4027L57.9251 19.4102ZM57.3916 18.1994C57.3897 18.2987 57.4064 18.3975 57.4408 18.4907C57.6867 19.1037 58.4813 19.0394 58.8332 18.7064C58.9051 18.6421 58.8749 18.5891 58.8332 18.5324L57.9554 17.5447C57.8986 17.4804 57.8381 17.4539 57.7624 17.5183C57.6504 17.5936 57.5582 17.6949 57.4936 17.8135C57.4291 17.932 57.3941 18.0644 57.3916 18.1994ZM57.8002 16.2544C57.8031 16.4592 57.8677 16.6583 57.9856 16.8258C58.0273 16.8901 58.084 16.928 58.1559 16.8825C58.277 16.8281 58.3855 16.7492 58.4747 16.6509C58.5639 16.5526 58.6319 16.4369 58.6743 16.3112C58.7038 16.1983 58.6897 16.0786 58.6351 15.9756C58.5804 15.8726 58.4891 15.7938 58.3792 15.7549C58.3223 15.7373 58.2623 15.7318 58.2031 15.7388C58.144 15.7457 58.0869 15.765 58.0356 15.7952C57.9843 15.8255 57.9399 15.8662 57.9052 15.9146C57.8705 15.9631 57.8464 16.0182 57.8343 16.0766C57.8187 16.135 57.8073 16.1944 57.8002 16.2544Z" fill="#90A08C"/>
<path d="M70.5029 19.4101L70.2531 19.3268C69.9836 19.2624 69.7351 19.1297 69.5317 18.9415C69.3283 18.7533 69.1766 18.5159 69.0914 18.2522C68.9485 17.8902 68.8979 17.4983 68.9441 17.1119C68.9903 16.7255 69.132 16.3566 69.3563 16.0386C69.529 15.8035 69.7586 15.6163 70.0235 15.4943C70.2885 15.3723 70.5801 15.3196 70.8709 15.3411C71.1618 15.3627 71.4424 15.4578 71.6865 15.6175C71.9305 15.7772 72.13 15.9963 72.2662 16.2543C72.4622 16.6271 72.5544 17.0458 72.5331 17.4666C72.5118 17.8873 72.3778 18.2946 72.1451 18.6457C71.922 18.985 71.5785 19.227 71.184 19.3231L70.8737 19.4101H70.5029ZM69.5266 17.4159C69.5073 17.6761 69.5555 17.9368 69.6666 18.1727C69.7417 18.3859 69.8787 18.5717 70.06 18.7065C70.2413 18.8414 70.4588 18.919 70.6845 18.9295C70.9146 18.9469 71.144 18.8886 71.338 18.7636C71.532 18.6387 71.6798 18.4538 71.7591 18.2371C71.9036 17.9399 71.9723 17.6117 71.9591 17.2816C71.9459 16.9514 71.8512 16.6297 71.6835 16.3451C71.5866 16.1803 71.4483 16.0436 71.2824 15.9487C71.1165 15.8538 70.9286 15.8039 70.7375 15.8039C70.5463 15.8039 70.3584 15.8538 70.1925 15.9487C70.0266 16.0436 69.8884 16.1803 69.7915 16.3451C69.5988 16.6678 69.5065 17.0406 69.5266 17.4159Z" fill="#90A08C"/>
<path d="M26.3896 19.4102C26.3347 19.385 26.2778 19.3647 26.2193 19.3496C26.0188 19.3231 25.9809 19.2134 26.0225 19.0318C26.0642 18.8501 26.1058 18.8388 26.2458 18.8804C26.3115 18.8976 26.3786 18.909 26.4463 18.9145C26.529 18.9284 26.6137 18.925 26.695 18.9047C26.7763 18.8844 26.8526 18.8475 26.919 18.7964C26.9854 18.7452 27.0406 18.6809 27.081 18.6075C27.1214 18.534 27.1463 18.453 27.1539 18.3696C27.1843 18.1946 27.1994 18.0174 27.1994 17.8398C27.1994 17.1133 27.1994 16.3868 27.1994 15.6603C27.1994 15.4257 27.1994 15.4219 27.4794 15.4067C27.6799 15.4067 27.7405 15.4749 27.7367 15.6678C27.7367 16.47 27.7367 17.2722 27.7367 18.0706C27.7366 18.2752 27.7034 18.4784 27.6383 18.6723C27.5899 18.8366 27.4983 18.985 27.3733 19.1021C27.2482 19.2192 27.0941 19.3007 26.9269 19.3383C26.855 19.3383 26.7869 19.3875 26.7188 19.4102H26.3896Z" fill="#90A08C"/>
<path d="M34.8882 4.19107C34.8882 2.94993 34.8882 1.70501 34.8882 0.463869C34.8882 0.176287 34.8882 0.161133 35.1833 0.161133C36.0007 0.161133 36.8142 0.161133 37.6315 0.161133C38.2728 0.171806 38.9055 0.30942 39.4933 0.566021C39.8685 0.721706 40.2074 0.953367 40.4887 1.24642C40.7701 1.53946 40.9877 1.88756 41.128 2.26881C41.5426 3.32211 41.572 4.48796 41.2112 5.56087C40.7079 7.05176 39.6068 7.8691 38.0781 8.14912C37.7233 8.21089 37.3635 8.23876 37.0034 8.23236C36.3829 8.23236 35.7661 8.23236 35.1455 8.23236C34.9525 8.23236 34.8806 8.16424 34.8844 7.96747C34.8844 7.50204 34.8844 7.03285 34.8844 6.56363L34.8882 4.19107ZM35.9061 4.19107V7.08204C35.9061 7.21447 35.9061 7.33555 36.0877 7.32798C36.6594 7.35011 37.2319 7.33622 37.8018 7.28636C38.937 7.10851 39.8074 6.54848 40.2122 5.41329C40.3997 4.82206 40.4565 4.1972 40.3787 3.58186C40.3459 3.14047 40.2168 2.71164 40.0003 2.32558C39.804 2.00543 39.5394 1.73259 39.2255 1.52654C38.9115 1.32049 38.5559 1.18631 38.184 1.13362C37.517 1.04353 36.8431 1.01567 36.1709 1.05038C35.9174 1.05038 35.9061 1.05039 35.9061 1.31526V4.19107Z" fill="#90A08C"/>
<path d="M3.27329 3.93405C3.74133 3.99773 4.1751 4.21462 4.50687 4.55084C4.78042 4.84034 4.94837 5.21361 4.98363 5.61035C5.14256 7.19961 4.03765 8.02453 2.92138 8.19859C2.51547 8.24143 2.10693 8.25407 1.69914 8.23642C1.20723 8.23642 0.719091 8.23642 0.230959 8.23642C0.0682476 8.23642 -0.0036423 8.18723 0.000141674 8.01695V0.373316C0.000141674 0.218173 0.0493324 0.153862 0.212043 0.153862C1.02181 0.153862 1.83158 0.127374 2.64135 0.153862C3.02246 0.142043 3.39853 0.24361 3.72187 0.445697C4.04521 0.647785 4.30129 0.941299 4.45767 1.28905C4.64901 1.75333 4.65523 2.27325 4.47506 2.74197C4.2949 3.21069 3.94202 3.59259 3.48898 3.80917L3.27329 3.93405ZM1.0029 5.92063C1.0029 6.3293 1.0029 6.73418 1.0029 7.14285C1.0029 7.27907 1.04831 7.34341 1.1921 7.34341C1.63861 7.34341 2.0889 7.34341 2.5392 7.34341C2.79296 7.34901 3.04367 7.28715 3.26571 7.16417C3.48776 7.04118 3.67316 6.86145 3.80303 6.64336C3.9213 6.45882 3.99261 6.24815 4.01075 6.02971C4.02889 5.81128 3.99333 5.59174 3.90712 5.39022C3.82092 5.1887 3.68671 5.01133 3.51621 4.8736C3.34571 4.73586 3.14407 4.64195 2.92893 4.60003C2.33836 4.4962 1.73767 4.4619 1.13912 4.49786C0.991546 4.49786 0.980201 4.59245 0.980201 4.70597L1.0029 5.92063ZM1.0029 2.32965C1.0029 2.68156 1.0029 3.03725 1.0029 3.38915C1.0029 3.567 1.07481 3.63133 1.24508 3.62376C1.41536 3.61619 1.68023 3.62376 1.8997 3.62376C2.27458 3.62538 2.64437 3.53715 2.97813 3.36645C3.20992 3.22049 3.39126 3.0068 3.49752 2.75433C3.60379 2.50186 3.62986 2.22283 3.57221 1.95504C3.5327 1.72801 3.41787 1.52089 3.24624 1.36712C3.07462 1.21334 2.85621 1.12185 2.62622 1.10741C2.14003 1.0538 1.65028 1.03989 1.16182 1.06579C1.01425 1.06579 1.00669 1.16417 1.00669 1.2739L1.0029 2.32965Z" fill="#90A08C"/>
<path d="M71.3618 4.18729V0.437379C71.3618 0.168716 71.3618 0.161133 71.6343 0.161133C72.463 0.161133 73.2954 0.161133 74.1241 0.161133C74.8693 0.171051 75.6007 0.363344 76.2545 0.721177C76.8831 1.06264 77.3629 1.62474 77.6016 2.29909C78.0377 3.43593 78.0283 4.69559 77.5751 5.82575C77.3237 6.44757 76.9104 6.99067 76.378 7.39861C75.8456 7.80654 75.2137 8.06439 74.5479 8.14533C74.1933 8.20837 73.8334 8.23751 73.4733 8.23236H71.6569C71.3467 8.23236 71.3467 8.23236 71.3467 7.92964L71.3618 4.18729ZM72.3494 4.18729V7.07825C72.3494 7.2069 72.3494 7.33176 72.5273 7.32419C73.1053 7.34441 73.684 7.33052 74.2603 7.28257C74.7429 7.23998 75.206 7.07243 75.6042 6.79641C76.0023 6.52039 76.3216 6.14543 76.5307 5.70845C76.8362 5.00792 76.9373 4.23521 76.8221 3.47968C76.7829 2.91454 76.5561 2.37867 76.1777 1.95709C75.7993 1.5355 75.291 1.25234 74.7333 1.15253C74.026 1.04539 73.3098 1.0099 72.5954 1.04659C72.3456 1.04659 72.3381 1.0466 72.3381 1.31148L72.3494 4.18729Z" fill="#90A08C"/>
<path d="M49.3012 4.19107V0.437379C49.3012 0.1725 49.3011 0.161133 49.5736 0.161133C50.3909 0.161133 51.2083 0.161133 52.0256 0.161133C52.7226 0.171182 53.4088 0.335298 54.0349 0.641705C54.4166 0.826683 54.7541 1.09125 55.025 1.4176C55.2959 1.74395 55.4937 2.1245 55.6052 2.53369C55.8878 3.42689 55.9128 4.38171 55.6771 5.28844C55.242 6.93068 54.1181 7.84639 52.4683 8.15667C52.1199 8.21849 51.7664 8.24638 51.4126 8.23993C50.792 8.23993 50.1752 8.23993 49.5546 8.23993C49.3579 8.23993 49.2974 8.17182 49.2974 7.97884C49.3049 6.71877 49.3012 5.45492 49.3012 4.19107ZM50.285 4.19107V7.10474C50.285 7.22583 50.285 7.34691 50.4514 7.34313C51.1174 7.38044 51.7854 7.35127 52.4456 7.25608C53.1288 7.13461 53.7432 6.76546 54.1711 6.21928C54.7955 5.39816 54.8485 4.45217 54.7463 3.47969C54.7075 3.07757 54.5781 2.68947 54.3679 2.34449C54.1694 2.03003 53.9054 1.76211 53.5939 1.55901C53.2824 1.35592 52.9307 1.22244 52.5629 1.16768C51.8891 1.08387 51.2095 1.05475 50.5309 1.08064C50.3342 1.08064 50.2736 1.14498 50.2736 1.33797C50.2887 2.27261 50.285 3.22994 50.285 4.18729V4.19107Z" fill="#90A08C"/>
<path d="M20.5923 4.20619V0.422219C20.5923 0.153557 20.5923 0.145996 20.8647 0.145996C21.6707 0.145996 22.4729 0.145996 23.2751 0.145996C23.7834 0.148489 24.2788 0.306994 24.6941 0.600078C24.9391 0.774544 25.1391 1.00491 25.2773 1.27209C25.4155 1.53927 25.4879 1.83557 25.4887 2.13637C25.542 2.63211 25.4197 3.13083 25.1431 3.54568C24.8666 3.96054 24.4532 4.26525 23.9751 4.40675C23.9259 4.40675 23.8541 4.40676 23.8427 4.48244C23.8314 4.55812 23.9108 4.57326 23.9562 4.60353C24.3759 4.94129 24.7189 5.36433 24.9627 5.84466C25.4168 6.55605 25.8558 7.27499 26.3023 7.99017C26.3363 8.04314 26.4044 8.09991 26.3742 8.16802C26.3439 8.23614 26.2418 8.22101 26.1699 8.22101H25.4547C25.3979 8.22574 25.3411 8.21305 25.2918 8.18465C25.2424 8.15626 25.2029 8.1135 25.1785 8.06206L23.8427 5.85979C23.6934 5.59978 23.5074 5.36273 23.2903 5.15597C23.0414 4.93974 22.7231 4.8202 22.3935 4.81919C22.2005 4.81919 22.0151 4.81919 21.8221 4.81919C21.6291 4.81919 21.5837 4.88731 21.5837 5.06137C21.5837 5.79925 21.5837 6.54091 21.5837 7.28256C21.5837 7.53231 21.5837 7.78583 21.5837 8.03936C21.5837 8.18315 21.5307 8.25126 21.3793 8.24747C21.228 8.24369 21.001 8.24747 20.8269 8.24747C20.6528 8.24747 20.5961 8.1756 20.5961 8.00532C20.5961 7.24852 20.5961 6.49173 20.5961 5.73493L20.5923 4.20619ZM21.5723 2.48449C21.5723 2.86289 21.5723 3.27155 21.5723 3.66509C21.5723 3.86564 21.6404 3.92617 21.8334 3.91861C22.1664 3.91861 22.4994 3.91861 22.8324 3.91861C23.0915 3.92354 23.3489 3.87591 23.5892 3.7786C23.8767 3.65184 24.1165 3.43681 24.2736 3.16468C24.4308 2.89254 24.4972 2.57743 24.4633 2.26501C24.4508 1.9654 24.328 1.681 24.1184 1.46653C23.9088 1.25206 23.6273 1.12271 23.3281 1.10335C22.7861 1.05101 22.241 1.03835 21.6972 1.0655C21.561 1.0655 21.5572 1.16389 21.5572 1.26606C21.5723 1.67095 21.5723 2.07582 21.5723 2.48449Z" fill="#90A08C"/>
<path d="M99.0985 4.19865V7.94856C99.0985 8.23236 99.0985 8.23615 98.8147 8.23993C98.6595 8.23993 98.5006 8.23993 98.3455 8.23993C98.1903 8.23993 98.1071 8.17939 98.1071 8.00154C98.1071 7.24474 98.1071 6.46524 98.1071 5.70088V4.84191C98.1071 4.58838 98.1071 4.57326 97.8422 4.57326H94.2247C94.0279 4.57326 93.9636 4.64137 93.9636 4.83435C93.9636 5.86738 93.9636 6.9004 93.9636 7.93343C93.9636 8.23993 93.9636 8.24372 93.6609 8.24372H93.169C93.0441 8.24372 92.9798 8.18316 92.9836 8.05828C92.9836 8.00152 92.9836 7.94855 92.9836 7.89558V0.490337C92.9836 0.161131 92.9836 0.161133 93.3279 0.161133H93.7971C93.9333 0.161133 93.9825 0.206544 93.9825 0.354119C93.9825 1.39471 93.9825 2.4353 93.9825 3.47211C93.9825 3.62347 94.0469 3.67646 94.1907 3.67646H97.9254C98.1109 3.67646 98.1411 3.58942 98.1373 3.43428V0.460082C98.1373 0.164932 98.1373 0.161133 98.4325 0.161133C98.5801 0.161133 98.7314 0.161133 98.879 0.161133C99.0266 0.161133 99.1287 0.229257 99.1249 0.410888C99.1249 1.45905 99.1249 2.50342 99.1249 3.55158L99.0985 4.19865Z" fill="#90A08C"/>
<path d="M18.5112 4.22121V7.9522C18.5112 8.23222 18.5112 8.236 18.2236 8.23979C18.0761 8.23979 17.9247 8.23979 17.7771 8.23979C17.6295 8.23979 17.5236 8.17166 17.5236 7.99003C17.5236 7.17269 17.5236 6.35915 17.5236 5.54181C17.5236 5.2845 17.5236 5.02719 17.5236 4.78502C17.5236 4.6488 17.4744 4.58446 17.3344 4.58446H13.5958C13.4028 4.58446 13.3991 4.69421 13.3991 4.838V7.95599C13.3991 8.25114 13.3991 8.25492 13.1039 8.25492H12.6158C12.4796 8.25492 12.4076 8.20572 12.4152 8.06193C12.4152 8.02409 12.4152 7.98246 12.4152 7.94084V0.467492C12.4152 0.16099 12.4152 0.160991 12.7217 0.160991C12.8731 0.160991 13.0244 0.160991 13.172 0.160991C13.3196 0.160991 13.4028 0.217765 13.4028 0.388043C13.4028 0.766441 13.4028 1.14484 13.4028 1.52324C13.4028 2.15516 13.4028 2.78708 13.4028 3.41522C13.4028 3.59307 13.4482 3.67253 13.645 3.67253C14.8634 3.67253 16.0819 3.67253 17.3003 3.67253C17.4782 3.67253 17.5349 3.60441 17.5349 3.43035C17.5349 2.43138 17.5349 1.43242 17.5349 0.433449C17.5349 0.164787 17.535 0.157227 17.8074 0.157227H18.235C18.5112 0.157227 18.5188 0.157211 18.5188 0.448577V4.23255L18.5112 4.22121Z" fill="#90A08C"/>
<path d="M69.2845 4.19851V7.94841C69.2845 8.23221 69.2845 8.236 69.0007 8.23979C68.8494 8.23979 68.7018 8.23979 68.5505 8.23979C68.3991 8.23979 68.2969 8.17545 68.3007 7.99003C68.3007 7.30513 68.3007 6.62023 68.3007 5.93155C68.3007 5.55315 68.3007 5.17476 68.3007 4.79636C68.3007 4.62608 68.2515 4.5542 68.0699 4.5542H64.4146C64.2216 4.5542 64.1686 4.63366 64.1724 4.81151C64.1724 5.84832 64.1724 6.88891 64.1724 7.9295C64.1724 8.22087 64.1724 8.22464 63.8773 8.22464H63.3853C63.2491 8.22464 63.181 8.17547 63.1886 8.03167V0.463727C63.1886 0.157226 63.1886 0.157227 63.4913 0.157227C63.6427 0.157227 63.7902 0.157227 63.9416 0.157227C64.0929 0.157227 64.1762 0.225321 64.1762 0.399383C64.1762 1.29997 64.1762 2.20435 64.1762 3.10872C64.1762 3.67253 64.1762 3.67253 64.7324 3.67253H67.9791C68.3007 3.67253 68.3007 3.67253 68.3007 3.36224V0.448577C68.3007 0.176131 68.3007 0.160991 68.5959 0.160991H69.0235C69.2694 0.160991 69.2845 0.160999 69.2845 0.429662V4.21363V4.19851Z" fill="#90A08C"/>
<path d="M79.0663 8.23977C78.5025 8.23977 78.5025 8.23976 78.6879 7.71379L81.4578 0.501537C81.5865 0.157196 81.5903 0.16097 81.9497 0.16097H82.4416C82.4923 0.158228 82.5425 0.172869 82.5838 0.20245C82.625 0.232031 82.655 0.27478 82.6687 0.323678C83.4255 2.27621 84.1823 4.22875 84.939 6.18129L85.6353 7.98623C85.7224 8.20948 85.7034 8.23977 85.4764 8.24356C85.2494 8.24734 85.0677 8.24356 84.8634 8.24356C84.7961 8.25288 84.7277 8.23668 84.6717 8.19817C84.6157 8.15967 84.5761 8.10162 84.5607 8.03542C84.3374 7.42998 84.099 6.82834 83.8796 6.2229C83.8632 6.15065 83.8202 6.0872 83.7592 6.04514C83.6982 6.00308 83.6237 5.9855 83.5504 5.99587H80.6329C80.5629 5.98463 80.4912 6.00074 80.4327 6.04089C80.3743 6.08104 80.3335 6.14217 80.3188 6.21156C80.1296 6.77159 79.9404 7.34675 79.7285 7.88407C79.5999 8.24355 79.6037 8.24356 79.229 8.24356L79.0663 8.23977ZM82.0935 1.31131C82.0367 1.47402 82.0027 1.59133 81.9611 1.68971C81.5827 2.73787 81.2043 3.78224 80.8259 4.82662C80.7388 5.06501 80.754 5.08392 81.0038 5.08392H83.206C83.452 5.08392 83.4557 5.08392 83.3725 4.84553C83.1038 4.11901 82.8352 3.39627 82.5703 2.66975C82.4113 2.22702 82.2335 1.8108 82.1162 1.31131H82.0935Z" fill="#90A08C"/>
<path d="M33.2043 8.23993C32.5723 8.23993 32.7275 8.33074 32.4967 7.74423C32.2923 7.22582 32.1183 6.70363 31.9064 6.18144C31.8913 6.12244 31.8554 6.07085 31.8054 6.0361C31.7553 6.00136 31.6945 5.9858 31.6339 5.99225H28.6332C28.5761 5.98589 28.5186 6.00038 28.4713 6.03306C28.424 6.06574 28.3901 6.1144 28.3759 6.17008C28.1716 6.76038 27.9521 7.34689 27.7515 7.94098C27.6796 8.15666 27.5737 8.2702 27.3277 8.24371C27.1375 8.23046 26.9466 8.23046 26.7563 8.24371C26.5861 8.24371 26.5596 8.18694 26.6163 8.03558C26.8964 7.32797 27.165 6.61659 27.4375 5.9052C28.1363 4.08385 28.8338 2.26376 29.53 0.444927C29.6057 0.24816 29.7003 0.134641 29.9084 0.161129C30.0645 0.176269 30.2216 0.176269 30.3776 0.161129C30.4185 0.150565 30.461 0.148557 30.5027 0.155193C30.5443 0.16183 30.5841 0.176968 30.6196 0.199699C30.6551 0.222429 30.6856 0.252243 30.7091 0.287277C30.7325 0.32231 30.7485 0.361815 30.756 0.403309C31.2101 1.59904 31.6718 2.78722 32.1334 3.97917L33.647 7.91451C33.647 7.941 33.647 7.96747 33.6772 7.99017C33.7529 8.21721 33.7416 8.23993 33.507 8.24371L33.2043 8.23993ZM30.1392 1.29256C30.0825 1.47419 30.0409 1.61797 29.9917 1.75798C29.6133 2.80235 29.2349 3.8505 28.8565 4.8911C28.7921 5.06516 28.8338 5.10302 29.0041 5.09923H31.2744C31.5053 5.09923 31.5128 5.09922 31.4334 4.86839C31.2101 4.25917 30.9831 3.64997 30.7598 3.03696C30.5238 2.46627 30.3167 1.88407 30.1392 1.29256Z" fill="#90A08C"/>
<path d="M6.58423 4.19486V0.463869C6.58423 0.176287 6.58422 0.161133 6.87937 0.161133H10.4741C10.7315 0.161133 10.7466 0.161134 10.7428 0.422228C10.7428 1.17902 10.8488 1.05036 10.1109 1.05793C9.37302 1.0655 8.5973 1.05793 7.86321 1.05793C7.60969 1.05793 7.59833 1.05794 7.59833 1.3266V3.404C7.59833 3.66131 7.59834 3.67267 7.86321 3.67267H10.2093C10.4855 3.67267 10.5006 3.67268 10.5006 3.96026C10.5006 4.57326 10.5006 4.57326 9.90655 4.57326C9.21786 4.57326 8.53296 4.57326 7.84427 4.57326C7.65886 4.57326 7.59454 4.63379 7.59454 4.8192C7.59454 5.576 7.59454 6.33279 7.59454 7.08959C7.59454 7.28257 7.66265 7.33934 7.84806 7.33556H10.6444C10.9017 7.33556 10.9093 7.33556 10.9131 7.59665C10.9131 8.23236 10.9131 8.23236 10.2812 8.23236H6.90964C6.58801 8.23236 6.58423 8.23235 6.58423 7.89558V4.19486Z" fill="#90A08C"/>
<path d="M57.3538 4.19486V0.486572C57.3538 0.168718 57.3537 0.161133 57.6716 0.161133H61.221C61.4972 0.161133 61.5161 0.161133 61.5161 0.444931C61.5161 1.15632 61.6069 1.05415 60.9182 1.05793H58.61C58.3451 1.05793 58.3376 1.05795 58.3376 1.33797V3.39645C58.3376 3.66511 58.3376 3.67267 58.61 3.67267H60.9788C61.255 3.67267 61.2702 3.67268 61.274 3.96026C61.274 4.57326 61.274 4.57326 60.6609 4.57326C59.9723 4.57326 59.2873 4.57326 58.5987 4.57326C58.4057 4.57326 58.3338 4.6338 58.3338 4.83057C58.3338 5.58736 58.3338 6.34416 58.3338 7.10095C58.3338 7.29772 58.4132 7.35825 58.6024 7.35447H61.3988C61.6788 7.35447 61.6826 7.35447 61.6826 7.63827C61.6826 8.25127 61.6826 8.25127 61.0696 8.25127H57.7019C57.3575 8.25127 57.3538 8.25129 57.3538 7.91451V4.19486Z" fill="#90A08C"/>
<path d="M88.5485 8.36483C87.9451 8.3782 87.3449 8.2741 86.7813 8.05833C86.4824 7.95238 86.4749 7.9259 86.4749 7.61562V6.9837C86.4749 6.84748 86.5165 6.78314 86.6565 6.87774C87.2478 7.26154 87.9345 7.47255 88.6393 7.48697C88.96 7.50658 89.2814 7.46286 89.5853 7.35831C89.7844 7.29886 89.9635 7.18587 90.1028 7.03164C90.2422 6.87742 90.3366 6.68789 90.3756 6.48373C90.4146 6.27957 90.3968 6.06862 90.3242 5.87387C90.2516 5.67911 90.1269 5.50804 89.9637 5.3793C89.6107 5.09023 89.2214 4.84852 88.8058 4.66033C88.3122 4.42964 87.8377 4.16013 87.3868 3.85434C87.0369 3.63123 86.7665 3.30322 86.6143 2.9172C86.4621 2.53118 86.4358 2.10692 86.5392 1.70505C86.6354 1.24315 86.9066 0.836384 87.2959 0.569859C87.7836 0.227465 88.3615 0.036597 88.9571 0.0211779C89.5737 -0.034764 90.1953 0.0203429 90.7924 0.183886C90.8355 0.189743 90.8769 0.204389 90.9141 0.226913C90.9514 0.249437 90.9836 0.279365 91.0087 0.314838C91.0339 0.35031 91.0516 0.390569 91.0606 0.433133C91.0696 0.475697 91.0697 0.519655 91.061 0.562283C91.061 0.766618 91.061 0.970951 91.061 1.17529C91.061 1.37962 91.0345 1.39855 90.8567 1.30016C90.1508 0.914576 89.3272 0.804036 88.5447 0.989874C88.3229 1.0154 88.1127 1.10272 87.938 1.24187C87.7634 1.38102 87.6314 1.56642 87.5571 1.77695C87.4846 2.02025 87.493 2.28051 87.581 2.51864C87.669 2.75676 87.8319 2.95989 88.0452 3.09755C88.3947 3.33309 88.7629 3.53939 89.1463 3.71434C89.7693 3.99606 90.341 4.37972 90.8378 4.84953C91.055 5.07305 91.2168 5.34438 91.3102 5.64176C91.4036 5.93913 91.426 6.25426 91.3756 6.56186C91.3252 6.86945 91.2034 7.16095 91.02 7.41295C90.8365 7.66496 90.5966 7.87043 90.3194 8.01293C89.7679 8.27678 89.1589 8.39778 88.5485 8.36483Z" fill="#90A08C"/>
<path d="M103.635 4.66065V7.96029C103.635 8.22895 103.636 8.23651 103.363 8.2403C103.2 8.2403 103.034 8.2403 102.871 8.2403C102.708 8.2403 102.644 8.17219 102.648 8.00948C102.652 7.84677 102.648 7.57431 102.648 7.35862V1.36859C102.648 1.06209 102.648 1.0583 102.345 1.0583C101.751 1.0583 101.161 1.0583 100.57 1.0583C100.385 1.0583 100.309 0.990198 100.317 0.808568C100.325 0.626937 100.317 0.483151 100.317 0.316656C100.314 0.294477 100.317 0.271973 100.324 0.250949C100.332 0.229925 100.344 0.210966 100.36 0.195543C100.377 0.180119 100.396 0.168663 100.417 0.1621C100.439 0.155538 100.461 0.15405 100.483 0.157735H105.667C105.947 0.157735 105.955 0.157732 105.955 0.437746V0.763162C105.955 1.05453 105.955 1.05454 105.652 1.05454H103.961C103.628 1.05454 103.628 1.05452 103.628 1.39508L103.635 4.66065Z" fill="#90A08C"/>
<path d="M33.4124 16.258C33.3292 16.5873 33.2497 16.9127 33.1627 17.2381C33 17.8473 32.8221 18.4565 32.667 19.0695C32.6102 19.289 32.4853 19.3306 32.2886 19.3306C32.0918 19.3306 32.0199 19.2436 31.9745 19.0658C31.6945 17.9306 31.4069 16.7954 31.1269 15.6867C31.1042 15.5996 30.9907 15.471 31.1723 15.418C31.3539 15.365 31.6226 15.418 31.6605 15.5656C31.7324 15.8418 31.7967 16.1218 31.861 16.3981C32.0161 17.083 32.1675 17.7641 32.3227 18.4452C32.331 18.4635 32.3425 18.4802 32.3567 18.4944C32.421 18.4338 32.4097 18.3544 32.4286 18.2863C32.6594 17.4046 32.8978 16.5267 33.1135 15.6375C33.1778 15.3726 33.3519 15.418 33.5335 15.4067C33.7151 15.3953 33.7681 15.5088 33.8022 15.6602C34.0065 16.5608 34.2487 17.4538 34.4227 18.3619C34.4227 18.3998 34.4228 18.4376 34.4568 18.4982C34.5439 18.4187 34.5211 18.3241 34.5439 18.2484C34.7709 17.3605 34.9992 16.4775 35.2287 15.5996C35.2888 15.5152 35.3765 15.4542 35.4766 15.4273C35.5767 15.4004 35.6831 15.4091 35.7774 15.4521C35.8191 15.4937 35.8001 15.5429 35.7774 15.5845C35.4444 16.7689 35.1039 17.9495 34.7747 19.1339C34.7141 19.3571 34.5552 19.3306 34.3963 19.3382C34.363 19.3441 34.3288 19.343 34.296 19.3349C34.2632 19.3269 34.2325 19.312 34.2057 19.2913C34.179 19.2707 34.1569 19.2446 34.1408 19.2149C34.1248 19.1852 34.1151 19.1524 34.1125 19.1187C33.9081 18.203 33.6546 17.2986 33.473 16.3791C33.4578 16.3337 33.473 16.2845 33.4124 16.258Z" fill="#90A08C"/>
<path d="M75.8498 17.3857C75.8498 16.8218 75.8498 16.2505 75.8498 15.6942C75.8498 15.5239 75.9066 15.4483 76.0769 15.4293C76.6225 15.3492 77.1778 15.362 77.7192 15.4672C78.046 15.5291 78.3456 15.6907 78.5766 15.93C78.8077 16.1692 78.959 16.4742 79.0095 16.8029C79.1086 17.2644 79.0691 17.7449 78.896 18.1841C78.5895 18.9409 77.9613 19.2398 77.2007 19.3193C76.8227 19.3426 76.4436 19.3426 76.0656 19.3193C75.9028 19.3193 75.8347 19.2511 75.8385 19.0847C75.8537 18.5246 75.8498 17.957 75.8498 17.3857ZM76.3834 17.3857C76.3834 17.8132 76.3834 18.2408 76.3834 18.6722C76.3834 18.816 76.425 18.8841 76.584 18.9106C76.7863 18.9352 76.9908 18.9352 77.1932 18.9106C77.4993 18.8925 77.7899 18.7698 78.0164 18.5632C78.243 18.3566 78.3919 18.0785 78.4381 17.7754C78.4816 17.5136 78.4816 17.2464 78.4381 16.9846C78.4204 16.7694 78.344 16.5631 78.2172 16.3883C78.0905 16.2135 77.9182 16.0769 77.7192 15.9932C77.3738 15.8646 77.0039 15.8155 76.6369 15.8494C76.444 15.8494 76.3569 15.9288 76.3607 16.1332C76.391 16.5305 76.3834 16.9505 76.3834 17.3629V17.3857Z" fill="#90A08C"/>
<path d="M68.4596 18.2144V18.9485C68.4596 19.0469 68.4596 19.1377 68.3309 19.1755C67.7326 19.3975 67.0791 19.4227 66.4654 19.2474C66.1464 19.152 65.8624 18.9648 65.6491 18.7091C65.4358 18.4534 65.3025 18.1405 65.2659 17.8095C65.1717 17.4258 65.1961 17.0225 65.336 16.6529C65.4758 16.2833 65.7246 15.9649 66.0492 15.7397C66.3607 15.5408 66.7131 15.4151 67.0801 15.3718C67.447 15.3286 67.8191 15.3689 68.1682 15.4899C68.3991 15.5505 68.278 15.7056 68.2553 15.8343C68.2326 15.9629 68.1493 15.9781 68.0282 15.9364C67.692 15.8183 67.3311 15.7884 66.9801 15.8494C66.7044 15.8898 66.4484 16.0162 66.2487 16.2105C66.0489 16.4048 65.9156 16.6571 65.8676 16.9316C65.7856 17.2141 65.7824 17.5136 65.8584 17.7978C65.9345 18.0819 66.0868 18.3398 66.2989 18.5436C66.3651 18.6028 66.4374 18.6548 66.5146 18.6987C66.9053 18.8823 67.3456 18.9315 67.7671 18.8388C67.793 18.8385 67.8186 18.8327 67.8421 18.8217C67.8656 18.8107 67.8865 18.7948 67.9034 18.7751C67.9202 18.7554 67.9326 18.7323 67.9398 18.7074C67.947 18.6825 67.9488 18.6563 67.945 18.6306V17.8738C67.945 17.7414 67.8807 17.6922 67.7558 17.696H67.3471C67.1995 17.696 67.1655 17.6165 67.1655 17.4879C67.1655 17.3592 67.1655 17.2457 67.3357 17.2457H68.2969C68.4255 17.2457 68.4785 17.3176 68.4785 17.4387C68.4785 17.696 68.4785 17.9571 68.4785 18.1955L68.4596 18.2144Z" fill="#90A08C"/>
<path d="M49.0706 17.4539C49.2236 17.5519 49.3527 17.6831 49.4483 17.8376C49.5439 17.9922 49.6037 18.1662 49.6231 18.3469C49.6874 18.6118 49.7555 18.8729 49.8349 19.134C49.8728 19.2664 49.835 19.3194 49.7025 19.327C49.3506 19.327 49.3241 19.327 49.2295 19.0015C49.1614 18.7556 49.1122 18.502 49.0441 18.2447C49.0222 18.1316 48.9759 18.0246 48.9085 17.9311C48.8411 17.8376 48.7541 17.7599 48.6537 17.7034C48.5533 17.6469 48.4417 17.6129 48.3268 17.6038C48.212 17.5947 48.0965 17.6107 47.9884 17.6507C47.8673 17.6847 47.8749 17.7755 47.8749 17.8626C47.8749 18.241 47.8749 18.661 47.8749 19.0621C47.8749 19.2588 47.7992 19.3232 47.61 19.3232C47.4208 19.3232 47.3337 19.2815 47.3337 19.0734C47.3337 17.9382 47.3337 16.803 47.3337 15.6679C47.3337 15.5506 47.3338 15.4446 47.4889 15.4295C47.9703 15.3386 48.4644 15.3386 48.9457 15.4295C49.1523 15.4666 49.3414 15.5696 49.4846 15.7231C49.6278 15.8765 49.7175 16.0722 49.7403 16.2809C49.7737 16.4983 49.7371 16.7207 49.6358 16.9159C49.5344 17.1111 49.3736 17.2691 49.1765 17.3669L49.0706 17.4539ZM47.8749 16.5647C47.9051 16.7349 47.7689 17.0301 47.9354 17.1587C48.1019 17.2874 48.4197 17.2344 48.6619 17.1587C48.8215 17.1306 48.9656 17.0459 49.0678 16.92C49.17 16.7942 49.2234 16.6358 49.2182 16.4738C49.2194 16.3047 49.155 16.1416 49.0386 16.0189C48.9222 15.8962 48.7628 15.8232 48.5938 15.8154C48.4111 15.8041 48.2278 15.8041 48.0451 15.8154C47.924 15.8154 47.8749 15.8835 47.8749 15.9971C47.8787 16.1787 47.8749 16.349 47.8749 16.5647Z" fill="#90A08C"/>
<path d="M44.4881 17.3629C44.4881 16.7916 44.4881 16.2277 44.4881 15.6526C44.4881 15.4709 44.5486 15.3953 44.734 15.3991C45.294 15.3991 45.8692 15.3991 46.4103 15.3991C46.5692 15.3991 46.6449 15.452 46.6487 15.6223C46.6525 15.7926 46.573 15.8607 46.4027 15.8569C46.0244 15.8569 45.646 15.8569 45.2676 15.8569C45.1011 15.8569 45.0367 15.9175 45.0405 16.084C45.0405 16.3337 45.0405 16.5872 45.0405 16.8408C45.0405 16.9921 45.101 17.0451 45.2486 17.0451C45.6005 17.0451 45.9562 17.0451 46.3081 17.0451C46.4633 17.0451 46.5541 17.0829 46.5541 17.2608C46.5541 17.4386 46.4822 17.5029 46.3081 17.4992C45.9638 17.4992 45.6157 17.4992 45.2676 17.4992C45.1048 17.4992 45.033 17.5521 45.0367 17.7224C45.0367 18.0214 45.0367 18.3203 45.0367 18.6192C45.0367 18.7857 45.0935 18.85 45.26 18.8463C45.6611 18.8463 46.066 18.8463 46.4671 18.8463C46.6525 18.8463 46.7168 18.9219 46.713 19.1036C46.7092 19.2852 46.6336 19.3382 46.4633 19.3344C45.8806 19.3344 45.2941 19.3344 44.7075 19.3344C44.5335 19.3344 44.4654 19.2701 44.4691 19.096C44.4918 18.5171 44.4881 17.9457 44.4881 17.3629Z" fill="#90A08C"/>
<path d="M28.5159 17.3632C28.5159 16.7994 28.5159 16.228 28.5159 15.6717C28.5159 15.4863 28.5651 15.4031 28.7694 15.4069C29.3181 15.4069 29.8705 15.4069 30.4192 15.4069C30.5857 15.4069 30.65 15.4636 30.65 15.6301C30.65 15.7966 30.6009 15.8685 30.4268 15.8647C30.0484 15.8647 29.67 15.8647 29.2916 15.8647C29.1289 15.8647 29.0532 15.9177 29.0608 16.088C29.0608 16.3415 29.0608 16.5912 29.0608 16.8448C29.0608 16.9923 29.1137 17.0529 29.2651 17.0529C29.6435 17.0529 29.9841 17.0529 30.3436 17.0529C30.5101 17.0529 30.5782 17.1059 30.5782 17.2761C30.5782 17.4464 30.5252 17.5107 30.3511 17.507C29.9992 17.507 29.6435 17.507 29.2916 17.507C29.1289 17.507 29.057 17.5637 29.0608 17.734C29.0608 18.0405 29.0608 18.347 29.0608 18.6497C29.0608 18.7973 29.1175 18.8578 29.2651 18.8541C29.6738 18.8541 30.0824 18.8541 30.4911 18.8541C30.6727 18.8541 30.7409 18.9108 30.7446 19.1C30.7484 19.2892 30.6652 19.346 30.4874 19.3422C29.9235 19.3422 29.3521 19.3422 28.7921 19.3422C28.5499 19.3422 28.5272 19.3195 28.5272 19.0697L28.5159 17.3632Z" fill="#90A08C"/>
<path d="M36.2732 17.3631C36.2732 16.7992 36.2732 16.2279 36.2732 15.6716C36.2732 15.4862 36.3338 15.4219 36.5192 15.4219C37.0717 15.4219 37.6204 15.4219 38.1728 15.4219C38.3355 15.4219 38.4036 15.4711 38.4036 15.6414C38.4036 15.8116 38.3431 15.8835 38.1652 15.8797C37.7868 15.8797 37.4084 15.8797 37.03 15.8797C36.8749 15.8797 36.8106 15.9327 36.8144 16.0916C36.8144 16.3452 36.8144 16.5949 36.8144 16.8484C36.8144 17.0036 36.8711 17.0679 37.03 17.0641C37.3365 17.0641 37.6431 17.0641 37.9458 17.0641C38.2485 17.0641 38.3242 17.083 38.3242 17.2874C38.3242 17.4917 38.2901 17.5182 37.9458 17.5182C37.6014 17.5182 37.3328 17.5182 37.0263 17.5182C36.8598 17.5182 36.7992 17.5787 36.803 17.7452C36.803 18.0429 36.803 18.3418 36.803 18.642C36.803 18.8123 36.8673 18.8691 37.0338 18.8653C37.4349 18.8653 37.8361 18.8653 38.2372 18.8653C38.4226 18.8653 38.4869 18.9372 38.4869 19.1188C38.4869 19.3005 38.4037 19.3572 38.2372 19.3534C37.6658 19.3534 37.102 19.3534 36.523 19.3534C36.3225 19.3534 36.2657 19.2702 36.2695 19.0848C36.277 18.4982 36.2732 17.9193 36.2732 17.3631Z" fill="#90A08C"/>
<path d="M51.2235 18.3282C51.3672 17.8363 51.0721 17.3671 50.7921 16.8865C50.5121 16.4059 50.3153 16.0162 50.0731 15.5848C50.0012 15.4599 50.0353 15.4183 50.1715 15.4108C50.5499 15.3843 50.5991 15.4107 50.777 15.7437C50.9889 16.1675 51.2008 16.5951 51.4164 17.0189C51.4429 17.0719 51.4429 17.1589 51.5148 17.1627C51.5867 17.1665 51.5943 17.0795 51.6208 17.0303L52.3511 15.6151C52.4228 15.5207 52.5227 15.4516 52.6363 15.4176C52.7498 15.3836 52.8712 15.3865 52.983 15.4259C53.0776 15.4864 52.983 15.547 52.983 15.5962C52.7333 16.0313 52.476 16.4665 52.2262 16.8979C52.2091 16.9349 52.1889 16.9703 52.1657 17.0038C52.0041 17.2177 51.8873 17.462 51.8223 17.722C51.7573 17.9821 51.7454 18.2526 51.7873 18.5174C51.7873 18.7255 51.7873 18.9374 51.7873 19.1493C51.7873 19.3612 51.6435 19.3423 51.5073 19.3461C51.371 19.3499 51.2462 19.3461 51.25 19.1455C51.2538 18.945 51.2235 18.6612 51.2235 18.3282Z" fill="#90A08C"/>
<path d="M39.092 17.363C39.092 16.7955 39.092 16.2278 39.092 15.6527C39.092 15.4446 39.1828 15.4067 39.3645 15.4067C39.5461 15.4067 39.6331 15.4559 39.6331 15.6565C39.6331 16.61 39.6331 17.5485 39.6331 18.5096C39.6331 18.8426 39.6331 18.8426 39.9737 18.8426C40.3142 18.8426 40.7078 18.8426 41.0748 18.8426C41.2603 18.8426 41.3057 18.9296 41.3057 19.0961C41.3057 19.2626 41.2527 19.3307 41.0824 19.3307C40.4959 19.3307 39.9132 19.3307 39.3266 19.3307C39.1602 19.3307 39.0958 19.2664 39.0958 19.0999C39.0958 18.521 39.092 17.942 39.092 17.363Z" fill="#90A08C"/>
<path d="M41.7902 17.3633V15.7324C41.7902 15.4221 41.7902 15.4146 42.0626 15.4146C42.335 15.4146 42.3237 15.4146 42.3237 15.7248C42.3237 16.6708 42.3237 17.6168 42.3237 18.5553C42.3237 18.8428 42.3237 18.8466 42.6037 18.8466H43.7654C43.9357 18.8466 43.9924 18.9185 43.9924 19.0812C43.9924 19.2439 43.947 19.3348 43.7616 19.331C43.1789 19.331 42.5924 19.331 42.0058 19.331C41.8356 19.331 41.7826 19.2553 41.7826 19.0964C41.7939 18.4985 41.7902 17.9385 41.7902 17.3633Z" fill="#90A08C"/>
<path d="M73.1177 17.3631V15.7511C73.1177 15.4294 73.1177 15.4219 73.3826 15.4219C73.6475 15.4219 73.6551 15.4219 73.6551 15.7435V18.4982C73.6551 18.8388 73.6551 18.8388 73.9881 18.8388C74.321 18.8388 74.7222 18.8388 75.0892 18.8388C75.2708 18.8388 75.3276 18.9145 75.3276 19.0848C75.3276 19.255 75.2633 19.3307 75.0892 19.3269C74.5115 19.3269 73.9325 19.3269 73.3523 19.3269C73.1745 19.3269 73.1139 19.2512 73.1177 19.081C73.1215 18.4982 73.1177 17.9269 73.1177 17.3631Z" fill="#90A08C"/>
</svg>
