<svg width="211" height="123" viewBox="0 0 211 123" fill="none" xmlns="http://www.w3.org/2000/svg">
<path d="M0 105.08V88.8081H4.65608C5.85873 88.7434 7.0449 89.1109 8.00069 89.8437C8.4026 90.1645 8.72494 90.5734 8.94264 91.0393C9.16033 91.5051 9.26749 92.0155 9.2557 92.5296C9.27341 93.3923 9.01145 94.2376 8.50897 94.9391C7.99065 95.6277 7.26811 96.1347 6.44445 96.3884V96.4325C7.44303 96.5219 8.37619 96.9673 9.0737 97.6875C9.74764 98.4328 10.1015 99.413 10.0589 100.417C10.08 101.057 9.95669 101.693 9.69814 102.279C9.43959 102.864 9.05243 103.384 8.56542 103.8C7.51179 104.678 6.17158 105.138 4.80039 105.092L0 105.08ZM1.88252 90.5337V95.786H3.83405C4.71757 95.8365 5.59002 95.5693 6.29386 95.0329C6.59542 94.7699 6.833 94.4419 6.9885 94.0732C7.144 93.7046 7.21332 93.3053 7.19118 92.9058C7.19118 91.3245 6.14534 90.5337 4.05366 90.5337H1.88252ZM1.88252 97.4994V103.354H4.46783C5.40388 103.414 6.3296 103.13 7.07196 102.557C7.37985 102.287 7.62276 101.951 7.7825 101.574C7.94223 101.197 8.01467 100.789 7.99441 100.38C7.99441 98.4594 6.68711 97.4994 4.0725 97.4994H1.88252Z" fill="#D6D6D6"/>
<path d="M21.9369 105.08H13.3149V88.8081H21.598V90.5337H15.2226V95.9429H21.096V97.6563H15.2226V103.354H21.9369V105.08Z" fill="#D6D6D6"/>
<path d="M37.2861 105.08H35.4035V97.6563H26.9887V105.08H25.1062V88.8081H26.9887V95.9429H35.4035V88.8081H37.2861V105.08Z" fill="#D6D6D6"/>
<path d="M53.2245 105.08H50.9529L48.2295 100.518C48.0139 100.14 47.7729 99.7777 47.5079 99.4326C47.2966 99.1627 47.0544 98.9183 46.7863 98.7046C46.5477 98.5198 46.2777 98.3794 45.9893 98.2904C45.6798 98.1988 45.3583 98.1544 45.0355 98.1586H43.4667V105.061H41.5842V88.7902H46.4411C47.1074 88.7862 47.7708 88.8768 48.4115 89.0598C48.9825 89.2192 49.5144 89.4948 49.974 89.8693C50.4205 90.2353 50.7769 90.6991 51.0156 91.2248C51.4638 92.3268 51.506 93.552 51.1348 94.6822C50.9702 95.1412 50.7236 95.5664 50.407 95.9372C50.0847 96.315 49.7006 96.6352 49.2712 96.8846C48.8058 97.1639 48.3029 97.3752 47.7777 97.5121V97.5562C48.0316 97.6618 48.2701 97.8012 48.4868 97.9705C48.6973 98.1346 48.8908 98.3196 49.0641 98.5226C49.2575 98.7506 49.4376 98.9892 49.6038 99.2378C49.7795 99.5076 49.9802 99.8215 50.1936 100.173L53.2245 105.08ZM43.4667 90.5342V96.433H46.0709C46.5212 96.4382 46.969 96.3661 47.3949 96.2197C47.7827 96.0827 48.1391 95.8694 48.4429 95.5922C48.7439 95.3197 48.9797 94.9828 49.1331 94.6068C49.3065 94.1917 49.392 93.7453 49.3842 93.2955C49.4068 92.9145 49.3423 92.5331 49.1955 92.1808C49.0487 91.8285 48.8235 91.5144 48.537 91.2622C47.8401 90.7281 46.972 90.4671 46.096 90.5281L43.4667 90.5342Z" fill="#D6D6D6"/>
<path d="M68.0339 105.08H65.9255L64.1999 100.517H57.2973L55.6784 105.08H53.6013L59.8387 88.8081H61.8153L68.0339 105.08ZM63.5787 98.8047L61.0247 91.8703C60.9134 91.5157 60.8315 91.153 60.7799 90.785H60.7298C60.6754 91.1536 60.5893 91.5165 60.4725 91.8703L57.9624 98.8047H63.5787Z" fill="#D6D6D6"/>
<path d="M70.4436 105.08V88.8081H74.9366C80.6678 88.8081 83.5333 91.4524 83.5333 96.7402C83.5826 97.8599 83.3952 98.9775 82.9832 100.02C82.5712 101.062 81.9441 102.006 81.1426 102.789C79.5529 104.316 77.4235 105.08 74.7546 105.08H70.4436ZM72.3261 90.5337V103.354H74.7483C76.8818 103.354 78.5426 102.783 79.7307 101.641C80.9188 100.499 81.5128 98.8795 81.5128 96.7837C81.5128 92.6003 79.2956 90.5086 74.8613 90.5086L72.3261 90.5337Z" fill="#D6D6D6"/>
<path d="M89.6951 105.08V88.8081H94.1817C99.9171 88.8081 102.785 91.4524 102.785 96.7402C102.834 97.8599 102.647 98.9775 102.235 100.02C101.823 101.062 101.195 102.006 100.394 102.789C98.8001 104.316 96.6708 105.08 94.006 105.08H89.6951ZM91.5776 90.5337V103.354H94.006C96.1395 103.354 97.8003 102.783 98.9884 101.641C100.176 100.499 100.771 98.8795 100.771 96.7837C100.771 92.6003 98.5533 90.5086 94.1189 90.5086L91.5776 90.5337Z" fill="#D6D6D6"/>
<path d="M114.6 105.08H105.978V88.8081H114.236V90.5337H107.886V95.9429H113.766V97.6563H107.886V103.354H114.6V105.08Z" fill="#D6D6D6"/>
<path d="M129.962 105.08H128.08V97.6563H119.665V105.08H117.782V88.8081H119.665V95.9429H128.08V88.8081H129.962V105.08Z" fill="#D6D6D6"/>
<path d="M134.23 105.08V88.8081H138.716C144.452 88.8081 147.319 91.4524 147.319 96.7402C147.369 97.8599 147.181 98.9775 146.769 100.02C146.357 101.062 145.73 102.006 144.929 102.789C143.335 104.316 141.205 105.08 138.541 105.08H134.23ZM136.112 90.5337V103.354H138.541C140.674 103.354 142.335 102.783 143.523 101.641C144.711 100.499 145.305 98.8795 145.305 96.7837C145.305 92.6003 143.088 90.5086 138.654 90.5086L136.112 90.5337Z" fill="#D6D6D6"/>
<path d="M163.107 105.08H160.999L159.273 100.517H152.37L150.745 105.08H148.624L154.899 88.8081H156.87L163.107 105.08ZM158.652 98.8047L156.098 91.8703C155.984 91.5161 155.9 91.1533 155.847 90.785H155.803C155.75 91.1544 155.662 91.5176 155.539 91.8703L153.029 98.8047H158.652Z" fill="#D6D6D6"/>
<path d="M164.739 104.42V102.174C165.018 102.425 165.33 102.636 165.667 102.802C166.03 102.987 166.408 103.142 166.797 103.266C167.189 103.389 167.59 103.485 167.995 103.554C168.362 103.619 168.734 103.653 169.106 103.655C170.027 103.727 170.947 103.508 171.735 103.027C172.162 102.665 172.452 102.167 172.557 101.617C172.662 101.067 172.576 100.497 172.313 100.003C172.102 99.6608 171.832 99.3592 171.516 99.1115C171.134 98.8231 170.729 98.5672 170.304 98.3462C169.84 98.0952 169.338 97.8377 168.805 97.5679C168.271 97.2981 167.707 96.9908 167.211 96.6959C166.756 96.4191 166.335 96.0909 165.956 95.7173C165.601 95.3706 165.312 94.9618 165.102 94.5119C164.884 94.0117 164.777 93.4704 164.789 92.9247C164.773 92.2479 164.942 91.5796 165.278 90.992C165.592 90.4538 166.021 89.9911 166.533 89.6365C167.084 89.2682 167.696 89.0007 168.34 88.846C169.017 88.6705 169.713 88.5819 170.411 88.5825C171.609 88.5088 172.808 88.706 173.919 89.1597V91.3057C172.817 90.6008 171.524 90.2525 170.217 90.3081C169.795 90.3076 169.374 90.3517 168.962 90.4398C168.568 90.5139 168.19 90.6562 167.845 90.8602C167.528 91.052 167.258 91.3112 167.054 91.6195C166.84 91.9589 166.733 92.3542 166.747 92.755C166.735 93.1283 166.815 93.4991 166.979 93.8347C167.149 94.1554 167.384 94.4369 167.669 94.6626C168.012 94.9409 168.382 95.1848 168.773 95.3906C169.206 95.6228 169.708 95.8804 170.273 96.1628C170.838 96.4451 171.409 96.7523 171.93 97.066C172.425 97.3663 172.886 97.7196 173.304 98.12C173.683 98.4834 173.999 98.9076 174.239 99.375C174.478 99.8763 174.596 100.427 174.584 100.982C174.606 101.691 174.444 102.394 174.113 103.021C173.809 103.567 173.379 104.031 172.858 104.377C172.293 104.735 171.668 104.99 171.014 105.13C170.29 105.289 169.552 105.366 168.811 105.361C168.492 105.359 168.174 105.338 167.857 105.299C167.481 105.255 167.098 105.199 166.703 105.117C166.325 105.042 165.952 104.943 165.586 104.822C165.287 104.726 165.002 104.591 164.739 104.42V104.42Z" fill="#D6D6D6"/>
<path d="M190.071 105.08H188.189V97.6563H179.73V105.08H177.847V88.8081H179.73V95.9429H188.145V88.8081H190.027L190.071 105.08Z" fill="#D6D6D6"/>
<path d="M203.958 90.5337H199.258V105.08H197.375V90.5337H192.688V88.8081H203.983L203.958 90.5337Z" fill="#D6D6D6"/>
<path d="M210.001 88.8083V90.4463H208.413V103.442H210.001V105.08H204.918V103.442H206.506V90.4212H204.918V88.7832L210.001 88.8083Z" fill="#D6D6D6"/>
<path d="M56.5502 115.521H57.4476V120.19C57.4476 122.073 56.5377 122.618 55.3392 122.618C55.0098 122.617 54.6829 122.56 54.3728 122.449L54.5108 121.715C54.7522 121.803 55.0071 121.847 55.2639 121.847C56.0734 121.847 56.5189 121.489 56.5189 120.121L56.5502 115.521Z" fill="#D6D6D6"/>
<path d="M62.5679 119.199H59.8759V121.709H62.9004V122.461H58.9785V115.521H62.7435V116.275H59.8759V118.483H62.593L62.5679 119.199Z" fill="#D6D6D6"/>
<path d="M65.2788 122.468L63.5093 115.49H64.4631L65.2914 119.023C65.4984 119.889 65.6867 120.761 65.8122 121.433C65.9251 120.742 66.1448 119.914 66.3832 119.01L67.3119 115.49H68.2532L69.1066 119.029C69.3011 119.857 69.4894 120.686 69.5898 121.426C69.7341 120.655 69.9286 119.882 70.1483 119.01L71.0707 115.49H71.9932L70.0102 122.468H69.069L68.1904 118.835C67.9956 118.085 67.8426 117.324 67.7324 116.557C67.5913 117.325 67.4112 118.085 67.1927 118.835L66.2012 122.468H65.2788Z" fill="#D6D6D6"/>
<path d="M76.5179 119.199H73.807V121.709H76.8191V122.461H72.8909V115.521H76.6559V116.275H73.7882V118.483H76.499L76.5179 119.199Z" fill="#D6D6D6"/>
<path d="M77.998 115.521H78.9016V121.746H81.8885V122.499H77.998V115.521Z" fill="#D6D6D6"/>
<path d="M82.8931 115.521H83.7904V121.746H86.7773V122.499H82.8931V115.521Z" fill="#D6D6D6"/>
<path d="M91.3952 119.199H88.6781V121.709H91.7027V122.461H87.7808V115.521H91.5458V116.275H88.6718V118.483H91.3889L91.3952 119.199Z" fill="#D6D6D6"/>
<path d="M92.8767 115.583C93.448 115.479 94.0279 115.429 94.6086 115.433C95.3299 115.364 96.0509 115.567 96.6291 116.004C96.8091 116.174 96.9509 116.381 97.045 116.61C97.1391 116.84 97.1834 117.086 97.1751 117.334C97.1799 117.734 97.0536 118.124 96.8156 118.445C96.5776 118.765 96.241 118.999 95.8573 119.11V119.141C96.1375 119.266 96.38 119.462 96.5606 119.71C96.7412 119.958 96.8536 120.248 96.8864 120.553C97.0098 121.196 97.1904 121.826 97.4261 122.436H96.4911C96.2831 121.898 96.1276 121.341 96.0268 120.773C95.8197 119.807 95.4432 119.443 94.6274 119.412H93.7615V122.436H92.8579L92.8767 115.583ZM93.7803 118.759H94.7027C95.6628 118.759 96.2715 118.232 96.2715 117.435C96.2715 116.531 95.644 116.142 94.6713 116.129C94.3722 116.122 94.0733 116.15 93.7803 116.211V118.759Z" fill="#D6D6D6"/>
<path d="M99.8924 122.468V119.506L97.6836 115.49H98.7064L99.6916 117.416C99.9614 117.943 100.169 118.37 100.388 118.853C100.583 118.401 100.821 117.943 101.091 117.416L102.095 115.49H103.174L100.834 119.5V122.468H99.8924Z" fill="#D6D6D6"/>
<path d="M114.902 122.468C114.701 122.273 114.513 122.079 114.274 121.784C114.004 122.046 113.685 122.251 113.335 122.388C112.984 122.524 112.611 122.59 112.235 122.581C111.964 122.604 111.691 122.571 111.433 122.484C111.175 122.396 110.939 122.256 110.738 122.073C110.537 121.89 110.376 121.667 110.265 121.419C110.154 121.17 110.097 120.901 110.095 120.629C110.106 120.194 110.239 119.771 110.48 119.409C110.721 119.047 111.06 118.761 111.457 118.583V118.583C111.107 118.176 110.904 117.663 110.879 117.127C110.875 116.896 110.918 116.667 111.006 116.453C111.094 116.239 111.225 116.045 111.391 115.883C111.557 115.722 111.754 115.597 111.97 115.515C112.187 115.433 112.418 115.397 112.649 115.408C112.85 115.395 113.051 115.424 113.24 115.493C113.429 115.562 113.602 115.669 113.747 115.809C113.892 115.948 114.007 116.116 114.083 116.302C114.16 116.488 114.197 116.688 114.193 116.889C114.193 117.623 113.772 118.2 112.661 118.771C113.251 119.455 113.916 120.221 114.362 120.717C114.728 120.092 114.956 119.397 115.033 118.678H115.862C115.759 119.611 115.413 120.5 114.858 121.256L116.006 122.511L114.902 122.468ZM113.803 121.269C113.383 120.811 112.611 119.964 111.833 119.073C111.573 119.212 111.354 119.415 111.195 119.664C111.037 119.912 110.946 120.197 110.93 120.491C110.925 120.679 110.959 120.866 111.03 121.041C111.1 121.215 111.206 121.373 111.34 121.506C111.474 121.638 111.634 121.741 111.809 121.81C111.985 121.878 112.172 121.91 112.36 121.903C112.632 121.903 112.9 121.847 113.149 121.738C113.397 121.629 113.62 121.469 113.803 121.269V121.269ZM111.676 117.008C111.695 117.477 111.882 117.922 112.203 118.263C112.912 117.862 113.364 117.485 113.364 116.896C113.375 116.783 113.362 116.668 113.326 116.56C113.29 116.453 113.232 116.354 113.156 116.269C113.08 116.185 112.987 116.118 112.884 116.071C112.78 116.024 112.668 115.999 112.555 115.998C112.429 116.001 112.305 116.031 112.192 116.085C112.078 116.139 111.976 116.215 111.894 116.31C111.811 116.405 111.749 116.516 111.712 116.636C111.674 116.757 111.662 116.883 111.676 117.008V117.008Z" fill="#D6D6D6"/>
<path d="M130.891 122.161C130.205 122.408 129.481 122.537 128.751 122.544C128.275 122.589 127.794 122.529 127.343 122.369C126.891 122.209 126.48 121.953 126.139 121.618C125.797 121.282 125.532 120.876 125.364 120.428C125.195 119.98 125.126 119.5 125.162 119.023C125.162 116.94 126.605 115.415 128.927 115.415C129.522 115.4 130.114 115.509 130.665 115.735L130.452 116.475C129.966 116.261 129.439 116.159 128.908 116.174C128.532 116.144 128.154 116.196 127.799 116.326C127.445 116.456 127.123 116.662 126.856 116.928C126.589 117.195 126.382 117.516 126.251 117.87C126.12 118.224 126.068 118.602 126.097 118.979C126.097 120.748 127.164 121.797 128.789 121.797C129.199 121.821 129.61 121.757 129.994 121.608V119.531H128.576V118.804H130.872L130.891 122.161Z" fill="#D6D6D6"/>
<path d="M138.239 118.903C138.239 121.306 136.777 122.581 134.994 122.581C133.212 122.581 131.857 121.156 131.857 119.042C131.857 116.827 133.231 115.376 135.095 115.376C136.959 115.376 138.239 116.832 138.239 118.903ZM132.817 119.023C132.817 120.51 133.627 121.846 135.045 121.846C136.463 121.846 137.285 120.535 137.285 118.947C137.285 117.56 136.557 116.111 135.057 116.111C133.558 116.111 132.817 117.485 132.817 119.023Z" fill="#D6D6D6"/>
<path d="M139.406 115.521H140.31V121.746H143.291V122.499H139.406V115.521Z" fill="#D6D6D6"/>
<path d="M144.294 115.584C144.929 115.484 145.571 115.434 146.214 115.434C147.233 115.351 148.244 115.663 149.038 116.306C149.374 116.628 149.636 117.02 149.806 117.453C149.976 117.886 150.05 118.351 150.023 118.816C150.047 119.312 149.97 119.808 149.798 120.274C149.625 120.74 149.361 121.166 149.019 121.527C148.161 122.252 147.053 122.612 145.932 122.531C145.385 122.533 144.838 122.506 144.294 122.449V115.584ZM145.198 121.753C145.499 121.797 145.803 121.816 146.108 121.809C148.034 121.809 149.082 120.73 149.082 118.847C149.082 117.197 148.16 116.149 146.252 116.149C145.898 116.145 145.545 116.176 145.198 116.243V121.753Z" fill="#D6D6D6"/>
<path d="M116.176 61.2987C115.285 61.2987 114.388 61.2987 113.503 61.2987C112.179 61.3552 110.849 61.2986 109.531 61.3551C108.213 61.4116 106.895 61.3553 105.578 61.3992C103.557 61.3992 101.537 61.4556 99.5161 61.4556C98.8384 61.4556 98.1607 61.4936 97.483 61.4936C95.7762 61.4936 94.0693 61.4936 92.3688 61.4936C91.3773 61.4936 90.3922 61.4622 89.407 61.4936C88.4218 61.5249 87.2923 61.5371 86.2318 61.5371H77.8859C77.453 61.5371 77.4467 61.5372 77.4404 61.0854C77.4404 59.6485 77.4969 58.2053 77.5094 56.7683C77.5094 56.0529 77.5094 55.3376 77.5094 54.6223C77.5659 52.7398 77.5095 50.8195 77.5597 48.9245C77.5597 48.0773 77.5597 47.2236 77.6036 46.3765C77.6977 44.5567 77.6036 42.7374 77.66 40.9177C77.7228 39.2297 77.6601 37.5415 77.7166 35.8535C77.773 34.1655 77.7165 32.3519 77.7667 30.6012C77.8169 28.8505 77.7667 27.1561 77.8232 25.4304C77.8797 23.7048 77.8232 21.9482 77.8734 20.21C77.9236 18.4718 77.8734 16.7774 77.9299 15.0643C77.9864 13.3512 77.9299 11.6567 77.9864 9.94991C78.0177 8.9961 77.9864 8.06766 78.0303 7.08876C78.1182 5.20624 78.0303 3.32373 78.0805 1.44121C78.0805 0.64428 78.0805 0.637686 78.8774 0.643961C79.9881 0.643961 81.0926 0.612978 82.1907 0.575328C83.2888 0.537678 84.525 0.575328 85.6921 0.575328C86.4138 0.575328 87.1354 0.524882 87.8633 0.480957C88.1582 0.480957 88.4908 0.480957 88.7606 0.480957C90.9067 0.480957 93.0528 0.480957 95.1989 0.480957C101.273 0.480957 107.339 0.480957 113.397 0.480957C114.031 0.516287 114.662 0.610945 115.279 0.763457C118.169 1.30434 120.853 2.63345 123.035 4.60386C125.046 6.47867 126.51 8.86444 127.271 11.5064C127.663 12.8275 127.915 14.1862 128.024 15.5601C128.068 16.1123 128.137 16.6704 128.143 17.2226C128.135 17.8315 128.088 18.4395 128.005 19.0426C127.779 20.9056 127.295 22.7281 126.568 24.4579C125.921 26.001 125.077 27.454 124.058 28.7812C123.542 29.4491 122.978 30.0783 122.37 30.6637C122.131 30.8959 122.138 30.9275 122.439 31.097C123.471 31.6767 124.452 32.3441 125.369 33.0922C126.59 34.0997 127.673 35.2647 128.588 36.5564C129.729 38.1576 130.612 39.9274 131.205 41.8019C131.527 42.7374 131.756 43.7026 131.889 44.6827C131.998 45.6052 132.019 46.5358 131.952 47.4623C131.904 48.3352 131.792 49.2032 131.619 50.06C131.253 51.967 130.49 53.7756 129.379 55.3687C128.81 56.1694 128.149 56.9007 127.409 57.5465C126.375 58.446 125.214 59.188 123.964 59.7489C122.94 60.212 121.872 60.5714 120.776 60.8219C119.848 61.0404 118.904 61.181 117.952 61.2423C117.394 61.28 116.785 61.2987 116.176 61.2987ZM112.286 29.5846V29.6661C112.035 29.7392 111.775 29.7751 111.514 29.7727C110.51 29.7727 109.506 29.7729 108.496 29.8168C106.243 29.8607 103.99 29.8542 101.744 29.8793C98.9576 29.8793 96.1778 29.8793 93.3916 29.8793C90.4298 29.8793 87.468 29.8799 84.5061 29.8297C83.5963 29.8297 82.6864 29.8297 81.7765 29.8297C81.6134 29.8297 81.4628 29.8291 81.4753 30.0613C81.4753 30.4629 81.4313 30.8711 81.4251 31.279C81.4251 33.9898 81.4251 36.7006 81.3749 39.4365C81.3121 42.2979 81.3749 45.1659 81.3309 48.0273C81.2745 50.5374 81.3309 52.9783 81.3309 55.4569C81.3309 55.6263 81.2996 55.7894 81.2996 55.9588C81.2996 56.4608 81.2996 56.9692 81.2996 57.4712C81.2996 57.6469 81.3874 57.6655 81.5192 57.5588C82.222 56.9752 82.9248 56.4045 83.6213 55.8209C85.4662 54.2835 87.3425 52.7775 89.2187 51.2715L93.6991 47.7136C94.7219 46.9104 95.7385 46.1008 96.7676 45.3102C97.7967 44.5195 98.6501 43.8728 99.6227 43.1574C100.727 42.3417 101.825 41.526 102.93 40.7228C104.034 39.9196 104.988 39.2546 106.017 38.5204L111.25 34.7554L116.948 30.6888C117.187 30.5131 117.187 30.463 116.948 30.2936C116.001 29.6661 115.066 29.039 114.093 28.3676C112.317 27.1627 110.535 25.9639 108.766 24.7465C107.155 23.6421 105.551 22.5291 103.953 21.408C103.137 20.8433 102.334 20.2664 101.53 19.6891C101.461 19.6389 101.304 19.5948 101.38 19.4881C101.455 19.3814 101.562 19.488 101.637 19.5445C102.127 19.7955 102.61 20.0531 103.087 20.3166C104.982 21.3457 106.864 22.3767 108.734 23.41C110.993 24.665 113.246 25.8824 115.48 27.175C116.553 27.8026 117.638 28.3927 118.711 28.9951C118.793 29.0564 118.895 29.0852 118.997 29.0759C119.099 29.0667 119.194 29.02 119.264 28.9448C119.634 28.6122 119.973 28.2609 120.305 27.8969C121.147 26.9742 121.87 25.9494 122.458 24.847C123.143 23.5671 123.661 22.2048 124.001 20.7934C124.242 19.8965 124.393 18.9778 124.453 18.0511C124.5 16.6451 124.369 15.239 124.064 13.8657C123.709 12.1279 122.998 10.4825 121.974 9.03378C121.121 7.85671 120.039 6.86457 118.793 6.11625C117.97 5.61643 117.089 5.21781 116.17 4.92987C114.994 4.54325 113.768 4.33182 112.531 4.30236C110.259 4.30236 107.987 4.30263 105.716 4.26498C103.206 4.18968 100.696 4.26494 98.1858 4.21473C94.9604 4.13943 91.735 4.21483 88.5033 4.15836C86.3322 4.11443 84.1547 4.15836 81.9773 4.15836C81.6133 4.15836 81.6071 4.15843 81.5945 4.54748C81.582 4.93654 81.6698 5.4193 81.6322 5.846C81.5757 6.52998 81.5945 7.20769 81.5945 7.88539C81.5945 11.0229 81.5945 14.0913 81.5381 17.1975C81.5381 17.4359 81.582 17.562 81.8581 17.5933C83.2135 17.7502 84.5563 17.9318 85.9055 18.1075L88.3213 18.4212L91.7162 18.8294L94.5525 19.1744C94.7972 19.1744 95.042 19.2622 95.2867 19.3061C95.3244 19.3061 95.3745 19.306 95.3745 19.3876C95.3745 19.4692 95.3244 19.4567 95.2804 19.463C95.2283 19.4692 95.1757 19.4692 95.1236 19.463C94.7063 19.42 94.2858 19.42 93.8685 19.463C92.7077 19.5195 91.5405 19.4631 90.3733 19.5384C88.9928 19.6011 87.5997 19.5383 86.2129 19.5947C84.8262 19.6512 83.3139 19.5946 81.8644 19.6511C81.6259 19.6511 81.5443 19.733 81.5443 19.9777C81.5443 21.6657 81.5443 23.3533 81.5004 25.0413C81.5004 25.7127 81.5004 26.3841 81.5004 27.0556C81.5004 27.1999 81.5004 27.3446 81.7075 27.3509L82.4982 27.4012C83.4269 27.4576 84.3806 27.5011 85.278 27.5764C86.5769 27.6831 87.8821 27.7648 89.1873 27.8338C89.8148 27.8652 90.3984 27.9092 91.0071 27.9594C92.4252 28.0724 93.8371 28.1793 95.2553 28.2609C95.8201 28.2609 96.3848 28.3295 96.9495 28.3859C97.9849 28.4863 99.0266 28.5492 100.087 28.6182C100.884 28.6747 101.668 28.7561 102.465 28.8063C103.846 28.8942 105.226 29.039 106.607 29.1519L109.035 29.3523C109.951 29.4339 110.861 29.5469 111.777 29.5846C111.909 29.5532 112.098 29.5532 112.286 29.5846ZM82.8495 57.5778C82.8945 57.607 82.9449 57.6269 82.9977 57.6366C83.0504 57.6463 83.1045 57.6454 83.157 57.6342L85.9055 57.5839H87.9197C88.7355 57.5839 89.5575 57.5461 90.3733 57.5398L93.6551 57.4895C94.9101 57.4582 96.1652 57.4901 97.4202 57.4399C98.5371 57.4023 99.6604 57.4394 100.784 57.408C101.543 57.3704 102.296 57.408 103.055 57.408C104.605 57.3704 106.193 57.408 107.711 57.3578C109.977 57.3139 112.236 57.3581 114.501 57.3204C115.317 57.3204 116.139 57.2765 116.954 57.3204C117.935 57.3428 118.914 57.2479 119.872 57.0379C120.938 56.8158 121.973 56.4639 122.953 55.99C124.124 55.4162 125.169 54.6164 126.028 53.6369C126.542 53.0519 126.981 52.4045 127.333 51.7102C127.893 50.575 128.274 49.3605 128.463 48.1088C128.591 47.3603 128.66 46.6027 128.67 45.8433C128.653 44.8263 128.503 43.8158 128.224 42.8375C127.688 40.7343 126.734 38.7603 125.419 37.0331C124.102 35.352 122.485 33.9291 120.65 32.8355C120.523 32.7393 120.368 32.6872 120.208 32.6872C120.048 32.6872 119.893 32.7393 119.766 32.8355C117.783 34.1658 115.798 35.4892 113.811 36.807C112.137 37.924 110.445 39.035 108.734 40.1394C107.642 40.8589 106.544 41.5723 105.44 42.2793C102.955 43.869 100.493 45.4959 98.054 47.1608L92.852 50.7316L89.3003 53.1601L84.2803 56.5985L82.8495 57.5778Z" fill="#D6D6D6"/>
</svg>
