<svg width="727" height="79" viewBox="0 0 727 79" fill="none" xmlns="http://www.w3.org/2000/svg">
<path d="M65.4916 39.9527C65.4916 47.7674 64.0806 54.5208 61.2587 60.213C58.4367 65.9051 54.5656 70.2948 49.6452 73.3821C44.7249 76.4694 39.1051 78.013 32.7858 78.013C26.4666 78.013 20.8468 76.4694 15.9264 73.3821C11.0061 70.2948 7.13492 65.9051 4.31296 60.213C1.491 54.5208 0.0800214 47.7674 0.0800214 39.9527C0.0800214 32.1381 1.491 25.3847 4.31296 19.6925C7.13492 14.0003 11.0061 9.61063 15.9264 6.52335C20.8468 3.43608 26.4666 1.89244 32.7858 1.89244C39.1051 1.89244 44.7249 3.43608 49.6452 6.52335C54.5656 9.61063 58.4367 14.0003 61.2587 19.6925C64.0806 25.3847 65.4916 32.1381 65.4916 39.9527ZM56.8087 39.9527C56.8087 33.537 55.7353 28.1222 53.5887 23.7084C51.4662 19.2945 48.584 15.954 44.942 13.6868C41.3241 11.4196 37.272 10.286 32.7858 10.286C28.2996 10.286 24.2355 11.4196 20.5935 13.6868C16.9756 15.954 14.0933 19.2945 11.9467 23.7084C9.82423 28.1222 8.76298 33.537 8.76298 39.9527C8.76298 46.3685 9.82423 51.7833 11.9467 56.1971C14.0933 60.6109 16.9756 63.9514 20.5935 66.2187C24.2355 68.4859 28.2996 69.6195 32.7858 69.6195C37.272 69.6195 41.3241 68.4859 44.942 66.2187C48.584 63.9514 51.4662 60.6109 53.5887 56.1971C55.7353 51.7833 56.8087 46.3685 56.8087 39.9527ZM114.442 54.2796V21.4291H122.98V77H114.442V67.5935H113.863C112.56 70.4154 110.534 72.8153 107.785 74.7931C105.035 76.7467 101.562 77.7236 97.3653 77.7236C93.8921 77.7236 90.8048 76.9638 88.1035 75.4443C85.4021 73.9007 83.2796 71.5852 81.736 68.4979C80.1923 65.3865 79.4205 61.4672 79.4205 56.7398V21.4291H87.9588V56.1609C87.9588 60.213 89.0924 63.4449 91.3596 65.8569C93.6509 68.2688 96.5694 69.4748 100.115 69.4748C102.237 69.4748 104.396 68.9321 106.591 67.8467C108.81 66.7613 110.667 65.0971 112.162 62.854C113.682 60.6109 114.442 57.7528 114.442 54.2796ZM138.618 77V21.4291H146.867V29.8226H147.446C148.459 27.073 150.292 24.842 152.945 23.1295C155.598 21.417 158.589 20.5608 161.918 20.5608C162.545 20.5608 163.329 20.5729 164.269 20.597C165.21 20.6211 165.921 20.6573 166.404 20.7055V29.3885C166.114 29.3161 165.451 29.2076 164.414 29.0629C163.401 28.894 162.328 28.8096 161.194 28.8096C158.493 28.8096 156.081 29.3764 153.958 30.51C151.86 31.6195 150.196 33.1631 148.966 35.1409C147.76 37.0946 147.157 39.3256 147.157 41.834V77H138.618ZM265.959 26.06H256.987C256.456 23.4792 255.528 21.212 254.201 19.2584C252.899 17.3047 251.307 15.6646 249.426 14.338C247.568 12.9873 245.506 11.9743 243.239 11.299C240.972 10.6236 238.608 10.286 236.148 10.286C231.662 10.286 227.598 11.4196 223.956 13.6868C220.338 15.954 217.455 19.2945 215.309 23.7084C213.186 28.1222 212.125 33.537 212.125 39.9527C212.125 46.3685 213.186 51.7833 215.309 56.1971C217.455 60.6109 220.338 63.9514 223.956 66.2187C227.598 68.4859 231.662 69.6195 236.148 69.6195C238.608 69.6195 240.972 69.2818 243.239 68.6065C245.506 67.9311 247.568 66.9302 249.426 65.6036C251.307 64.2529 252.899 62.6008 254.201 60.6471C255.528 58.6693 256.456 56.4021 256.987 53.8455H265.959C265.284 57.6322 264.054 61.021 262.269 64.0117C260.484 67.0025 258.265 69.5471 255.612 71.6455C252.959 73.7198 249.98 75.2996 246.676 76.385C243.396 77.4703 239.886 78.013 236.148 78.013C229.829 78.013 224.209 76.4694 219.288 73.3821C214.368 70.2948 210.497 65.9051 207.675 60.213C204.853 54.5208 203.442 47.7674 203.442 39.9527C203.442 32.1381 204.853 25.3847 207.675 19.6925C210.497 14.0003 214.368 9.61063 219.288 6.52335C224.209 3.43608 229.829 1.89244 236.148 1.89244C239.886 1.89244 243.396 2.43513 246.676 3.5205C249.98 4.60587 252.959 6.19774 255.612 8.29612C258.265 10.3704 260.484 12.9029 262.269 15.8937C264.054 18.8604 265.284 22.2491 265.959 26.06ZM301.876 78.1577C296.859 78.1577 292.457 76.9638 288.671 74.576C284.908 72.1882 281.966 68.8477 279.843 64.5544C277.745 60.2612 276.695 55.2444 276.695 49.504C276.695 43.7153 277.745 38.6623 279.843 34.345C281.966 30.0276 284.908 26.675 288.671 24.2872C292.457 21.8994 296.859 20.7055 301.876 20.7055C306.893 20.7055 311.283 21.8994 315.045 24.2872C318.832 26.675 321.774 30.0276 323.873 34.345C325.995 38.6623 327.057 43.7153 327.057 49.504C327.057 55.2444 325.995 60.2612 323.873 64.5544C321.774 68.8477 318.832 72.1882 315.045 74.576C311.283 76.9638 306.893 78.1577 301.876 78.1577ZM301.876 70.4878C305.687 70.4878 308.822 69.511 311.283 67.5573C313.743 65.6036 315.564 63.0349 316.746 59.8512C317.927 56.6674 318.518 53.2184 318.518 49.504C318.518 45.7896 317.927 42.3285 316.746 39.1206C315.564 35.9127 313.743 33.3199 311.283 31.3421C308.822 29.3643 305.687 28.3755 301.876 28.3755C298.065 28.3755 294.93 29.3643 292.469 31.3421C290.009 33.3199 288.188 35.9127 287.006 39.1206C285.825 42.3285 285.234 45.7896 285.234 49.504C285.234 53.2184 285.825 56.6674 287.006 59.8512C288.188 63.0349 290.009 65.6036 292.469 67.5573C294.93 69.511 298.065 70.4878 301.876 70.4878ZM348.628 2.90545V77H340.09V2.90545H348.628ZM372.805 2.90545V77H364.267V2.90545H372.805ZM411.743 78.1577C406.388 78.1577 401.769 76.9759 397.886 74.6122C394.027 72.2244 391.048 68.8959 388.95 64.6268C386.876 60.3336 385.838 55.3409 385.838 49.6487C385.838 43.9565 386.876 38.9397 388.95 34.5982C391.048 30.2326 393.967 26.8318 397.705 24.3958C401.468 21.9356 405.857 20.7055 410.874 20.7055C413.769 20.7055 416.627 21.1879 419.449 22.1527C422.271 23.1174 424.839 24.6852 427.155 26.8559C429.47 29.0026 431.315 31.8486 432.69 35.3942C434.065 38.9397 434.752 43.3053 434.752 48.491V52.1089H391.916V44.7284H426.069C426.069 41.5928 425.442 38.795 424.188 36.3348C422.958 33.8747 421.197 31.9331 418.906 30.51C416.639 29.087 413.961 28.3755 410.874 28.3755C407.473 28.3755 404.531 29.2196 402.047 30.908C399.586 32.5722 397.693 34.743 396.366 37.4202C395.04 40.0974 394.377 42.9676 394.377 46.0308V50.9511C394.377 55.1479 395.1 58.7055 396.547 61.6239C398.019 64.5183 400.057 66.7252 402.662 68.2447C405.266 69.7401 408.293 70.4878 411.743 70.4878C413.986 70.4878 416.012 70.1742 417.821 69.5471C419.654 68.8959 421.233 67.9311 422.56 66.6528C423.887 65.3504 424.912 63.7344 425.635 61.8048L433.884 64.1203C433.016 66.9181 431.557 69.3783 429.506 71.5008C427.456 73.5992 424.924 75.2393 421.909 76.4211C418.894 77.5789 415.505 78.1577 411.743 78.1577ZM470.316 78.1577C465.107 78.1577 460.62 76.9276 456.858 74.4675C453.095 72.0073 450.201 68.6185 448.175 64.3012C446.149 59.9838 445.136 55.0514 445.136 49.504C445.136 43.8601 446.173 38.8794 448.247 34.5621C450.345 30.2206 453.264 26.8318 457.002 24.3958C460.765 21.9356 465.155 20.7055 470.172 20.7055C474.079 20.7055 477.6 21.4291 480.736 22.8763C483.871 24.3234 486.44 26.3494 488.442 28.9543C490.444 31.5592 491.686 34.5982 492.168 38.0714H483.63C482.979 35.5389 481.532 33.2958 479.289 31.3421C477.07 29.3643 474.079 28.3755 470.316 28.3755C466.988 28.3755 464.069 29.2437 461.561 30.9803C459.077 32.6928 457.135 35.1168 455.736 38.2523C454.361 41.3637 453.674 45.0178 453.674 49.2145C453.674 53.5078 454.349 57.2463 455.7 60.43C457.075 63.6138 459.004 66.086 461.489 67.8467C463.997 69.6074 466.94 70.4878 470.316 70.4878C472.535 70.4878 474.549 70.1019 476.358 69.3301C478.167 68.5582 479.699 67.4488 480.953 66.0016C482.207 64.5544 483.1 62.8178 483.63 60.7918H492.168C491.686 64.072 490.492 67.0267 488.587 69.6557C486.705 72.2606 484.209 74.3348 481.098 75.8785C478.01 77.398 474.417 78.1577 470.316 78.1577ZM528.818 21.4291V28.6649H500.019V21.4291H528.818ZM508.413 8.11523H516.951V61.0813C516.951 63.4932 517.301 65.3021 518 66.5081C518.724 67.6899 519.64 68.4859 520.75 68.8959C521.883 69.2818 523.077 69.4748 524.331 69.4748C525.272 69.4748 526.044 69.4265 526.647 69.3301C527.25 69.2095 527.732 69.113 528.094 69.0406L529.831 76.7106C529.252 76.9276 528.444 77.1447 527.407 77.3618C526.37 77.603 525.055 77.7236 523.463 77.7236C521.051 77.7236 518.688 77.205 516.372 76.1679C514.081 75.1308 512.175 73.5509 510.656 71.4284C509.16 69.3059 508.413 66.6287 508.413 63.3967V8.11523ZM541.661 77V21.4291H550.199V77H541.661ZM546.003 12.1673C544.338 12.1673 542.903 11.6005 541.697 10.4669C540.516 9.33325 539.925 7.97051 539.925 6.37864C539.925 4.78676 540.516 3.42402 541.697 2.29041C542.903 1.15681 544.338 0.590002 546.003 0.590002C547.667 0.590002 549.09 1.15681 550.272 2.29041C551.478 3.42402 552.081 4.78676 552.081 6.37864C552.081 7.97051 551.478 9.33325 550.272 10.4669C549.09 11.6005 547.667 12.1673 546.003 12.1673ZM588.413 78.1577C583.397 78.1577 578.995 76.9638 575.208 74.576C571.446 72.1882 568.503 68.8477 566.38 64.5544C564.282 60.2612 563.233 55.2444 563.233 49.504C563.233 43.7153 564.282 38.6623 566.38 34.345C568.503 30.0276 571.446 26.675 575.208 24.2872C578.995 21.8994 583.397 20.7055 588.413 20.7055C593.43 20.7055 597.82 21.8994 601.583 24.2872C605.369 26.675 608.312 30.0276 610.41 34.345C612.533 38.6623 613.594 43.7153 613.594 49.504C613.594 55.2444 612.533 60.2612 610.41 64.5544C608.312 68.8477 605.369 72.1882 601.583 74.576C597.82 76.9638 593.43 78.1577 588.413 78.1577ZM588.413 70.4878C592.224 70.4878 595.36 69.511 597.82 67.5573C600.28 65.6036 602.101 63.0349 603.283 59.8512C604.465 56.6674 605.056 53.2184 605.056 49.504C605.056 45.7896 604.465 42.3285 603.283 39.1206C602.101 35.9127 600.28 33.3199 597.82 31.3421C595.36 29.3643 592.224 28.3755 588.413 28.3755C584.603 28.3755 581.467 29.3643 579.007 31.3421C576.547 33.3199 574.726 35.9127 573.544 39.1206C572.362 42.3285 571.771 45.7896 571.771 49.504C571.771 53.2184 572.362 56.6674 573.544 59.8512C574.726 63.0349 576.547 65.6036 579.007 67.5573C581.467 69.511 584.603 70.4878 588.413 70.4878ZM635.166 43.5706V77H626.628V21.4291H634.876V30.112H635.6C636.902 27.2901 638.88 25.0229 641.533 23.3104C644.186 21.5738 647.611 20.7055 651.808 20.7055C655.571 20.7055 658.863 21.4773 661.685 23.021C664.507 24.5405 666.702 26.8559 668.27 29.9673C669.837 33.0546 670.621 36.9619 670.621 41.6893V77H662.083V42.2682C662.083 37.9026 660.949 34.5018 658.682 32.0657C656.415 29.6055 653.303 28.3755 649.348 28.3755C646.622 28.3755 644.186 28.9664 642.04 30.1482C639.917 31.3301 638.241 33.0546 637.011 35.3218C635.781 37.589 635.166 40.3386 635.166 43.5706ZM725.586 33.8747L717.916 36.0454C717.434 34.7671 716.722 33.5249 715.782 32.319C714.865 31.0889 713.611 30.0759 712.019 29.2799C710.427 28.484 708.389 28.086 705.905 28.086C702.504 28.086 699.67 28.8699 697.403 30.4377C695.16 31.9813 694.038 33.947 694.038 36.3348C694.038 38.4573 694.81 40.1336 696.353 41.3637C697.897 42.5938 700.309 43.6189 703.589 44.4389L711.838 46.4649C716.807 47.6709 720.509 49.516 722.945 52.0003C725.381 54.4605 726.599 57.6322 726.599 61.5154C726.599 64.6991 725.683 67.5452 723.849 70.0536C722.041 72.562 719.508 74.5398 716.252 75.987C712.996 77.4341 709.209 78.1577 704.892 78.1577C699.224 78.1577 694.532 76.9276 690.818 74.4675C687.104 72.0073 684.752 68.4135 683.763 63.6861L691.867 61.6601C692.639 64.6509 694.098 66.894 696.245 68.3894C698.416 69.8848 701.25 70.6325 704.747 70.6325C708.727 70.6325 711.886 69.7883 714.226 68.1C716.59 66.3875 717.771 64.3374 717.771 61.9495C717.771 60.02 717.096 58.404 715.745 57.1016C714.395 55.775 712.32 54.7861 709.523 54.1349L700.261 51.9641C695.172 50.7582 691.433 48.8889 689.045 46.3564C686.682 43.7998 685.5 40.6039 685.5 36.769C685.5 33.6335 686.38 30.8597 688.141 28.4478C689.926 26.0359 692.35 24.1425 695.413 22.7677C698.5 21.3929 701.997 20.7055 705.905 20.7055C711.404 20.7055 715.721 21.9115 718.857 24.3234C722.016 26.7353 724.26 29.9191 725.586 33.8747Z" fill="#D6D8D4"/>
</svg>
