<svg width="16" height="16" viewBox="0 0 16 16" fill="none" xmlns="http://www.w3.org/2000/svg">
<path d="M13.0734 8.28126V14.1814C13.0734 14.9647 12.4385 15.5996 11.6552 15.5996H2.41814C1.63492 15.5996 1 14.9647 1 14.1814V5.26989C1 4.48667 1.63492 3.85175 2.41814 3.85175H6.2318M6.83547 6.93315L8.24403 8.28126M14.8674 3.56682L9.14921 9.50866C8.95272 9.71284 8.69957 9.85347 8.4224 9.91242L7.50625 10.1073C6.46644 10.3284 5.56199 9.3692 5.84383 8.34417L6.13371 7.2899C6.19803 7.05598 6.32128 6.84247 6.49168 6.66979L12.128 0.958057C12.6579 0.421037 13.5155 0.392942 14.0795 0.894127L14.7876 1.52344C15.3895 2.05838 15.4257 2.98659 14.8674 3.56682Z" stroke="#C1C1C1" stroke-width="0.709072" stroke-linecap="round" stroke-linejoin="round"/>
</svg>
