<svg width="18" height="26" viewBox="0 0 18 26" fill="none" xmlns="http://www.w3.org/2000/svg">
<path d="M8.89471 13.6313C10.9885 13.6313 12.9966 14.4631 14.4771 15.9436C15.9576 17.4242 16.7894 19.4322 16.7894 21.5261V22.5739C16.7894 23.2173 16.5338 23.8343 16.0789 24.2892C15.624 24.7442 15.007 24.9997 14.3636 24.9997H3.42583C3.10727 24.9997 2.79181 24.937 2.49749 24.8151C2.20318 24.6932 1.93578 24.5145 1.71052 24.2892C1.48526 24.064 1.30657 23.7965 1.18466 23.5022C1.06275 23.2079 1 22.8925 1 22.5739V21.5261C1 19.4322 1.83177 17.4242 3.31231 15.9436C4.79286 14.4631 6.8009 13.6313 8.89471 13.6313V13.6313Z" stroke="#3F3F3F" stroke-width="1.5" stroke-miterlimit="10"/>
<path d="M13.6311 6.0526C13.6311 3.26212 11.369 1 8.5785 1C5.78802 1 3.52588 3.26212 3.52588 6.0526C3.52588 8.84308 5.78802 11.1052 8.5785 11.1052C11.369 11.1052 13.6311 8.84308 13.6311 6.0526Z" stroke="#3F3F3F" stroke-width="1.5" stroke-miterlimit="10"/>
<path d="M8.89471 13.6313C10.9885 13.6313 12.9966 14.4631 14.4771 15.9436C15.9576 17.4242 16.7894 19.4322 16.7894 21.5261V22.5739C16.7894 23.2173 16.5338 23.8343 16.0789 24.2892C15.624 24.7442 15.007 24.9997 14.3636 24.9997H3.42583C3.10727 24.9997 2.79181 24.937 2.49749 24.8151C2.20318 24.6932 1.93578 24.5145 1.71052 24.2892C1.48526 24.064 1.30657 23.7965 1.18466 23.5022C1.06275 23.2079 1 22.8925 1 22.5739V21.5261C1 19.4322 1.83177 17.4242 3.31231 15.9436C4.79286 14.4631 6.8009 13.6313 8.89471 13.6313V13.6313Z" stroke="#3F3F3F" stroke-width="1.5" stroke-miterlimit="10"/>
<path d="M13.6311 6.0526C13.6311 3.26212 11.369 1 8.5785 1C5.78802 1 3.52588 3.26212 3.52588 6.0526C3.52588 8.84308 5.78802 11.1052 8.5785 11.1052C11.369 11.1052 13.6311 8.84308 13.6311 6.0526Z" stroke="#3F3F3F" stroke-width="1.5" stroke-miterlimit="10"/>
</svg>
